<svg xmlns="http://www.w3.org/2000/svg">
<symbol id="logo" viewBox="0 0 160 27">
<g clip-path="url(#clip0_14235_23)">
<mask id="mask0_14235_23" style="mask-type:luminance" maskUnits="userSpaceOnUse" x="0" y="0" width="160" height="27">
<path d="M159.989 0.606689H0.982513V26.3531H159.989V0.606689Z" fill="white"/>
</mask>
<g mask="url(#mask0_14235_23)">
<path d="M18.0756 2.7999H17.1812V0.606689H11.7154V2.7999H10.7216C4.75891 2.7999 0.982513 5.66061 0.982513 10.8099V11.7635C0.982513 16.8174 4.65954 19.6782 10.821 19.6782H11.7154V21.8714H17.1812V19.6782H18.0756C24.1377 19.6782 27.9141 16.8174 27.9141 11.6682V10.7146C27.9141 5.4699 24.1377 2.70454 18.0756 2.70454V2.7999ZM10.5228 15.9592C7.83966 15.9592 6.44835 14.3382 6.44835 11.4774V11.096C6.44835 8.23526 7.83966 6.61419 10.5228 6.61419H11.7154V15.8639H10.5228V15.9592ZM22.4483 11.4774C22.4483 14.3382 20.9576 15.9592 18.2744 15.9592H17.1812V6.61419H18.2744C20.9576 6.61419 22.4483 8.1399 22.4483 11.096V11.4774ZM39.0446 6.70954C33.7775 6.70954 30.1999 9.85638 30.1999 14.3382C30.1999 18.9153 33.7775 21.9667 39.0446 21.9667C44.3117 21.9667 47.8893 18.9153 47.8893 14.3382C47.8893 9.85638 44.3117 6.70954 39.0446 6.70954ZM39.0446 18.1524C36.7589 18.1524 35.2682 16.6267 35.2682 14.3382C35.2682 12.0496 36.7589 10.5239 39.0446 10.5239C41.2309 10.5239 42.821 12.0496 42.821 14.3382C42.821 16.6267 41.2309 18.1524 39.0446 18.1524ZM67.8645 6.99562H62.1005L56.1377 13.8614V6.99562H51.1688V21.6807H56.1377V14.8149L62.1005 21.6807H68.262L61.3054 14.0521L67.8645 6.99562ZM77.3055 10.5239C78.9949 10.5239 80.1874 11.4774 80.585 12.8124H85.5539C85.1564 9.18883 82.0756 6.70954 77.4048 6.70954C72.1377 6.70954 68.5601 9.85638 68.5601 14.3382C68.5601 18.9153 72.1377 21.9667 77.5042 21.9667C82.0756 21.9667 85.1564 19.4874 85.4545 15.9592H80.585C80.3849 16.6383 79.9528 17.2331 79.358 17.6481C78.7633 18.0632 78.0405 18.2744 77.3055 18.2478C75.1192 18.2478 73.6284 16.6267 73.6284 14.4335C73.6284 12.0496 75.1192 10.5239 77.3055 10.5239ZM86.8458 6.99562V10.9053H92.411V21.6807H97.38V10.9053H102.846V7.09097H86.9452L86.8458 6.99562ZM114.97 6.90026C112.983 6.90026 111.194 7.66312 110.002 9.09347V6.99562H105.331V26.0671H110.3V19.9642C111.492 21.1085 113.082 21.8714 114.97 21.8714C119.542 21.8714 122.623 18.7246 122.623 14.3382C122.623 9.95173 119.542 6.90026 114.97 6.90026ZM113.778 18.2478C111.592 18.2478 110.002 16.6267 110.002 14.4335C110.002 12.0496 111.592 10.5239 113.778 10.5239C116.064 10.5239 117.554 12.0496 117.554 14.3382C117.554 16.6267 116.064 18.1524 113.778 18.1524V18.2478ZM133.852 6.70954C128.585 6.70954 125.008 9.85638 125.008 14.3382C125.008 18.9153 128.585 21.9667 133.852 21.9667C139.12 21.9667 142.697 18.9153 142.697 14.3382C142.697 9.85638 139.12 6.70954 133.753 6.70954H133.852ZM133.852 18.1524C131.567 18.1524 130.076 16.6267 130.076 14.3382C130.076 12.0496 131.567 10.5239 133.852 10.5239C136.039 10.5239 137.629 12.0496 137.629 14.3382C137.629 16.6267 136.039 18.1524 133.852 18.1524ZM144.088 6.99562V10.9053H149.554V21.6807H154.523V10.9053H159.989V7.09097H144.088V6.99562Z" fill="white"/>
</g>
</g>
<defs>
<clipPath id="clip0_14235_23">
<rect width="160" height="26.7" fill="white"/>
</clipPath>
</defs>
</symbol>
<symbol id="row" viewBox="0 0 10 6">
<g clip-path="url(#clip0_14235_40)">
<mask id="mask0_14235_40" style="mask-type:luminance" maskUnits="userSpaceOnUse" x="0" y="0" width="10" height="6">
<path d="M9.04095 5.68823H0.645309V0.545375H9.04095V5.68823Z" fill="white"/>
</mask>
<g mask="url(#mask0_14235_40)">
<path d="M8.96394 1.02253C9.01173 1.0828 9.03558 1.1414 9.03558 1.19831C9.03558 1.25523 9.01173 1.31048 8.96394 1.36405L4.99674 5.60791C4.94555 5.66148 4.89436 5.68826 4.84317 5.68826C4.79199 5.68826 4.7425 5.66148 4.69472 5.60791L0.727526 1.36405C0.676337 1.31048 0.650742 1.25523 0.650742 1.19831C0.650742 1.1414 0.676337 1.0828 0.727526 1.02253L1.10633 0.635811C1.1541 0.575544 1.2053 0.54541 1.2599 0.54541C1.3145 0.54541 1.3691 0.575544 1.42371 0.635811L4.84317 4.27197L8.26264 0.635811C8.32065 0.575544 8.37611 0.54541 8.429 0.54541C8.4819 0.54541 8.53394 0.575544 8.58513 0.635811L8.96394 1.02253Z" fill="white"/>
</g>
</g>
<defs>
<clipPath id="clip0_14235_40">
<rect width="9.61" height="6" fill="white"/>
</clipPath>
</defs>
</symbol>
<symbol id="scale" viewBox="0 0 13 13">
<path d="M9.4834 5.92871C9.56803 6.01335 9.63363 6.11068 9.68018 6.2207C9.72673 6.33073 9.75 6.44922 9.75 6.57617C9.75 6.70312 9.72673 6.8195 9.68018 6.92529C9.63363 7.03109 9.56803 7.13053 9.4834 7.22363L5.59863 11.1084C5.514 11.193 5.41667 11.2586 5.30664 11.3052C5.19661 11.3517 5.07812 11.375 4.95117 11.375C4.82422 11.375 4.70785 11.3517 4.60205 11.3052C4.49626 11.2586 4.39681 11.193 4.30371 11.1084L0.266602 7.07129C0.173503 6.98665 0.105794 6.88932 0.0634766 6.7793C0.0211589 6.66927 0 6.55078 0 6.42383V2.53906C0 2.41211 0.0211589 2.29574 0.0634766 2.18994C0.105794 2.08415 0.173503 1.9847 0.266602 1.8916C0.351237 1.80697 0.448568 1.74137 0.558594 1.69482C0.66862 1.64827 0.787109 1.625 0.914062 1.625H4.79883C4.92578 1.625 5.04215 1.64616 5.14795 1.68848C5.25374 1.73079 5.35319 1.7985 5.44629 1.8916L9.4834 5.92871ZM4.95117 10.4609L8.83594 6.57617L4.79883 2.53906H0.914062V6.42383L4.95117 10.4609ZM3.38965 3.71973C3.47428 3.81283 3.53988 3.91227 3.58643 4.01807C3.63298 4.12386 3.65625 4.24023 3.65625 4.36719C3.65625 4.49414 3.63509 4.61051 3.59277 4.71631C3.55046 4.8221 3.48275 4.92155 3.38965 5.01465C3.29655 5.09928 3.1971 5.16488 3.09131 5.21143C2.98551 5.25798 2.86914 5.28125 2.74219 5.28125C2.61523 5.28125 2.49886 5.26009 2.39307 5.21777C2.28727 5.17546 2.18783 5.10775 2.09473 5.01465C2.01009 4.92155 1.9445 4.8221 1.89795 4.71631C1.8514 4.61051 1.82812 4.49414 1.82812 4.36719C1.82812 4.24023 1.84928 4.12386 1.8916 4.01807C1.93392 3.91227 2.00163 3.81283 2.09473 3.71973C2.18783 3.63509 2.28727 3.5695 2.39307 3.52295C2.49886 3.4764 2.61523 3.45312 2.74219 3.45312C2.86914 3.45312 2.98551 3.47428 3.09131 3.5166C3.1971 3.55892 3.29655 3.62663 3.38965 3.71973Z" fill="white"/>
</symbol>
<symbol id="set" viewBox="0 0 13 13">
<path d="M12.1581 5.70312C12.2987 5.79688 12.4042 5.91016 12.4745 6.04297C12.5448 6.17578 12.58 6.32812 12.58 6.5C12.58 6.66406 12.5448 6.81055 12.4745 6.93945C12.4042 7.06836 12.2987 7.17969 12.1581 7.27344L10.7518 8.23438L11.08 9.89844C11.1112 10.0625 11.1053 10.2148 11.0624 10.3555C11.0194 10.4961 10.9393 10.625 10.8221 10.7422C10.705 10.8594 10.576 10.9395 10.4354 10.9824C10.2948 11.0254 10.1425 11.0312 9.97839 11L8.31433 10.6719L7.37683 12.0781C7.27527 12.2188 7.15613 12.3242 7.01941 12.3945C6.88269 12.4648 6.72839 12.5 6.55652 12.5C6.39246 12.5 6.24597 12.4648 6.11707 12.3945C5.98816 12.3242 5.87683 12.2188 5.78308 12.0781L4.84558 10.6719L3.18152 11C3.01746 11.0312 2.86511 11.0254 2.72449 10.9824C2.58386 10.9395 2.45496 10.8594 2.33777 10.7422C2.22058 10.625 2.1405 10.4941 2.09753 10.3496C2.05457 10.2051 2.04871 10.0469 2.07996 9.875L2.40808 8.23438L1.00183 7.27344C0.861206 7.17969 0.755737 7.06836 0.685425 6.93945C0.615112 6.81055 0.579956 6.66406 0.579956 6.5C0.579956 6.32812 0.615112 6.17578 0.685425 6.04297C0.755737 5.91016 0.861206 5.79688 1.00183 5.70312L2.40808 4.74219L2.07996 3.07812C2.04871 2.91406 2.05457 2.76172 2.09753 2.62109C2.1405 2.48047 2.22058 2.35156 2.33777 2.23438C2.45496 2.11719 2.58386 2.03711 2.72449 1.99414C2.86511 1.95117 3.01746 1.94531 3.18152 1.97656L4.84558 2.30469L5.78308 0.898438C5.87683 0.765625 5.99011 0.666016 6.12292 0.599609C6.25574 0.533203 6.40808 0.5 6.57996 0.5C6.75183 0.5 6.90417 0.533203 7.03699 0.599609C7.1698 0.666016 7.28308 0.765625 7.37683 0.898438L8.31433 2.30469L9.97839 1.97656C10.1425 1.94531 10.2948 1.95117 10.4354 1.99414C10.576 2.03711 10.705 2.11719 10.8221 2.23438C10.9393 2.35156 11.0194 2.48047 11.0624 2.62109C11.1053 2.76172 11.1112 2.91406 11.08 3.07812L10.7518 4.74219L12.1581 5.70312ZM9.50964 7.71875L11.3143 6.47656L9.50964 5.25781L9.93152 3.125L7.79871 3.54688L6.57996 1.74219L5.36121 3.54688L3.22839 3.125L3.65027 5.25781L1.84558 6.47656L3.65027 7.69531L3.22839 9.85156L5.36121 9.42969L6.57996 11.2344L7.79871 9.42969L9.93152 9.85156L9.50964 7.71875ZM4.84558 4.78906C5.08777 4.54688 5.35339 4.36523 5.64246 4.24414C5.93152 4.12305 6.24402 4.0625 6.57996 4.0625C6.91589 4.0625 7.22644 4.12305 7.5116 4.24414C7.79675 4.36523 8.05652 4.54688 8.29089 4.78906C8.53308 5.02344 8.71472 5.2832 8.83582 5.56836C8.95691 5.85352 9.01746 6.16406 9.01746 6.5C9.01746 6.83594 8.95691 7.14844 8.83582 7.4375C8.71472 7.72656 8.53308 7.99219 8.29089 8.23438C8.05652 8.46875 7.79675 8.64453 7.5116 8.76172C7.22644 8.87891 6.91589 8.9375 6.57996 8.9375C6.24402 8.9375 5.93152 8.87891 5.64246 8.76172C5.35339 8.64453 5.08777 8.46875 4.84558 8.23438C4.61121 7.99219 4.43542 7.72656 4.31824 7.4375C4.20105 7.14844 4.14246 6.83594 4.14246 6.5C4.14246 6.16406 4.20105 5.85352 4.31824 5.56836C4.43542 5.2832 4.61121 5.02344 4.84558 4.78906ZM5.64246 7.4375C5.77527 7.5625 5.9198 7.65625 6.07605 7.71875C6.2323 7.78125 6.40027 7.8125 6.57996 7.8125C6.75964 7.8125 6.92566 7.78125 7.078 7.71875C7.23035 7.65625 7.36902 7.5625 7.49402 7.4375C7.62683 7.30469 7.72644 7.16016 7.79285 7.00391C7.85925 6.84766 7.89246 6.67969 7.89246 6.5C7.89246 6.32031 7.85925 6.1543 7.79285 6.00195C7.72644 5.84961 7.62683 5.71094 7.49402 5.58594C7.36902 5.45312 7.23035 5.35352 7.078 5.28711C6.92566 5.2207 6.75964 5.1875 6.57996 5.1875C6.40027 5.1875 6.2323 5.2207 6.07605 5.28711C5.9198 5.35352 5.77527 5.45312 5.64246 5.58594C5.51746 5.71094 5.42371 5.84961 5.36121 6.00195C5.29871 6.1543 5.26746 6.32031 5.26746 6.5C5.26746 6.67969 5.29871 6.84766 5.36121 7.00391C5.42371 7.16016 5.51746 7.30469 5.64246 7.4375Z" fill="white"/>
</symbol>
<symbol id="location" viewBox="0 0 10 13">
<g clip-path="url(#clip0_1_28)">
<path d="M4.07129 12.2656C4.11816 12.3438 4.18066 12.4023 4.25879 12.4414C4.33691 12.4805 4.43066 12.5 4.54004 12.5C4.63379 12.5 4.71973 12.4805 4.79785 12.4414C4.87598 12.4023 4.94629 12.3438 5.00879 12.2656L6.5791 10.0156C6.96191 9.45312 7.28223 8.98438 7.54004 8.60938C7.79785 8.23438 7.99316 7.94531 8.12598 7.74219C8.29785 7.46094 8.44434 7.20312 8.56543 6.96875C8.68652 6.73438 8.78223 6.52344 8.85254 6.33594C8.90723 6.14844 8.95215 5.94336 8.9873 5.7207C9.02246 5.49805 9.04004 5.25781 9.04004 5C9.04004 4.60156 8.98926 4.21484 8.8877 3.83984C8.78613 3.46484 8.63379 3.10156 8.43066 2.75C8.21973 2.41406 7.97949 2.10938 7.70996 1.83594C7.44043 1.5625 7.13379 1.32031 6.79004 1.10938C6.43848 0.914062 6.0752 0.763672 5.7002 0.658203C5.3252 0.552734 4.93848 0.5 4.54004 0.5C4.13379 0.5 3.74316 0.550781 3.36816 0.652344C2.99316 0.753906 2.63379 0.90625 2.29004 1.10938C1.93848 1.32031 1.62793 1.56055 1.3584 1.83008C1.08887 2.09961 0.852539 2.40625 0.649414 2.75C0.438477 3.10156 0.28418 3.46484 0.186523 3.83984C0.0888672 4.21484 0.0400391 4.60156 0.0400391 5C0.0400391 5.25781 0.0537109 5.49805 0.0810547 5.7207C0.108398 5.94336 0.157227 6.14844 0.227539 6.33594C0.290039 6.52344 0.379883 6.73438 0.49707 6.96875C0.614258 7.20312 0.766602 7.46094 0.954102 7.74219C1.07129 7.9375 1.25879 8.22461 1.5166 8.60352C1.77441 8.98242 2.10254 9.45312 2.50098 10.0156C2.82129 10.4688 3.11035 10.8828 3.36816 11.2578C3.62598 11.6328 3.86035 11.9688 4.07129 12.2656ZM4.54004 6.875C4.28223 6.875 4.04199 6.83203 3.81934 6.74609C3.59668 6.66016 3.3916 6.52344 3.2041 6.33594C3.0166 6.14844 2.87988 5.94336 2.79395 5.7207C2.70801 5.49805 2.66504 5.25781 2.66504 5C2.66504 4.74219 2.70801 4.50586 2.79395 4.29102C2.87988 4.07617 3.0166 3.875 3.2041 3.6875C3.3916 3.5 3.59668 3.35938 3.81934 3.26562C4.04199 3.17188 4.28223 3.125 4.54004 3.125C4.79785 3.125 5.03418 3.17188 5.24902 3.26562C5.46387 3.35938 5.66504 3.5 5.85254 3.6875C6.04004 3.875 6.18066 4.07617 6.27441 4.29102C6.36816 4.50586 6.41504 4.74219 6.41504 5C6.41504 5.25781 6.36816 5.49805 6.27441 5.7207C6.18066 5.94336 6.04004 6.14844 5.85254 6.33594C5.66504 6.52344 5.46387 6.66016 5.24902 6.74609C5.03418 6.83203 4.79785 6.875 4.54004 6.875Z" fill="white"/>
</g>
<defs>
<clipPath id="clip0_1_28">
<rect width="9" height="12" fill="white" transform="matrix(1 0 0 -1 0.0400391 12.5)"/>
</clipPath>
</defs>
</symbol>
<symbol id="locat" viewBox="0 0 24 24">
<g id="SVGRepo_bgCarrier" stroke-width="0"/>
<g id="SVGRepo_tracerCarrier" stroke-linecap="round" stroke-linejoin="round"/>
<g id="SVGRepo_iconCarrier"> <style type="text/css"> .st0{fill:none;} </style> <path d="M12,2C8.7,2,6,4.7,6,8c0,5.2,6,11.1,6,11.1s6-6,6-11.1C18,4.7,15.3,2,12,2z M12,5.9c1.1,0,2.1,1,2.1,2.1 c0,1.2-0.9,2.1-2.1,2.1S9.9,9.1,9.9,8C9.9,6.8,10.9,5.9,12,5.9z M6.8,15.1c-1.3,0.3-2.3,0.6-3.2,1c-0.4,0.2-0.8,0.5-1.1,0.8 S2,17.8,2,18.3c0,0.8,0.5,1.4,1.1,1.8s1.3,0.7,2.2,1C7.1,21.7,9.4,22,12,22s4.9-0.3,6.7-0.8c0.9-0.3,1.6-0.6,2.2-1s1.1-1,1.1-1.8 c0-1-0.8-1.7-1.6-2.2c-0.8-0.5-1.9-0.8-3.2-1l-0.3,2c1.1,0.2,2,0.5,2.6,0.8c0.4,0.2,0.5,0.4,0.6,0.4c0,0-0.1,0.1-0.2,0.2 c-0.3,0.2-0.9,0.5-1.6,0.7C16.6,19.7,14.4,20,12,20s-4.6-0.3-6.1-0.8c-0.7-0.2-1.3-0.5-1.6-0.7c-0.1-0.1-0.2-0.2-0.2-0.2 c0.1-0.1,0.2-0.2,0.5-0.4c0.6-0.3,1.5-0.6,2.7-0.8L6.8,15.1z"/> <rect class="st0" width="24" height="24"/> </g>
</symbol>
<symbol id="menu" viewBox="0 0 13 12">
<g clip-path="url(#clip0_1_47)">
<path d="M4.48035 0.694946C4.48035 0.630493 4.46423 0.562459 4.43201 0.490845C4.39978 0.41923 4.36218 0.354777 4.31921 0.297485C4.26192 0.254517 4.19926 0.216919 4.13123 0.184692C4.06319 0.152466 3.99337 0.136353 3.92175 0.136353H1.54773C1.46895 0.136353 1.39555 0.152466 1.32751 0.184692C1.25948 0.216919 1.2004 0.254517 1.15027 0.297485C1.09298 0.354777 1.0518 0.41923 1.02673 0.490845C1.00167 0.562459 0.989136 0.630493 0.989136 0.694946V2.57483C0.989136 2.65361 1.00167 2.72701 1.02673 2.79504C1.0518 2.86308 1.09298 2.92216 1.15027 2.97229C1.2004 3.02958 1.25948 3.07076 1.32751 3.09583C1.39555 3.12089 1.46895 3.13342 1.54773 3.13342H3.92175C3.99337 3.13342 4.06319 3.12089 4.13123 3.09583C4.19926 3.07076 4.26192 3.02958 4.31921 2.97229C4.36218 2.92216 4.39978 2.86308 4.43201 2.79504C4.46423 2.72701 4.48035 2.65361 4.48035 2.57483V0.694946ZM8.745 6.32385C8.745 6.40263 8.72888 6.47782 8.69666 6.54944C8.66443 6.62105 8.62683 6.67834 8.58386 6.72131C8.52657 6.77861 8.46391 6.81978 8.39587 6.84485C8.32784 6.86991 8.25802 6.88245 8.1864 6.88245H5.79089C5.71212 6.88245 5.63871 6.86991 5.57068 6.84485C5.50264 6.81978 5.44356 6.77861 5.39343 6.72131C5.33614 6.67834 5.29496 6.62105 5.2699 6.54944C5.24483 6.47782 5.2323 6.40263 5.2323 6.32385V4.44397C5.2323 4.37952 5.24483 4.31327 5.2699 4.24524C5.29496 4.17721 5.33614 4.11096 5.39343 4.04651C5.44356 4.00354 5.50264 3.96594 5.57068 3.93372C5.63871 3.90149 5.71212 3.88538 5.79089 3.88538H8.1864C8.25802 3.88538 8.32784 3.90149 8.39587 3.93372C8.46391 3.96594 8.52657 4.00354 8.58386 4.04651C8.62683 4.11096 8.66443 4.17721 8.69666 4.24524C8.72888 4.31327 8.745 4.37952 8.745 4.44397V6.32385ZM9.49695 0.694946C9.49695 0.630493 9.50948 0.562459 9.53455 0.490845C9.55961 0.41923 9.60079 0.354777 9.65808 0.297485C9.70821 0.254517 9.76729 0.216919 9.83533 0.184692C9.90336 0.152466 9.97677 0.136353 10.0555 0.136353H12.4296C12.5012 0.136353 12.571 0.152466 12.639 0.184692C12.7071 0.216919 12.7697 0.254517 12.827 0.297485C12.87 0.354777 12.9076 0.41923 12.9398 0.490845C12.972 0.562459 12.9882 0.630493 12.9882 0.694946V2.57483C12.9882 2.65361 12.972 2.72701 12.9398 2.79504C12.9076 2.86308 12.87 2.92216 12.827 2.97229C12.7697 3.02958 12.7071 3.07076 12.639 3.09583C12.571 3.12089 12.5012 3.13342 12.4296 3.13342H10.0555C9.97677 3.13342 9.90336 3.12089 9.83533 3.09583C9.76729 3.07076 9.70821 3.02958 9.65808 2.97229C9.60079 2.92216 9.55961 2.86308 9.53455 2.79504C9.50948 2.72701 9.49695 2.65361 9.49695 2.57483V0.694946ZM8.745 2.57483C8.745 2.65361 8.72888 2.72701 8.69666 2.79504C8.66443 2.86308 8.62683 2.92216 8.58386 2.97229C8.52657 3.02958 8.46391 3.07076 8.39587 3.09583C8.32784 3.12089 8.25802 3.13342 8.1864 3.13342H5.79089C5.71212 3.13342 5.63871 3.12089 5.57068 3.09583C5.50264 3.07076 5.44356 3.02958 5.39343 2.97229C5.33614 2.92216 5.29496 2.86308 5.2699 2.79504C5.24483 2.72701 5.2323 2.65361 5.2323 2.57483V0.694946C5.2323 0.630493 5.24483 0.562459 5.2699 0.490845C5.29496 0.41923 5.33614 0.354777 5.39343 0.297485C5.44356 0.254517 5.50264 0.216919 5.57068 0.184692C5.63871 0.152466 5.71212 0.136353 5.79089 0.136353H8.1864C8.25802 0.136353 8.32784 0.152466 8.39587 0.184692C8.46391 0.216919 8.52657 0.254517 8.58386 0.297485C8.62683 0.354777 8.66443 0.41923 8.69666 0.490845C8.72888 0.562459 8.745 0.630493 8.745 0.694946V2.57483ZM3.92175 3.88538C3.99337 3.88538 4.06319 3.90149 4.13123 3.93372C4.19926 3.96594 4.26192 4.00354 4.31921 4.04651C4.36218 4.11096 4.39978 4.17721 4.43201 4.24524C4.46423 4.31327 4.48035 4.37952 4.48035 4.44397V6.32385C4.48035 6.40263 4.46423 6.47782 4.43201 6.54944C4.39978 6.62105 4.36218 6.67834 4.31921 6.72131C4.26192 6.77861 4.19926 6.81978 4.13123 6.84485C4.06319 6.86991 3.99337 6.88245 3.92175 6.88245H1.54773C1.46895 6.88245 1.39555 6.86991 1.32751 6.84485C1.25948 6.81978 1.2004 6.77861 1.15027 6.72131C1.09298 6.67834 1.0518 6.62105 1.02673 6.54944C1.00167 6.47782 0.989136 6.40263 0.989136 6.32385V4.44397C0.989136 4.37952 1.00167 4.31327 1.02673 4.24524C1.0518 4.17721 1.09298 4.11096 1.15027 4.04651C1.2004 4.00354 1.25948 3.96594 1.32751 3.93372C1.39555 3.90149 1.46895 3.88538 1.54773 3.88538H3.92175ZM0.989136 8.20374C0.989136 8.13212 1.00167 8.0623 1.02673 7.99426C1.0518 7.92623 1.09298 7.85999 1.15027 7.79553C1.2004 7.75256 1.25948 7.71497 1.32751 7.68274C1.39555 7.65051 1.46895 7.6344 1.54773 7.6344H3.92175C3.99337 7.6344 4.06319 7.65051 4.13123 7.68274C4.19926 7.71497 4.26192 7.75256 4.31921 7.79553C4.36218 7.85999 4.39978 7.92623 4.43201 7.99426C4.46423 8.0623 4.48035 8.13212 4.48035 8.20374V10.0729C4.48035 10.1588 4.46423 10.2358 4.43201 10.3038C4.39978 10.3719 4.36218 10.4274 4.31921 10.4703C4.26192 10.5276 4.19926 10.5688 4.13123 10.5939C4.06319 10.6189 3.99337 10.6315 3.92175 10.6315H1.54773C1.46895 10.6315 1.39555 10.6189 1.32751 10.5939C1.25948 10.5688 1.2004 10.5276 1.15027 10.4703C1.09298 10.4274 1.0518 10.3719 1.02673 10.3038C1.00167 10.2358 0.989136 10.1588 0.989136 10.0729V8.20374ZM10.0555 6.88245C9.97677 6.88245 9.90336 6.86991 9.83533 6.84485C9.76729 6.81978 9.70821 6.77861 9.65808 6.72131C9.60079 6.67834 9.55961 6.62105 9.53455 6.54944C9.50948 6.47782 9.49695 6.40263 9.49695 6.32385V4.44397C9.49695 4.37952 9.50948 4.31327 9.53455 4.24524C9.55961 4.17721 9.60079 4.11096 9.65808 4.04651C9.70821 4.00354 9.76729 3.96594 9.83533 3.93372C9.90336 3.90149 9.97677 3.88538 10.0555 3.88538H12.4296C12.5012 3.88538 12.571 3.90149 12.639 3.93372C12.7071 3.96594 12.7697 4.00354 12.827 4.04651C12.87 4.11096 12.9076 4.17721 12.9398 4.24524C12.972 4.31327 12.9882 4.37952 12.9882 4.44397V6.32385C12.9882 6.40263 12.972 6.47782 12.9398 6.54944C12.9076 6.62105 12.87 6.67834 12.827 6.72131C12.7697 6.77861 12.7071 6.81978 12.639 6.84485C12.571 6.86991 12.5012 6.88245 12.4296 6.88245H10.0555ZM10.0555 10.6315C9.97677 10.6315 9.90336 10.6189 9.83533 10.5939C9.76729 10.5688 9.70821 10.5276 9.65808 10.4703C9.60079 10.4274 9.55961 10.3719 9.53455 10.3038C9.50948 10.2358 9.49695 10.1588 9.49695 10.0729V8.20374C9.49695 8.13212 9.50948 8.0623 9.53455 7.99426C9.55961 7.92623 9.60079 7.85999 9.65808 7.79553C9.70821 7.75256 9.76729 7.71497 9.83533 7.68274C9.90336 7.65051 9.97677 7.6344 10.0555 7.6344H12.4296C12.5012 7.6344 12.571 7.65051 12.639 7.68274C12.7071 7.71497 12.7697 7.75256 12.827 7.79553C12.87 7.85999 12.9076 7.92623 12.9398 7.99426C12.972 8.0623 12.9882 8.13212 12.9882 8.20374V10.0729C12.9882 10.1588 12.972 10.2358 12.9398 10.3038C12.9076 10.3719 12.87 10.4274 12.827 10.4703C12.7697 10.5276 12.7071 10.5688 12.639 10.5939C12.571 10.6189 12.5012 10.6315 12.4296 10.6315H10.0555ZM5.2323 8.20374C5.2323 8.13212 5.24483 8.0623 5.2699 7.99426C5.29496 7.92623 5.33614 7.85999 5.39343 7.79553C5.44356 7.75256 5.50264 7.71497 5.57068 7.68274C5.63871 7.65051 5.71212 7.6344 5.79089 7.6344H8.1864C8.25802 7.6344 8.32784 7.65051 8.39587 7.68274C8.46391 7.71497 8.52657 7.75256 8.58386 7.79553C8.62683 7.85999 8.66443 7.92623 8.69666 7.99426C8.72888 8.0623 8.745 8.13212 8.745 8.20374V10.0729C8.745 10.1588 8.72888 10.2358 8.69666 10.3038C8.66443 10.3719 8.62683 10.4274 8.58386 10.4703C8.52657 10.5276 8.46391 10.5688 8.39587 10.5939C8.32784 10.6189 8.25802 10.6315 8.1864 10.6315H5.79089C5.71212 10.6315 5.63871 10.6189 5.57068 10.5939C5.50264 10.5688 5.44356 10.5276 5.39343 10.4703C5.33614 10.4274 5.29496 10.3719 5.2699 10.3038C5.24483 10.2358 5.2323 10.1588 5.2323 10.0729V8.20374Z" fill="white"/>
</g>
<defs>
<clipPath id="clip0_1_47">
<rect width="12" height="11" fill="white" transform="matrix(1 0 0 -1 0.988647 11.1364)"/>
</clipPath>
</defs>
</symbol>
<symbol id="serchicn" viewBox="0 0 14 14">
<g clip-path="url(#clip0_1_54)">
<path d="M13.1544 12.5319C13.2306 12.5996 13.2687 12.6694 13.2687 12.7413C13.2687 12.8133 13.2306 12.8873 13.1544 12.9635L12.5958 13.5221C12.5197 13.5983 12.4456 13.6364 12.3737 13.6364C12.3017 13.6364 12.2319 13.5983 12.1642 13.5221L9.09192 10.4498C9.05806 10.416 9.03267 10.3821 9.01575 10.3483C8.99882 10.3144 8.99036 10.2806 8.99036 10.2467C8.99036 10.179 8.95862 10.1303 8.89514 10.1007C8.83167 10.0711 8.77454 10.0774 8.72375 10.1198C8.25826 10.4752 7.76103 10.7418 7.23206 10.9196C6.70308 11.0973 6.14237 11.1862 5.54993 11.1862C4.82206 11.1862 4.14709 11.0571 3.52502 10.799C2.90295 10.5408 2.33378 10.1536 1.8175 9.63733C1.30123 9.12105 0.914022 8.554 0.655884 7.93616C0.397746 7.31832 0.268677 6.64547 0.268677 5.9176C0.268677 5.18974 0.397746 4.51477 0.655884 3.8927C0.914022 3.27063 1.30123 2.70146 1.8175 2.18518C2.33378 1.6689 2.90295 1.2817 3.52502 1.02356C4.14709 0.765422 4.82206 0.636353 5.54993 0.636353C6.27779 0.636353 6.95064 0.765422 7.56848 1.02356C8.18632 1.2817 8.75338 1.6689 9.26965 2.18518C9.78593 2.70146 10.1731 3.27063 10.4313 3.8927C10.6894 4.51477 10.8185 5.18974 10.8185 5.9176C10.8185 6.51005 10.7296 7.07076 10.5519 7.59973C10.3741 8.1287 10.1075 8.62594 9.75208 9.09143C9.70976 9.14221 9.70341 9.19934 9.73303 9.26282C9.76265 9.32629 9.81132 9.35803 9.87903 9.35803C9.87903 9.35803 9.88114 9.35803 9.88538 9.35803C9.88961 9.35803 9.89172 9.35803 9.89172 9.35803C9.9679 9.35803 10.0335 9.38977 10.0885 9.45325C10.1435 9.51672 10.1964 9.57385 10.2472 9.62463L13.1544 12.5319ZM2.68079 8.77405C3.07857 9.17183 3.51656 9.47017 3.99475 9.66907C4.47294 9.86796 4.99133 9.96741 5.54993 9.96741C6.10852 9.96741 6.6248 9.86796 7.09875 9.66907C7.57271 9.47017 8.00859 9.17183 8.40637 8.77405C8.80416 8.37626 9.1025 7.94039 9.30139 7.46643C9.50029 6.99247 9.59973 6.4762 9.59973 5.9176C9.59973 5.35901 9.50029 4.84062 9.30139 4.36243C9.1025 3.88424 8.80416 3.44625 8.40637 3.04846C8.00859 2.65068 7.57271 2.35234 7.09875 2.15344C6.6248 1.95455 6.10852 1.8551 5.54993 1.8551C4.99133 1.8551 4.47294 1.95455 3.99475 2.15344C3.51656 2.35234 3.07857 2.65068 2.68079 3.04846C2.283 3.44625 1.98466 3.88424 1.78577 4.36243C1.58687 4.84062 1.48743 5.35901 1.48743 5.9176C1.48743 6.4762 1.58687 6.99247 1.78577 7.46643C1.98466 7.94039 2.283 8.37626 2.68079 8.77405Z" fill="white"/>
</g>
<defs>
<clipPath id="clip0_1_54">
<rect width="13" height="13" fill="white" transform="matrix(1 0 0 -1 0.268677 13.6364)"/>
</clipPath>
</defs>
</symbol>
<symbol id="microphone" viewBox="0 0 31 31">
<path d="M24.6271 16.9327C24.6271 16.3959 24.1921 15.9607 23.6555 15.9607C23.1189 15.9607 22.6838 16.3959 22.6838 16.9327C22.6838 20.8242 19.5188 23.9902 15.6286 23.9902C11.7384 23.9902 8.57342 20.8242 8.57342 16.9327C8.57342 16.3959 8.13838 15.9607 7.60178 15.9607C7.06517 15.9607 6.63013 16.3959 6.63013 16.9327C6.63013 21.5677 10.1506 25.3945 14.657 25.8809V28.6325H12.2643C11.7277 28.6325 11.2926 29.0677 11.2926 29.6045C11.2926 30.1413 11.7277 30.5765 12.2643 30.5765H18.9931C19.5297 30.5765 19.9648 30.1413 19.9648 29.6045C19.9648 29.0677 19.5297 28.6325 18.9931 28.6325H16.6004V25.8809C21.1066 25.3945 24.6271 21.5677 24.6271 16.9327Z" fill="white"/>
<path d="M15.6288 22.8619C18.6614 22.8619 21.1285 20.394 21.1285 17.3604V6.1879C21.1285 3.15431 18.6614 0.686401 15.6288 0.686401C12.5962 0.686401 10.1292 3.15431 10.1292 6.1879V17.3604C10.1292 20.394 12.5962 22.8619 15.6288 22.8619ZM12.0724 6.1879C12.0724 4.2262 13.6678 2.63035 15.6288 2.63035C17.5899 2.63035 19.1852 4.2262 19.1852 6.1879V17.3604C19.1852 19.3221 17.5899 20.918 15.6288 20.918C13.6678 20.918 12.0724 19.3221 12.0724 17.3604V6.1879Z" fill="white"/>
</symbol>
<symbol id="Comparison" viewBox="0 0 22 18">
<path d="M8.65046 2.38137C8.66178 2.60341 8.70702 2.81713 8.78619 3.02251C8.86538 3.2279 8.97283 3.41941 9.10857 3.59704C9.25557 3.78578 9.42245 3.94398 9.60913 4.07164C9.7957 4.19932 10.0022 4.29646 10.2284 4.36307V15.7204H3.81495C3.75839 15.7204 3.70467 15.7287 3.65376 15.7454C3.60287 15.762 3.56045 15.7926 3.52652 15.8369C3.48127 15.8703 3.45016 15.9147 3.4332 15.9702C3.41623 16.0257 3.40775 16.0757 3.40775 16.1201V16.653C3.40775 16.7085 3.41623 16.7612 3.4332 16.8112C3.45016 16.8611 3.48127 16.9083 3.52652 16.9527C3.56045 16.986 3.60287 17.011 3.65376 17.0277C3.70467 17.0443 3.75839 17.0527 3.81495 17.0527H17.9482C18.0048 17.0527 18.0585 17.0443 18.1094 17.0277C18.1603 17.011 18.2083 16.986 18.2536 16.9527C18.2876 16.9083 18.313 16.8611 18.33 16.8112C18.3469 16.7612 18.3554 16.7085 18.3554 16.653V16.1201C18.3554 16.0757 18.3469 16.0257 18.33 15.9702C18.313 15.9147 18.2876 15.8703 18.2536 15.8369C18.2083 15.7926 18.1603 15.762 18.1094 15.7454C18.0585 15.7287 18.0048 15.7204 17.9482 15.7204H11.5517V4.36307C11.6536 4.32977 11.7497 4.29091 11.8402 4.2465C11.9307 4.2021 12.0212 4.14659 12.1116 4.07997C12.2135 4.01336 12.3096 3.9412 12.4001 3.86349C12.4906 3.78578 12.5697 3.69696 12.6376 3.59704C12.7168 3.50823 12.7847 3.41108 12.8413 3.30561C12.8978 3.20014 12.9431 3.08635 12.977 2.96423C13.0222 2.87541 13.0561 2.78104 13.0788 2.68113C13.1014 2.58121 13.1127 2.48129 13.1127 2.38137H17.9482C18.0048 2.38137 18.0585 2.37305 18.1094 2.3564C18.1603 2.33974 18.2083 2.30921 18.2536 2.2648C18.2876 2.2315 18.313 2.18709 18.33 2.13158C18.3469 2.07607 18.3554 2.02611 18.3554 1.9817V1.44881C18.3554 1.3933 18.3469 1.34056 18.33 1.29061C18.313 1.24064 18.2876 1.19346 18.2536 1.14905C18.2083 1.11575 18.1603 1.09077 18.1094 1.07411C18.0585 1.05746 18.0048 1.04913 17.9482 1.04913H12.7734C12.6829 0.915913 12.5867 0.793788 12.4849 0.682775C12.3832 0.571753 12.27 0.471834 12.1456 0.383018C11.9646 0.260896 11.7667 0.166529 11.5517 0.099917C11.3369 0.0333057 11.1163 0 10.8901 0C10.6525 0 10.4292 0.0333057 10.2199 0.099917C10.0107 0.166529 9.81549 0.260896 9.63451 0.383018H9.61752C9.5045 0.471834 9.39697 0.571753 9.29524 0.682775C9.19341 0.793788 9.09727 0.915913 9.00676 1.04913H3.81495C3.75839 1.04913 3.70467 1.05746 3.65376 1.07411C3.60287 1.09077 3.56045 1.11575 3.52652 1.14905C3.48127 1.19346 3.45016 1.24064 3.4332 1.29061C3.41623 1.34056 3.40775 1.3933 3.40775 1.44881V1.9817C3.40775 2.02611 3.41623 2.07607 3.4332 2.13158C3.45016 2.18709 3.48127 2.2315 3.52652 2.2648C3.56045 2.30921 3.60287 2.33974 3.65376 2.3564C3.70467 2.37305 3.75839 2.38137 3.81495 2.38137H8.65046ZM11.5009 1.61534C11.6027 1.70415 11.6762 1.79852 11.7214 1.89844C11.7667 1.99836 11.7893 2.10938 11.7893 2.2315C11.7893 2.35362 11.7667 2.47018 11.7214 2.58121C11.6762 2.69223 11.6027 2.7977 11.5009 2.89762C11.4217 2.97533 11.3312 3.03639 11.2294 3.0808C11.1276 3.1252 11.0145 3.14741 10.8901 3.14741C10.7656 3.14741 10.6497 3.1252 10.5422 3.0808C10.4348 3.03639 10.3301 2.97533 10.2284 2.89762C10.1492 2.7977 10.087 2.69223 10.0417 2.58121C9.99647 2.47018 9.97388 2.35362 9.97388 2.2315C9.97388 2.10938 9.99647 1.99836 10.0417 1.89844C10.087 1.79852 10.1492 1.70415 10.2284 1.61534C10.3301 1.51542 10.4348 1.44326 10.5422 1.39885C10.6497 1.35444 10.7656 1.33223 10.8901 1.33223C11.0032 1.33223 11.1106 1.35444 11.2124 1.39885C11.3143 1.44326 11.4104 1.51542 11.5009 1.61534ZM21.2737 9.20913L17.7107 3.44716C17.6541 3.34725 17.5806 3.2723 17.4901 3.22235C17.3996 3.17239 17.2922 3.14741 17.1677 3.14741C17.0433 3.14741 16.9359 3.17239 16.8454 3.22235C16.7549 3.2723 16.6814 3.34725 16.6248 3.44716L13.0618 9.20913C12.9714 9.32007 12.9091 9.43943 12.8751 9.56714C12.8413 9.69484 12.83 9.81971 12.8413 9.94182C12.8865 10.4969 13.025 11.0076 13.257 11.4739C13.4888 11.9402 13.814 12.3676 14.2325 12.7562C14.6397 13.1448 15.0893 13.4333 15.5814 13.6222C16.0734 13.8109 16.6022 13.9052 17.1677 13.9052C17.7333 13.9052 18.2621 13.8109 18.7542 13.6222C19.2461 13.4333 19.7014 13.1448 20.12 12.7562C20.5272 12.3676 20.8467 11.9402 21.0786 11.4739C21.3105 11.0076 21.4491 10.4969 21.4942 9.94182C21.5055 9.81971 21.4942 9.69484 21.4604 9.56714C21.4264 9.43943 21.3642 9.32007 21.2737 9.20913ZM19.8994 10.7578C19.7976 11.0132 19.6619 11.2435 19.4922 11.4489C19.3225 11.6543 19.1189 11.8458 18.8814 12.0235C18.6326 12.2122 18.3667 12.351 18.0839 12.4398C17.8012 12.5286 17.4958 12.5729 17.1677 12.5729C16.8511 12.5729 16.5457 12.5286 16.2516 12.4398C15.9575 12.351 15.6803 12.2122 15.4202 12.0235C15.1827 11.8458 14.979 11.6543 14.8093 11.4489C14.6397 11.2435 14.5039 11.0132 14.4022 10.7578H19.8994ZM19.8994 9.44218H14.4701L17.1677 5.0625L19.8994 9.44218ZM7.54763 12.7562C7.96613 12.3676 8.29134 11.9402 8.52321 11.4739C8.75509 11.0076 8.89365 10.4969 8.9389 9.94182C8.95021 9.81971 8.93607 9.69484 8.89648 9.56714C8.85689 9.43943 8.7975 9.32007 8.71833 9.20913L5.15532 3.44716C5.09876 3.34725 5.02241 3.2723 4.92627 3.22235C4.83012 3.17239 4.72549 3.14741 4.61239 3.14741C4.48796 3.14741 4.37768 3.17239 4.28153 3.22235C4.18539 3.2723 4.10904 3.34725 4.05249 3.44716L0.489473 9.20913C0.410297 9.32007 0.350913 9.43943 0.311324 9.56714C0.271735 9.69484 0.257596 9.81971 0.268907 9.94182C0.314151 10.4969 0.452708 11.0076 0.684592 11.4739C0.916466 11.9402 1.24167 12.3676 1.66018 12.7562C2.07869 13.1448 2.53397 13.4333 3.026 13.6222C3.51804 13.8109 4.04683 13.9052 4.61239 13.9052C5.16663 13.9052 5.68977 13.8109 6.1818 13.6222C6.67384 13.4333 7.12912 13.1448 7.54763 12.7562ZM7.34402 10.7578C7.23092 11.0132 7.08952 11.2435 6.91986 11.4489C6.75019 11.6543 6.55225 11.8458 6.32603 12.0235H6.30906C6.06022 12.2122 5.7944 12.351 5.51163 12.4398C5.22885 12.5286 4.9291 12.5729 4.61239 12.5729C4.28436 12.5729 3.97614 12.5286 3.6877 12.4398C3.39927 12.351 3.12497 12.2122 2.86482 12.0235C2.62728 11.8458 2.42368 11.6543 2.25402 11.4489C2.08434 11.2435 1.94296 11.0132 1.82984 10.7578H7.34402ZM7.32706 9.44218H1.91467L4.61239 5.0625L7.32706 9.44218Z" fill="white"/>
</symbol>
<symbol id="heart" viewBox="0 0 22 19">
<g clip-path="url(#clip0_1_65)">
<path d="M18.1344 2.02502C18.5914 2.42346 18.9693 2.86292 19.2682 3.34338C19.567 3.82385 19.7926 4.33948 19.9449 4.89026C20.0973 5.42932 20.1764 5.96252 20.1822 6.48987C20.1881 7.01721 20.1207 7.53284 19.9801 8.03674C19.8512 8.54065 19.6666 9.0094 19.4264 9.44299C19.1861 9.87659 18.8961 10.275 18.5563 10.6383L11.9645 17.5289C11.7652 17.7399 11.5484 17.8981 11.3141 18.0035C11.0797 18.109 10.8219 18.1617 10.5406 18.1617C10.2594 18.1617 10.0016 18.109 9.7672 18.0035C9.53282 17.8981 9.31602 17.7399 9.11681 17.5289L2.52501 10.6383C2.18517 10.275 1.89513 9.87659 1.65489 9.44299C1.41466 9.0094 1.23009 8.54065 1.10118 8.03674C0.960557 7.52112 0.893174 6.9967 0.899033 6.4635C0.904893 5.9303 0.983994 5.39417 1.13634 4.8551C1.28868 4.31604 1.51427 3.8092 1.8131 3.33459C2.11192 2.85999 2.48985 2.42346 2.94688 2.02502C3.48595 1.55627 4.07188 1.22229 4.7047 1.02307C5.33751 0.823853 6.0172 0.759399 6.74376 0.829712C7.48204 0.876587 8.16759 1.04944 8.8004 1.34827C9.43321 1.64709 10.0133 2.06604 10.5406 2.6051C11.068 2.06604 11.6451 1.64709 12.2721 1.34827C12.899 1.04944 13.5758 0.876587 14.3024 0.829712C15.0406 0.759399 15.7291 0.823853 16.3678 1.02307C17.0065 1.22229 17.5953 1.55627 18.1344 2.02502ZM17.2731 9.31995C17.6363 8.93323 17.9088 8.50256 18.0904 8.02795C18.2721 7.55334 18.3629 7.04065 18.3629 6.48987C18.3629 5.91565 18.2516 5.37659 18.0289 4.87268C17.8063 4.36877 17.4664 3.90002 17.0094 3.46643C16.6344 3.15002 16.2272 2.92444 15.7877 2.78967C15.3483 2.65491 14.8766 2.6051 14.3727 2.64026C13.8922 2.67542 13.441 2.79846 13.0192 3.0094C12.5973 3.22034 12.2106 3.51331 11.859 3.88831L10.5406 5.24182L9.22227 3.88831C8.87071 3.51331 8.48106 3.22034 8.05333 3.0094C7.6256 2.79846 7.15978 2.67542 6.65587 2.64026C6.1754 2.6051 5.71837 2.65491 5.28478 2.78967C4.85118 2.92444 4.44688 3.15002 4.07188 3.46643C3.61485 3.90002 3.27501 4.36877 3.05235 4.87268C2.8297 5.37659 2.71837 5.91565 2.71837 6.48987C2.71837 7.04065 2.80919 7.55334 2.99083 8.02795C3.17247 8.50256 3.44493 8.93323 3.80821 9.31995L10.4352 16.2106C10.4703 16.2692 10.5055 16.2985 10.5406 16.2985C10.5758 16.2985 10.6109 16.2692 10.6461 16.2106L17.2731 9.31995Z" fill="white"/>
</g>
<defs>
<clipPath id="clip0_1_65">
<rect width="20.25" height="18" fill="white" transform="matrix(1 0 0 -1 0.898682 18.6364)"/>
</clipPath>
</defs>
</symbol>
<symbol id="foxCoin" viewBox="0 0 22 22">
<path d="M18.052 3.23303C18.5715 3.73889 19.0227 4.27209 19.4055 4.83264C19.802 5.39319 20.1267 5.9845 20.3796 6.60657C20.6326 7.22864 20.8274 7.87463 20.9641 8.54456C21.0872 9.21448 21.1487 9.91174 21.1487 10.6364C21.1487 11.361 21.0872 12.0582 20.9641 12.7281C20.8274 13.4117 20.6326 14.0646 20.3796 14.6866C20.1267 15.3087 19.802 15.9 19.4055 16.4606C19.0227 17.0348 18.5715 17.5748 18.052 18.0807C17.5461 18.6002 17.0129 19.0446 16.4524 19.4137C15.8918 19.7965 15.304 20.1144 14.6887 20.3673C14.0735 20.6202 13.4241 20.8151 12.7405 20.9518C12.0706 21.0748 11.3733 21.1364 10.6487 21.1364C9.92407 21.1364 9.22681 21.0748 8.55688 20.9518C7.87329 20.8151 7.22046 20.6202 6.59839 20.3673C5.97632 20.1144 5.38501 19.7965 4.82446 19.4137C4.25024 19.0446 3.71021 18.6002 3.20435 18.0807C2.68481 17.5748 2.24048 17.0348 1.87134 16.4606C1.48853 15.9 1.17065 15.3087 0.917725 14.6866C0.664795 14.0646 0.469971 13.4117 0.333252 12.7281C0.210205 12.0582 0.148682 11.361 0.148682 10.6364C0.148682 9.91174 0.210205 9.21448 0.333252 8.54456C0.469971 7.86096 0.664795 7.21155 0.917725 6.59631C1.17065 5.98108 1.48853 5.39319 1.87134 4.83264C2.24048 4.27209 2.68481 3.73889 3.20435 3.23303C3.71021 2.7135 4.25024 2.26233 4.82446 1.87952C5.38501 1.48303 5.97632 1.15833 6.59839 0.905396C7.22046 0.652466 7.87329 0.457642 8.55688 0.320923C9.22681 0.197876 9.92407 0.136353 10.6487 0.136353C11.3733 0.136353 12.0706 0.197876 12.7405 0.320923C13.4104 0.457642 14.0564 0.652466 14.6785 0.905396C15.3005 1.15833 15.8918 1.48303 16.4524 1.87952C17.0129 2.26233 17.5461 2.7135 18.052 3.23303ZM4.47583 16.8092C4.89966 17.233 5.35083 17.6022 5.82935 17.9166C6.29419 18.2311 6.78296 18.4943 7.29565 18.7062C7.80835 18.9181 8.34497 19.0719 8.90552 19.1676C9.46606 19.277 10.0471 19.3317 10.6487 19.3317C11.2502 19.3317 11.8313 19.277 12.3918 19.1676C12.9387 19.0719 13.4685 18.9181 13.9812 18.7062C14.4939 18.4943 14.9827 18.2311 15.4475 17.9166C15.9124 17.6022 16.3567 17.233 16.7805 16.8092C17.2043 16.3854 17.5803 15.9342 17.9084 15.4557C18.2229 14.9908 18.4861 14.5021 18.698 13.9894C18.9099 13.4767 19.0706 12.9401 19.1799 12.3795C19.2893 11.819 19.344 11.2379 19.344 10.6364C19.344 10.0348 19.2893 9.45374 19.1799 8.89319C19.0706 8.34631 18.9099 7.81653 18.698 7.30383C18.4861 6.79114 18.2229 6.30237 17.9084 5.83752C17.5803 5.37268 17.2043 4.92834 16.7805 4.50452C16.3567 4.08069 15.9124 3.70471 15.4475 3.37659C14.9827 3.06213 14.4939 2.79895 13.9812 2.58704C13.4685 2.37512 12.9387 2.21448 12.3918 2.1051C11.8313 1.99573 11.2502 1.94104 10.6487 1.94104C10.0471 1.94104 9.46606 1.99573 8.90552 2.1051C8.34497 2.21448 7.80835 2.37512 7.29565 2.58704C6.78296 2.79895 6.29419 3.06213 5.82935 3.37659C5.35083 3.70471 4.89966 4.08069 4.47583 4.50452C4.052 4.92834 3.68286 5.37268 3.36841 5.83752C3.05396 6.30237 2.79077 6.79114 2.57886 7.30383C2.36694 7.81653 2.21313 8.34631 2.11743 8.89319C2.00806 9.45374 1.95337 10.0348 1.95337 10.6364C1.95337 11.2379 2.00806 11.819 2.11743 12.3795C2.21313 12.9401 2.36694 13.4767 2.57886 13.9894C2.79077 14.5021 3.05396 14.9908 3.36841 15.4557C3.68286 15.9342 4.052 16.3854 4.47583 16.8092ZM12.7405 6.76038H10.9973L8.39282 10.8414L10.9973 14.902H12.7405L10.136 10.8414L12.7405 6.76038ZM15.6321 6.76038H13.8889L11.2639 10.8414L13.8889 14.902H15.6321L13.0071 10.8414L15.6321 6.76038ZM5.66528 6.76038H7.49048V14.902H5.66528V6.76038Z" fill="white"/>
</symbol>
<symbol id="baket" viewBox="0 0 26 24">
<g clip-path="url(#clip0_1_79)">
<path d="M24.606 3.25842C24.7707 3.25842 24.9167 3.28837 25.0439 3.34827C25.1712 3.40816 25.2873 3.50549 25.3921 3.64026C25.5119 3.77502 25.5905 3.91353 25.6279 4.05579C25.6654 4.19804 25.6616 4.35152 25.6167 4.51624L23.6177 13.6129C23.5877 13.7177 23.5391 13.8226 23.4717 13.9274C23.4043 14.0322 23.3182 14.1295 23.2134 14.2194C23.1385 14.2942 23.0487 14.3466 22.9438 14.3766C22.839 14.4065 22.7267 14.4215 22.6069 14.4215H10.0288C9.68441 14.4215 9.40739 14.5525 9.19775 14.8146C8.98812 15.0766 8.91325 15.3724 8.97314 15.7018C9.03304 15.9414 9.16032 16.1398 9.35498 16.297C9.54964 16.4542 9.77425 16.5328 10.0288 16.5328H21.6636C21.8283 16.5328 21.978 16.5665 22.1128 16.6339C22.2476 16.7013 22.3673 16.7949 22.4722 16.9147C22.592 17.0494 22.6706 17.1879 22.708 17.3302C22.7454 17.4725 22.7417 17.6259 22.6968 17.7906C22.6818 17.8655 22.6855 17.9366 22.708 18.004C22.7305 18.0714 22.7642 18.1276 22.8091 18.1725C23.0487 18.427 23.2284 18.7115 23.3481 19.026C23.4679 19.3405 23.5278 19.6699 23.5278 20.0143C23.5278 20.4186 23.4604 20.7817 23.3257 21.1036C23.1909 21.4256 22.9813 21.7213 22.6968 21.9908C22.4272 22.2604 22.1278 22.4663 21.7983 22.6085C21.4689 22.7508 21.1021 22.8219 20.6978 22.8219C20.2935 22.8219 19.9229 22.7508 19.5859 22.6085C19.249 22.4663 18.9383 22.2604 18.6538 21.9908C18.3843 21.7213 18.1821 21.4256 18.0474 21.1036C17.9126 20.7817 17.8452 20.4186 17.8452 20.0143C17.8452 19.6998 17.7479 19.3891 17.5532 19.0822C17.3586 18.7752 17.0965 18.6217 16.7671 18.6217H13.2632C12.9338 18.6217 12.668 18.7752 12.4658 19.0822C12.2637 19.3891 12.1626 19.6998 12.1626 20.0143C12.1626 20.4186 12.0952 20.7817 11.9604 21.1036C11.8257 21.4256 11.616 21.7213 11.3315 21.9908C11.062 22.2604 10.7625 22.4663 10.4331 22.6085C10.1037 22.7508 9.73682 22.8219 9.33252 22.8219C8.92822 22.8219 8.55762 22.7508 8.2207 22.6085C7.88379 22.4663 7.57308 22.2604 7.28857 21.9908C7.01904 21.7213 6.82064 21.4256 6.69336 21.1036C6.56608 20.7817 6.50244 20.4186 6.50244 20.0143C6.50244 19.9394 6.50244 19.8683 6.50244 19.8009C6.50244 19.7335 6.50993 19.6624 6.5249 19.5875C6.59977 19.0634 6.71582 18.5356 6.87305 18.004C7.03027 17.4725 7.05648 16.9446 6.95166 16.4205L4.70557 5.12268C4.55583 4.37398 4.18148 3.76005 3.58252 3.28088C2.98356 2.80172 2.29476 2.56213 1.51611 2.56213H0.640137C0.460449 2.56213 0.325684 2.51721 0.23584 2.42737C0.145996 2.33752 0.101074 2.20276 0.101074 2.02307V0.989868C0.101074 0.810181 0.145996 0.675415 0.23584 0.585571C0.325684 0.495728 0.460449 0.450806 0.640137 0.450806H5.06494C5.10986 0.450806 5.15479 0.45455 5.19971 0.462036C5.24463 0.469522 5.28206 0.480753 5.31201 0.495728C5.40186 0.510702 5.48796 0.536905 5.57031 0.574341C5.65267 0.611776 5.7238 0.66044 5.78369 0.720337C5.79867 0.750284 5.82113 0.776489 5.85107 0.79895C5.88102 0.821411 5.90348 0.855103 5.91846 0.900024C5.93343 0.929972 5.95215 0.959921 5.97461 0.989868C5.99707 1.01982 6.02327 1.04976 6.05322 1.07971C6.08317 1.15458 6.10938 1.22571 6.13184 1.29309C6.1543 1.36047 6.16553 1.4316 6.16553 1.50647C6.27035 2.01558 6.52116 2.43485 6.91797 2.76428C7.31478 3.09371 7.77523 3.25842 8.29932 3.25842H24.606ZM8.56885 20.7555C8.67367 20.8603 8.78971 20.9389 8.91699 20.9913C9.04427 21.0437 9.18278 21.0699 9.33252 21.0699C9.48226 21.0699 9.62077 21.0437 9.74805 20.9913C9.87533 20.9389 9.99137 20.8603 10.0962 20.7555C10.201 20.6656 10.2759 20.5571 10.3208 20.4298C10.3657 20.3025 10.3882 20.164 10.3882 20.0143C10.3882 19.8795 10.3657 19.7485 10.3208 19.6212C10.2759 19.4939 10.201 19.3779 10.0962 19.2731C9.99137 19.1683 9.87533 19.0934 9.74805 19.0485C9.62077 19.0035 9.48226 18.9811 9.33252 18.9811C9.18278 18.9811 9.04427 19.0035 8.91699 19.0485C8.78971 19.0934 8.67367 19.1683 8.56885 19.2731C8.46403 19.3779 8.38916 19.4939 8.34424 19.6212C8.29932 19.7485 8.27686 19.8795 8.27686 20.0143C8.27686 20.164 8.29932 20.3025 8.34424 20.4298C8.38916 20.5571 8.46403 20.6656 8.56885 20.7555ZM19.9341 20.7555C20.0389 20.8603 20.1549 20.9389 20.2822 20.9913C20.4095 21.0437 20.548 21.0699 20.6978 21.0699C20.8475 21.0699 20.986 21.0437 21.1133 20.9913C21.2406 20.9389 21.3491 20.8603 21.439 20.7555C21.5438 20.6656 21.6224 20.5571 21.6748 20.4298C21.7272 20.3025 21.7534 20.164 21.7534 20.0143C21.7534 19.8795 21.7272 19.7485 21.6748 19.6212C21.6224 19.4939 21.5438 19.3779 21.439 19.2731C21.3491 19.1683 21.2406 19.0934 21.1133 19.0485C20.986 19.0035 20.8475 18.9811 20.6978 18.9811C20.548 18.9811 20.4095 19.0035 20.2822 19.0485C20.1549 19.0934 20.0389 19.1683 19.9341 19.2731C19.8293 19.3779 19.7507 19.4939 19.6982 19.6212C19.6458 19.7485 19.6196 19.8795 19.6196 20.0143C19.6196 20.164 19.6458 20.3025 19.6982 20.4298C19.7507 20.5571 19.8293 20.6656 19.9341 20.7555Z" fill="white"/>
</g>
<defs>
<clipPath id="clip0_1_79">
<rect width="25.88" height="23" fill="white" transform="matrix(1 0 0 -1 0.0986328 23.1364)"/>
</clipPath>
</defs>
</symbol>
</svg>