<svg xmlns="http://www.w3.org/2000/svg">
<symbol id="logo" viewBox="0 0 160 27">
<g clip-path="url(#clip0_14235_23)">
<mask id="mask0_14235_23" style="mask-type:luminance" maskUnits="userSpaceOnUse" x="0" y="0" width="160" height="27">
<path d="M159.989 0.606689H0.982513V26.3531H159.989V0.606689Z" fill="white"/>
</mask>
<g mask="url(#mask0_14235_23)">
<path d="M18.0756 2.7999H17.1812V0.606689H11.7154V2.7999H10.7216C4.75891 2.7999 0.982513 5.66061 0.982513 10.8099V11.7635C0.982513 16.8174 4.65954 19.6782 10.821 19.6782H11.7154V21.8714H17.1812V19.6782H18.0756C24.1377 19.6782 27.9141 16.8174 27.9141 11.6682V10.7146C27.9141 5.4699 24.1377 2.70454 18.0756 2.70454V2.7999ZM10.5228 15.9592C7.83966 15.9592 6.44835 14.3382 6.44835 11.4774V11.096C6.44835 8.23526 7.83966 6.61419 10.5228 6.61419H11.7154V15.8639H10.5228V15.9592ZM22.4483 11.4774C22.4483 14.3382 20.9576 15.9592 18.2744 15.9592H17.1812V6.61419H18.2744C20.9576 6.61419 22.4483 8.1399 22.4483 11.096V11.4774ZM39.0446 6.70954C33.7775 6.70954 30.1999 9.85638 30.1999 14.3382C30.1999 18.9153 33.7775 21.9667 39.0446 21.9667C44.3117 21.9667 47.8893 18.9153 47.8893 14.3382C47.8893 9.85638 44.3117 6.70954 39.0446 6.70954ZM39.0446 18.1524C36.7589 18.1524 35.2682 16.6267 35.2682 14.3382C35.2682 12.0496 36.7589 10.5239 39.0446 10.5239C41.2309 10.5239 42.821 12.0496 42.821 14.3382C42.821 16.6267 41.2309 18.1524 39.0446 18.1524ZM67.8645 6.99562H62.1005L56.1377 13.8614V6.99562H51.1688V21.6807H56.1377V14.8149L62.1005 21.6807H68.262L61.3054 14.0521L67.8645 6.99562ZM77.3055 10.5239C78.9949 10.5239 80.1874 11.4774 80.585 12.8124H85.5539C85.1564 9.18883 82.0756 6.70954 77.4048 6.70954C72.1377 6.70954 68.5601 9.85638 68.5601 14.3382C68.5601 18.9153 72.1377 21.9667 77.5042 21.9667C82.0756 21.9667 85.1564 19.4874 85.4545 15.9592H80.585C80.3849 16.6383 79.9528 17.2331 79.358 17.6481C78.7633 18.0632 78.0405 18.2744 77.3055 18.2478C75.1192 18.2478 73.6284 16.6267 73.6284 14.4335C73.6284 12.0496 75.1192 10.5239 77.3055 10.5239ZM86.8458 6.99562V10.9053H92.411V21.6807H97.38V10.9053H102.846V7.09097H86.9452L86.8458 6.99562ZM114.97 6.90026C112.983 6.90026 111.194 7.66312 110.002 9.09347V6.99562H105.331V26.0671H110.3V19.9642C111.492 21.1085 113.082 21.8714 114.97 21.8714C119.542 21.8714 122.623 18.7246 122.623 14.3382C122.623 9.95173 119.542 6.90026 114.97 6.90026ZM113.778 18.2478C111.592 18.2478 110.002 16.6267 110.002 14.4335C110.002 12.0496 111.592 10.5239 113.778 10.5239C116.064 10.5239 117.554 12.0496 117.554 14.3382C117.554 16.6267 116.064 18.1524 113.778 18.1524V18.2478ZM133.852 6.70954C128.585 6.70954 125.008 9.85638 125.008 14.3382C125.008 18.9153 128.585 21.9667 133.852 21.9667C139.12 21.9667 142.697 18.9153 142.697 14.3382C142.697 9.85638 139.12 6.70954 133.753 6.70954H133.852ZM133.852 18.1524C131.567 18.1524 130.076 16.6267 130.076 14.3382C130.076 12.0496 131.567 10.5239 133.852 10.5239C136.039 10.5239 137.629 12.0496 137.629 14.3382C137.629 16.6267 136.039 18.1524 133.852 18.1524ZM144.088 6.99562V10.9053H149.554V21.6807H154.523V10.9053H159.989V7.09097H144.088V6.99562Z" fill="white"/>
</g>
</g>
<defs>
<clipPath id="clip0_14235_23">
<rect width="160" height="26.7" fill="white"/>
</clipPath>
</defs>
</symbol>
<symbol id="row" viewBox="0 0 10 6">
<g clip-path="url(#clip0_14235_40)">
<mask id="mask0_14235_40" style="mask-type:luminance" maskUnits="userSpaceOnUse" x="0" y="0" width="10" height="6">
<path d="M9.04095 5.68823H0.645309V0.545375H9.04095V5.68823Z" fill="white"/>
</mask>
<g mask="url(#mask0_14235_40)">
<path d="M8.96394 1.02253C9.01173 1.0828 9.03558 1.1414 9.03558 1.19831C9.03558 1.25523 9.01173 1.31048 8.96394 1.36405L4.99674 5.60791C4.94555 5.66148 4.89436 5.68826 4.84317 5.68826C4.79199 5.68826 4.7425 5.66148 4.69472 5.60791L0.727526 1.36405C0.676337 1.31048 0.650742 1.25523 0.650742 1.19831C0.650742 1.1414 0.676337 1.0828 0.727526 1.02253L1.10633 0.635811C1.1541 0.575544 1.2053 0.54541 1.2599 0.54541C1.3145 0.54541 1.3691 0.575544 1.42371 0.635811L4.84317 4.27197L8.26264 0.635811C8.32065 0.575544 8.37611 0.54541 8.429 0.54541C8.4819 0.54541 8.53394 0.575544 8.58513 0.635811L8.96394 1.02253Z" fill="white"/>
</g>
</g>
<defs>
<clipPath id="clip0_14235_40">
<rect width="9.61" height="6" fill="white"/>
</clipPath>
</defs>
</symbol>
<symbol id="scale" viewBox="0 0 13 13">
<mask id="mask0_14235_54" style="mask-type:luminance" maskUnits="userSpaceOnUse" x="0" y="0" width="13" height="13">
<path d="M12.3394 12.1982H0.26796V0.126814H12.3394V12.1982Z" fill="white"/>
</mask>
<g mask="url(#mask0_14235_54)">
<path d="M9.07397 5.6318C9.15256 5.71039 9.21347 5.80077 9.25669 5.90294C9.29992 6.0051 9.32156 6.11513 9.32156 6.23301C9.32156 6.3509 9.29992 6.45896 9.25669 6.55721C9.21347 6.65544 9.15256 6.74779 9.07397 6.83424L5.46669 10.4416C5.3881 10.5201 5.29772 10.581 5.19555 10.6242C5.09339 10.6675 4.98336 10.6891 4.86548 10.6891C4.74759 10.6891 4.63953 10.6675 4.54129 10.6242C4.44305 10.581 4.35071 10.5201 4.26427 10.4416L0.515519 6.69277C0.42907 6.61418 0.366197 6.5238 0.326903 6.42163C0.287607 6.31946 0.26796 6.20944 0.26796 6.09155V2.48428C0.26796 2.36639 0.287607 2.25833 0.326903 2.16009C0.366197 2.06185 0.42907 1.96951 0.515519 1.88306C0.594108 1.80447 0.684487 1.74357 0.786654 1.70034C0.888821 1.65712 0.998844 1.6355 1.11674 1.6355H4.72401C4.8419 1.6355 4.94996 1.65515 5.0482 1.69444C5.14644 1.73374 5.23878 1.79661 5.32522 1.88306L9.07397 5.6318ZM4.86548 9.84031L8.47276 6.23301L4.72401 2.48428H1.11674V6.09155L4.86548 9.84031ZM3.41549 3.5806C3.49408 3.66705 3.55499 3.75939 3.59821 3.85763C3.64144 3.95587 3.66305 4.06394 3.66305 4.18182C3.66305 4.2997 3.64341 4.40777 3.60411 4.506C3.56481 4.60424 3.50194 4.69658 3.41549 4.78303C3.32904 4.86162 3.2367 4.92253 3.13846 4.96575C3.04022 5.00898 2.93216 5.03059 2.81428 5.03059C2.69639 5.03059 2.58833 5.01094 2.49009 4.97165C2.39186 4.93235 2.29951 4.86948 2.21306 4.78303C2.13448 4.69658 2.07356 4.60424 2.03034 4.506C1.98711 4.40777 1.96551 4.2997 1.96551 4.18182C1.96551 4.06394 1.98515 3.95587 2.02445 3.85763C2.06374 3.75939 2.12661 3.66705 2.21306 3.5806C2.29951 3.50201 2.39186 3.44111 2.49009 3.39788C2.58833 3.35466 2.69639 3.33305 2.81428 3.33305C2.93216 3.33305 3.04022 3.3527 3.13846 3.39198C3.2367 3.43128 3.32904 3.49415 3.41549 3.5806Z" fill="white"/>
</g>
</symbol>
</svg>