<svg width="14" height="17" viewBox="0 0 14 17" fill="none" xmlns="http://www.w3.org/2000/svg">
<g clip-path="url(#clip0_1_201)">
<path d="M11.0658 0.396729H3.5364C3.03718 0.396729 2.55839 0.595047 2.20538 0.948057C1.85237 1.30107 1.65405 1.77985 1.65405 2.27908V13.5732C1.65405 14.0725 1.85237 14.5512 2.20538 14.9042C2.55839 15.2572 3.03718 15.4555 3.5364 15.4555H11.0658C11.5651 15.4555 12.0439 15.2572 12.3968 14.9042C12.7498 14.5512 12.9481 14.0725 12.9481 13.5732V2.27908C12.9481 1.77985 12.7498 1.30107 12.3968 0.948057C12.0439 0.595047 11.5651 0.396729 11.0658 0.396729ZM4.47758 4.16143C4.29144 4.16143 4.10947 4.10623 3.95469 4.00282C3.79992 3.8994 3.67928 3.75241 3.60805 3.58043C3.53681 3.40846 3.51817 3.21921 3.55449 3.03664C3.5908 2.85407 3.68044 2.68638 3.81207 2.55474C3.9437 2.42312 4.1114 2.33348 4.29397 2.29716C4.47654 2.26085 4.66578 2.27949 4.83775 2.35072C5.00973 2.42196 5.15672 2.54259 5.26014 2.69737C5.36356 2.85215 5.41876 3.03411 5.41876 3.22026C5.41876 3.46988 5.3196 3.70927 5.1431 3.88577C4.96659 4.06227 4.7272 4.16143 4.47758 4.16143Z" fill="#BEBEBE"/>
</g>
<defs>
<clipPath id="clip0_1_201">
<rect width="12.2353" height="16" fill="white" transform="translate(0.988647 0.276367)"/>
</clipPath>
</defs>
</svg>
