<svg width="17" height="17" viewBox="0 0 17 17" fill="none" xmlns="http://www.w3.org/2000/svg">
<g clip-path="url(#clip0_1_208)">
<path d="M16.3219 1.91638H1.65531C1.28731 1.91638 0.988647 2.21505 0.988647 2.58305V14.5831C0.988647 14.9511 1.28731 15.2497 1.65531 15.2497H16.3219C16.6899 15.2497 16.9886 14.9511 16.9886 14.5831V2.58305C16.9886 2.21505 16.6899 1.91638 16.3219 1.91638ZM10.9886 11.2497C10.9886 11.6177 10.69 11.9164 10.322 11.9164H3.65532C3.28732 11.9164 2.98865 11.6177 2.98865 11.2497V5.91638C2.98865 5.54838 3.28732 5.24971 3.65532 5.24971H10.322C10.69 5.24971 10.9886 5.54838 10.9886 5.91638V11.2497ZM14.9886 11.9164H12.3219V10.5831H14.9886V11.9164ZM13.6553 7.91638C12.9199 7.91638 12.3219 7.31838 12.3219 6.58305C12.3219 5.84771 12.9199 5.24971 13.6553 5.24971C14.3906 5.24971 14.9886 5.84771 14.9886 6.58305C14.9886 7.31838 14.3906 7.91638 13.6553 7.91638Z" fill="#BEBEBE"/>
</g>
<defs>
<clipPath id="clip0_1_208">
<rect width="16" height="16" fill="white" transform="translate(0.988647 0.916382)"/>
</clipPath>
</defs>
</svg>
