<svg width="17" height="17" viewBox="0 0 17 17" fill="none" xmlns="http://www.w3.org/2000/svg">
<g clip-path="url(#clip0_1_275)">
<path d="M7.54674 4.73793L6.00145 7.35319H10.6407L9.09537 4.73793L10.8946 1.69268C11.0819 1.37535 10.9773 0.966696 10.66 0.779368C10.3427 0.592039 9.93468 0.696703 9.74668 1.01403L8.32139 3.4273L6.89543 1.01403C6.7081 0.69737 6.29878 0.591373 5.98212 0.779368C5.66546 0.966696 5.56013 1.37535 5.74746 1.69268L7.54674 4.73793Z" fill="#BEBEBE"/>
<path d="M15.5625 15.6801L11.4293 8.68628H5.21481L1.08158 15.6801C0.959586 15.8861 0.957586 16.1414 1.07625 16.3494C1.19558 16.5581 1.41624 16.6861 1.65557 16.6861H5.65546L8.32206 12.0195L10.9886 16.6861H14.9885C15.2278 16.6861 15.4485 16.5581 15.5678 16.3501C15.6858 16.1421 15.6838 15.8861 15.5625 15.6801Z" fill="#BEBEBE"/>
</g>
<defs>
<clipPath id="clip0_1_275">
<rect width="16" height="16" fill="white" transform="translate(0.988647 0.686279)"/>
</clipPath>
</defs>
</svg>
