<svg width="17" height="17" viewBox="0 0 17 17" fill="none" xmlns="http://www.w3.org/2000/svg">
<g clip-path="url(#clip0_1_258)">
<path d="M15.9886 9.73938H2.65532C2.28683 9.73938 1.98865 10.0379 1.98865 10.406V11.7394C1.98865 12.1076 2.28683 12.4061 2.65532 12.4061H3.98865V15.7394C3.98865 16.1076 4.28683 16.4061 4.65532 16.4061H13.9886C14.3571 16.4061 14.6553 16.1076 14.6553 15.7394V12.4061H15.9886C16.3571 12.4061 16.6553 12.1076 16.6553 11.7394V10.406C16.6553 10.0379 16.3571 9.73938 15.9886 9.73938Z" fill="#BEBEBE"/>
<path d="M9.98799 6.40637C11.8289 6.40637 13.3213 4.91398 13.3213 3.07304V1.7397H12.6546C11.5591 1.7397 10.5956 2.27539 9.98799 3.09135V0.406372H8.65466V8.40637H9.98799V6.40637Z" fill="#BEBEBE"/>
</g>
<defs>
<clipPath id="clip0_1_258">
<rect width="16" height="16" fill="white" transform="translate(0.988647 0.406372)"/>
</clipPath>
</defs>
</svg>
