<svg width="17" height="17" viewBox="0 0 17 17" fill="none" xmlns="http://www.w3.org/2000/svg">
<g clip-path="url(#clip0_1_215)">
<path d="M9.00251 4.74531L2.92972 10.0971C2.87427 10.1526 2.81881 10.1526 2.79108 10.208V15.3103C2.79108 15.5599 2.98518 15.754 3.23475 15.754H6.78414C7.00598 15.754 7.22782 15.5599 7.22782 15.3103V11.7609C7.22782 11.5391 7.42193 11.3172 7.67149 11.3172H10.3335C10.5554 11.3172 10.7772 11.5391 10.7772 11.7609V15.3103C10.7772 15.5599 10.9713 15.754 11.2208 15.754H14.7702C14.9921 15.754 15.2139 15.5599 15.2139 15.3103V10.208C15.1584 10.1526 15.103 10.1526 15.0475 10.0971L9.00251 4.74531ZM16.8222 8.12832L9.72348 1.86143C9.55711 1.69505 9.22435 1.5564 9.00251 1.5564C8.75295 1.5564 8.42019 1.69505 8.25381 1.86143L1.15503 8.12832C1.07184 8.18378 0.988647 8.35016 0.988647 8.46108C0.988647 8.54427 1.04411 8.68292 1.1273 8.73838L1.70962 9.40389C1.79281 9.48708 1.93146 9.57026 2.04238 9.57026C2.12557 9.57026 2.26421 9.51481 2.3474 9.43162L8.69749 3.83023C8.75295 3.77477 8.8916 3.71931 9.00251 3.71931C9.0857 3.71931 9.22435 3.77477 9.27981 3.83023L15.6298 9.43162C15.713 9.51481 15.8517 9.54253 15.9349 9.54253C16.0458 9.54253 16.1844 9.48708 16.2676 9.40389L16.85 8.73838C16.9331 8.68292 16.9886 8.54427 16.9886 8.46108C16.9886 8.35016 16.9054 8.18378 16.8222 8.12832Z" fill="#BEBEBE"/>
</g>
<defs>
<clipPath id="clip0_1_215">
<rect width="16" height="16" fill="white" transform="translate(0.988647 0.556396)"/>
</clipPath>
</defs>
</svg>
