<svg width="17" height="17" viewBox="0 0 17 17" fill="none" xmlns="http://www.w3.org/2000/svg">
<g clip-path="url(#clip0_1_292)">
<path d="M16.9886 4.29964C16.9886 2.46164 15.4933 0.966309 13.6553 0.966309C12.4826 0.966309 11.4339 1.57164 10.8346 2.54431C10.244 2.39031 9.62732 2.29964 8.98865 2.29964C8.34998 2.29964 7.73332 2.39031 7.14265 2.54431C6.54332 1.57164 5.49465 0.966309 4.32198 0.966309C2.48398 0.966309 0.988647 2.46164 0.988647 4.29964C0.988647 5.29564 1.44665 6.22498 2.20665 6.85164C1.85331 7.71031 1.65531 8.64831 1.65531 9.63298C1.65531 13.6763 4.94532 16.9663 8.98865 16.9663C13.0319 16.9663 16.3219 13.6763 16.3219 9.63298C16.3219 8.64831 16.1239 7.71031 15.7706 6.85164C16.5306 6.22498 16.9886 5.29564 16.9886 4.29964ZM2.85465 5.62564C2.52332 5.26431 2.32198 4.79831 2.32198 4.29964C2.32198 3.19698 3.21932 2.29964 4.32198 2.29964C4.92665 2.29964 5.47598 2.56964 5.84732 3.01631C4.62665 3.59831 3.59065 4.50298 2.85465 5.62564ZM6.32198 7.63298C6.32198 7.26498 6.62065 6.96631 6.98865 6.96631C7.35665 6.96631 7.65532 7.26498 7.65532 7.63298C7.65532 8.00098 7.35665 8.29964 6.98865 8.29964C6.62065 8.29964 6.32198 8.00098 6.32198 7.63298ZM10.9886 13.633H6.98865V12.2996H8.32198V11.7903L7.72532 10.5976C7.62198 10.391 7.63332 10.1456 7.75465 9.94898C7.87665 9.75298 8.09065 9.63298 8.32198 9.63298H9.65532C9.88665 9.63298 10.1006 9.75298 10.2226 9.94898C10.344 10.1456 10.3553 10.391 10.252 10.5976L9.65532 11.7903V12.2996H10.9886V13.633ZM10.9886 8.29964C10.6206 8.29964 10.322 8.00098 10.322 7.63298C10.322 7.26498 10.6206 6.96631 10.9886 6.96631C11.3566 6.96631 11.6553 7.26498 11.6553 7.63298C11.6553 8.00098 11.3566 8.29964 10.9886 8.29964ZM15.1226 5.62564C14.3866 4.50298 13.3499 3.59831 12.1293 3.01631C12.5013 2.56964 13.0506 2.29964 13.6553 2.29964C14.7579 2.29964 15.6553 3.19698 15.6553 4.29964C15.6553 4.79831 15.4539 5.26431 15.1226 5.62564Z" fill="#BEBEBE"/>
</g>
<defs>
<clipPath id="clip0_1_292">
<rect width="16" height="16" fill="white" transform="translate(0.988647 0.966309)"/>
</clipPath>
</defs>
</svg>
