<svg width="17" height="17" viewBox="0 0 17 17" fill="none" xmlns="http://www.w3.org/2000/svg">
<g clip-path="url(#clip0_1_266)">
<path d="M7.98865 0.0463867C7.81184 0.0463867 7.64227 0.116625 7.51725 0.241649C7.39222 0.366673 7.32198 0.536243 7.32198 0.713054V6.04639C7.32198 6.2232 7.25174 6.39277 7.12672 6.51779C7.0017 6.64282 6.83213 6.71306 6.65532 6.71306H3.98865C3.81184 6.71306 3.64227 6.64282 3.51725 6.51779C3.39222 6.39277 3.32198 6.2232 3.32198 6.04639V0.713054C3.32198 0.536243 3.25175 0.366673 3.12672 0.241649C3.0017 0.116625 2.83213 0.0463867 2.65532 0.0463867C2.47851 0.0463867 2.30894 0.116625 2.18391 0.241649C2.05889 0.366673 1.98865 0.536243 1.98865 0.713054V6.04639C1.98865 6.57682 2.19936 7.08553 2.57444 7.4606C2.94951 7.83568 3.45822 8.04639 3.98865 8.04639H4.60398L4.09065 14.7184C4.07818 14.8877 4.10077 15.0578 4.157 15.218C4.21323 15.3782 4.3019 15.5251 4.41746 15.6494C4.53301 15.7738 4.67298 15.873 4.82862 15.9409C4.98425 16.0087 5.15221 16.0437 5.32198 16.0437C5.49176 16.0437 5.65971 16.0087 5.81535 15.9409C5.97098 15.873 6.11095 15.7738 6.22651 15.6494C6.34207 15.5251 6.43074 15.3782 6.48697 15.218C6.5432 15.0578 6.56578 14.8877 6.55332 14.7184L6.03998 8.04639H6.65532C7.18575 8.04639 7.69446 7.83568 8.06953 7.4606C8.4446 7.08553 8.65532 6.57682 8.65532 6.04639V0.713054C8.65532 0.536243 8.58508 0.366673 8.46005 0.241649C8.33503 0.116625 8.16546 0.0463867 7.98865 0.0463867Z" fill="#BEBEBE"/>
<path d="M5.98799 0.713054C5.98799 0.536243 5.91775 0.366673 5.79273 0.241649C5.6677 0.116625 5.49813 0.0463867 5.32132 0.0463867C5.14451 0.0463867 4.97494 0.116625 4.84992 0.241649C4.72489 0.366673 4.65466 0.536243 4.65466 0.713054V5.37972H5.98799V0.713054Z" fill="#BEBEBE"/>
<path d="M15.3226 0.0463867H14.6559C13.7719 0.0463867 12.924 0.397576 12.2989 1.0227C11.6738 1.64782 11.3226 2.49567 11.3226 3.37972V10.7131C11.3226 10.8899 11.3928 11.0594 11.5178 11.1845C11.6429 11.3095 11.8124 11.3797 11.9893 11.3797H13.9893V15.0464C13.9893 15.3116 14.0946 15.566 14.2821 15.7535C14.4697 15.941 14.724 16.0464 14.9893 16.0464C15.2545 16.0464 15.5088 15.941 15.6964 15.7535C15.8839 15.566 15.9893 15.3116 15.9893 15.0464V0.713054C15.9893 0.536243 15.919 0.366673 15.794 0.241649C15.669 0.116625 15.4994 0.0463867 15.3226 0.0463867Z" fill="#BEBEBE"/>
</g>
<defs>
<clipPath id="clip0_1_266">
<rect width="16" height="16" fill="white" transform="translate(0.988647 0.0463867)"/>
</clipPath>
</defs>
</svg>
