<svg width="17" height="17" viewBox="0 0 17 17" fill="none" xmlns="http://www.w3.org/2000/svg">
<g clip-path="url(#clip0_1_251)">
<path d="M16.1886 2.76636H4.98865C4.53865 2.76636 4.18865 3.14136 4.18865 3.56636V5.96636H8.18865V4.36636H12.9886V12.3664H16.1886C16.6136 12.3664 16.9886 12.0164 16.9886 11.5664V3.56636C16.9886 3.14136 16.6136 2.76636 16.1886 2.76636ZM6.78865 5.34136C6.78865 5.46636 6.66365 5.56636 6.56365 5.56636H5.81365C5.68865 5.56636 5.58865 5.46636 5.58865 5.34136V4.59136C5.58865 4.49136 5.68865 4.36636 5.81365 4.36636H6.56365C6.66365 4.36636 6.78865 4.49136 6.78865 4.59136V5.34136ZM15.5886 10.5414C15.5886 10.6664 15.4636 10.7664 15.3636 10.7664H14.6136C14.4886 10.7664 14.3886 10.6664 14.3886 10.5414V9.79136C14.3886 9.69136 14.4886 9.56636 14.6136 9.56636H15.3636C15.4636 9.56636 15.5886 9.69136 15.5886 9.79136V10.5414ZM15.5886 7.94136C15.5886 8.06636 15.4636 8.16636 15.3636 8.16636H14.6136C14.4886 8.16636 14.3886 8.06636 14.3886 7.94136V7.19136C14.3886 7.09136 14.4886 6.96636 14.6136 6.96636H15.3636C15.4636 6.96636 15.5886 7.09136 15.5886 7.19136V7.94136ZM15.5886 5.34136C15.5886 5.46636 15.4636 5.56636 15.3636 5.56636H14.6136C14.4886 5.56636 14.3886 5.46636 14.3886 5.34136V4.59136C14.3886 4.49136 14.4886 4.36636 14.6136 4.36636H15.3636C15.4636 4.36636 15.5886 4.49136 15.5886 4.59136V5.34136ZM11.3886 6.76636H1.78865C1.33865 6.76636 0.988647 7.14136 0.988647 7.56636V14.7664C0.988647 15.2164 1.33865 15.5664 1.78865 15.5664H11.3886C11.8136 15.5664 12.1886 15.2164 12.1886 14.7664V7.56636C12.1886 7.14136 11.8136 6.76636 11.3886 6.76636ZM3.38865 8.36636C3.81365 8.36636 4.18865 8.74136 4.18865 9.16636C4.18865 9.61636 3.81365 9.96636 3.38865 9.96636C2.93865 9.96636 2.58865 9.61636 2.58865 9.16636C2.58865 8.74136 2.93865 8.36636 3.38865 8.36636ZM10.5886 13.9664H2.58865V13.1664L4.18865 11.5664L4.98865 12.3664L8.18865 9.16636L10.5886 11.5664V13.9664Z" fill="#BEBEBE"/>
</g>
<defs>
<clipPath id="clip0_1_251">
<rect width="16" height="16" fill="white" transform="translate(0.988647 0.766357)"/>
</clipPath>
</defs>
</svg>
