<svg width="17" height="17" viewBox="0 0 17 17" fill="none" xmlns="http://www.w3.org/2000/svg">
<path d="M8.31957 6.8325L5.90107 4.414L6.65532 3.65975L4.32198 1.32642L1.98865 3.65975L4.32198 5.99309L5.07623 5.23884L7.3489 7.5115L8.31957 6.8325Z" fill="#BEBEBE"/>
<path d="M13.0366 9.45825C12.8564 9.47925 12.6738 9.49325 12.4883 9.49325C12.3104 9.49325 12.1336 9.48275 11.9563 9.46233L9.8324 12.0867L12.4679 14.7222C13.2734 15.5278 14.5789 15.5278 15.3845 14.7222C16.1901 13.9167 16.1901 12.6112 15.3845 11.8056L13.0366 9.45825Z" fill="#BEBEBE"/>
<path d="M13.8134 5.27617L12.0389 3.50167L13.9102 1.63034C13.4756 1.43667 12.9956 1.32642 12.4886 1.32642C10.5555 1.32642 8.98868 2.89325 8.98868 4.82642C8.98868 5.17292 9.0406 5.50659 9.13451 5.82275L2.84093 10.9152C2.32118 11.3743 2.01085 12.0346 1.98985 12.7271C1.96827 13.4201 2.23718 14.0985 2.72718 14.5879C3.20318 15.0645 3.8361 15.3264 4.50926 15.3264C5.23201 15.3264 5.92151 15.0161 6.39985 14.4741L11.4923 8.18059C11.8085 8.2745 12.1421 8.32642 12.4886 8.32642C14.4218 8.32642 15.9886 6.75959 15.9886 4.82642C15.9886 4.3195 15.8784 3.83942 15.6847 3.40425L13.8134 5.27617Z" fill="#BEBEBE"/>
</svg>
