<svg width="17" height="17" viewBox="0 0 17 17" fill="none" xmlns="http://www.w3.org/2000/svg">
<g clip-path="url(#clip0_1_244)">
<path d="M4.98865 15.1163C4.98865 15.6788 5.42615 16.1163 5.98865 16.1163H11.9886C12.5198 16.1163 12.9886 15.6788 12.9886 15.1163V14.6163H4.98865V15.1163ZM12.9886 1.11633C12.9886 0.585083 12.5198 0.116333 11.9886 0.116333H5.98865C5.42615 0.116333 4.98865 0.585083 4.98865 1.11633V1.61633H12.9886V1.11633ZM12.9886 2.61633H4.98865C3.86365 2.61633 2.98865 3.52258 2.98865 4.61633V11.6163C2.98865 12.7413 3.86365 13.6163 4.98865 13.6163H12.9886C14.0824 13.6163 14.9886 12.7413 14.9886 11.6163V4.61633C14.9886 3.52258 14.0824 2.61633 12.9886 2.61633ZM11.9261 8.33508L9.2699 10.9913C9.2074 11.0851 9.0824 11.1163 8.98865 11.1163C8.86365 11.1163 8.73865 11.0851 8.67615 10.9913L6.0199 8.33508C5.23865 7.55383 5.30115 6.27258 6.1449 5.55383C6.8949 4.92883 8.0199 5.02258 8.7074 5.71008L8.98865 5.99133L9.23865 5.71008C9.92615 5.02258 11.0511 4.92883 11.8011 5.55383C12.6448 6.27258 12.7074 7.55383 11.9261 8.33508Z" fill="#BEBEBE"/>
</g>
<defs>
<clipPath id="clip0_1_244">
<rect width="16" height="16" fill="white" transform="translate(0.988647 0.116333)"/>
</clipPath>
</defs>
</svg>
