<svg width="17" height="17" viewBox="0 0 17 17" fill="none" xmlns="http://www.w3.org/2000/svg">
<g clip-path="url(#clip0_1_194)">
<path d="M0.988647 8.08845C0.988647 8.41245 1.16538 8.85427 1.40102 9.08991L7.616 15.3049C8.17565 15.8646 9.08875 15.8646 9.61893 15.3049L15.6277 9.2961C16.1874 8.76591 16.1874 7.8528 15.6277 7.29316L9.41275 1.07818C9.17711 0.842537 8.73529 0.636353 8.41128 0.636353H2.40248C1.6072 0.636353 0.988647 1.28436 0.988647 2.05019V8.08845ZM4.28759 2.52146C5.05343 2.52146 5.70143 3.16947 5.70143 3.9353C5.70143 4.73058 5.05343 5.34913 4.28759 5.34913C3.49232 5.34913 2.87376 4.73058 2.87376 3.9353C2.87376 3.16947 3.49232 2.52146 4.28759 2.52146Z" fill="#92C1E9"/>
</g>
<defs>
<clipPath id="clip0_1_194">
<rect width="15.0588" height="16" fill="white" transform="translate(0.988647 0.636353)"/>
</clipPath>
</defs>
</svg>
