<svg width="17" height="17" viewBox="0 0 17 17" fill="none" xmlns="http://www.w3.org/2000/svg">
<g clip-path="url(#clip0_1_236)">
<path d="M9.65602 2.14301C9.65602 1.775 9.35734 1.47632 8.98933 1.47632C8.62131 1.47632 8.32263 1.775 8.32263 2.14301V5.47649H9.65602V2.14301Z" fill="#BEBEBE"/>
<path d="M12.9891 6.8103H4.98882C2.78272 6.8103 0.988647 8.60438 0.988647 10.8105C0.988647 13.0165 2.78272 14.8106 4.98882 14.8106C6.42554 14.8106 7.74026 14.0386 8.44963 12.8105H9.52767C10.237 14.0386 11.5517 14.8106 12.9884 14.8106C15.1945 14.8106 16.9886 13.0165 16.9886 10.8105C16.9886 8.60438 15.1952 6.8103 12.9891 6.8103ZM6.9889 11.4771H5.65551V12.8105H4.32212V11.4771H2.98873V10.1438H4.32212V8.81039H5.65551V10.1438H6.9889V11.4771ZM12.3224 12.8105C11.9544 12.8105 11.6557 12.5119 11.6557 12.1438C11.6557 11.7758 11.9544 11.4771 12.3224 11.4771C12.6904 11.4771 12.9891 11.7758 12.9891 12.1438C12.9891 12.5119 12.6904 12.8105 12.3224 12.8105ZM14.3225 10.8105C13.9545 10.8105 13.6558 10.5118 13.6558 10.1438C13.6558 9.77576 13.9545 9.47708 14.3225 9.47708C14.6905 9.47708 14.9892 9.77576 14.9892 10.1438C14.9892 10.5118 14.6905 10.8105 14.3225 10.8105Z" fill="#BEBEBE"/>
</g>
<defs>
<clipPath id="clip0_1_236">
<rect width="16" height="16" fill="white" transform="translate(0.988647 0.476318)"/>
</clipPath>
</defs>
</svg>
