<svg width="13" height="13" viewBox="0 0 13 13" fill="none" xmlns="http://www.w3.org/2000/svg">
<mask id="mask0_14235_54" style="mask-type:luminance" maskUnits="userSpaceOnUse" x="0" y="0" width="13" height="13">
<path d="M12.3394 12.1982H0.26796V0.126814H12.3394V12.1982Z" fill="white"/>
</mask>
<g mask="url(#mask0_14235_54)">
<path d="M9.07397 5.6318C9.15256 5.71039 9.21347 5.80077 9.25669 5.90294C9.29992 6.0051 9.32156 6.11513 9.32156 6.23301C9.32156 6.3509 9.29992 6.45896 9.25669 6.55721C9.21347 6.65544 9.15256 6.74779 9.07397 6.83424L5.46669 10.4416C5.3881 10.5201 5.29772 10.581 5.19555 10.6242C5.09339 10.6675 4.98336 10.6891 4.86548 10.6891C4.74759 10.6891 4.63953 10.6675 4.54129 10.6242C4.44305 10.581 4.35071 10.5201 4.26427 10.4416L0.515519 6.69277C0.42907 6.61418 0.366197 6.5238 0.326903 6.42163C0.287607 6.31946 0.26796 6.20944 0.26796 6.09155V2.48428C0.26796 2.36639 0.287607 2.25833 0.326903 2.16009C0.366197 2.06185 0.42907 1.96951 0.515519 1.88306C0.594108 1.80447 0.684487 1.74357 0.786654 1.70034C0.888821 1.65712 0.998844 1.6355 1.11674 1.6355H4.72401C4.8419 1.6355 4.94996 1.65515 5.0482 1.69444C5.14644 1.73374 5.23878 1.79661 5.32522 1.88306L9.07397 5.6318ZM4.86548 9.84031L8.47276 6.23301L4.72401 2.48428H1.11674V6.09155L4.86548 9.84031ZM3.41549 3.5806C3.49408 3.66705 3.55499 3.75939 3.59821 3.85763C3.64144 3.95587 3.66305 4.06394 3.66305 4.18182C3.66305 4.2997 3.64341 4.40777 3.60411 4.506C3.56481 4.60424 3.50194 4.69658 3.41549 4.78303C3.32904 4.86162 3.2367 4.92253 3.13846 4.96575C3.04022 5.00898 2.93216 5.03059 2.81428 5.03059C2.69639 5.03059 2.58833 5.01094 2.49009 4.97165C2.39186 4.93235 2.29951 4.86948 2.21306 4.78303C2.13448 4.69658 2.07356 4.60424 2.03034 4.506C1.98711 4.40777 1.96551 4.2997 1.96551 4.18182C1.96551 4.06394 1.98515 3.95587 2.02445 3.85763C2.06374 3.75939 2.12661 3.66705 2.21306 3.5806C2.29951 3.50201 2.39186 3.44111 2.49009 3.39788C2.58833 3.35466 2.69639 3.33305 2.81428 3.33305C2.93216 3.33305 3.04022 3.3527 3.13846 3.39198C3.2367 3.43128 3.32904 3.49415 3.41549 3.5806Z" fill="white"/>
</g>
</svg>
