<svg width="31" height="31" viewBox="0 0 31 31" fill="none" xmlns="http://www.w3.org/2000/svg">
<path d="M24.6271 16.9327C24.6271 16.3959 24.1921 15.9607 23.6555 15.9607C23.1189 15.9607 22.6838 16.3959 22.6838 16.9327C22.6838 20.8242 19.5188 23.9902 15.6286 23.9902C11.7384 23.9902 8.57342 20.8242 8.57342 16.9327C8.57342 16.3959 8.13838 15.9607 7.60178 15.9607C7.06517 15.9607 6.63013 16.3959 6.63013 16.9327C6.63013 21.5677 10.1506 25.3945 14.657 25.8809V28.6325H12.2643C11.7277 28.6325 11.2926 29.0677 11.2926 29.6045C11.2926 30.1413 11.7277 30.5765 12.2643 30.5765H18.9931C19.5297 30.5765 19.9648 30.1413 19.9648 29.6045C19.9648 29.0677 19.5297 28.6325 18.9931 28.6325H16.6004V25.8809C21.1066 25.3945 24.6271 21.5677 24.6271 16.9327Z" fill="white"/>
<path d="M15.6288 22.8619C18.6614 22.8619 21.1285 20.394 21.1285 17.3604V6.1879C21.1285 3.15431 18.6614 0.686401 15.6288 0.686401C12.5962 0.686401 10.1292 3.15431 10.1292 6.1879V17.3604C10.1292 20.394 12.5962 22.8619 15.6288 22.8619ZM12.0724 6.1879C12.0724 4.2262 13.6678 2.63035 15.6288 2.63035C17.5899 2.63035 19.1852 4.2262 19.1852 6.1879V17.3604C19.1852 19.3221 17.5899 20.918 15.6288 20.918C13.6678 20.918 12.0724 19.3221 12.0724 17.3604V6.1879Z" fill="white"/>
</svg>
