<svg width="22" height="18" viewBox="0 0 22 18" fill="none" xmlns="http://www.w3.org/2000/svg">
<path d="M8.65046 2.38137C8.66178 2.60341 8.70702 2.81713 8.78619 3.02251C8.86538 3.2279 8.97283 3.41941 9.10857 3.59704C9.25557 3.78578 9.42245 3.94398 9.60913 4.07164C9.7957 4.19932 10.0022 4.29646 10.2284 4.36307V15.7204H3.81495C3.75839 15.7204 3.70467 15.7287 3.65376 15.7454C3.60287 15.762 3.56045 15.7926 3.52652 15.8369C3.48127 15.8703 3.45016 15.9147 3.4332 15.9702C3.41623 16.0257 3.40775 16.0757 3.40775 16.1201V16.653C3.40775 16.7085 3.41623 16.7612 3.4332 16.8112C3.45016 16.8611 3.48127 16.9083 3.52652 16.9527C3.56045 16.986 3.60287 17.011 3.65376 17.0277C3.70467 17.0443 3.75839 17.0527 3.81495 17.0527H17.9482C18.0048 17.0527 18.0585 17.0443 18.1094 17.0277C18.1603 17.011 18.2083 16.986 18.2536 16.9527C18.2876 16.9083 18.313 16.8611 18.33 16.8112C18.3469 16.7612 18.3554 16.7085 18.3554 16.653V16.1201C18.3554 16.0757 18.3469 16.0257 18.33 15.9702C18.313 15.9147 18.2876 15.8703 18.2536 15.8369C18.2083 15.7926 18.1603 15.762 18.1094 15.7454C18.0585 15.7287 18.0048 15.7204 17.9482 15.7204H11.5517V4.36307C11.6536 4.32977 11.7497 4.29091 11.8402 4.2465C11.9307 4.2021 12.0212 4.14659 12.1116 4.07997C12.2135 4.01336 12.3096 3.9412 12.4001 3.86349C12.4906 3.78578 12.5697 3.69696 12.6376 3.59704C12.7168 3.50823 12.7847 3.41108 12.8413 3.30561C12.8978 3.20014 12.9431 3.08635 12.977 2.96423C13.0222 2.87541 13.0561 2.78104 13.0788 2.68113C13.1014 2.58121 13.1127 2.48129 13.1127 2.38137H17.9482C18.0048 2.38137 18.0585 2.37305 18.1094 2.3564C18.1603 2.33974 18.2083 2.30921 18.2536 2.2648C18.2876 2.2315 18.313 2.18709 18.33 2.13158C18.3469 2.07607 18.3554 2.02611 18.3554 1.9817V1.44881C18.3554 1.3933 18.3469 1.34056 18.33 1.29061C18.313 1.24064 18.2876 1.19346 18.2536 1.14905C18.2083 1.11575 18.1603 1.09077 18.1094 1.07411C18.0585 1.05746 18.0048 1.04913 17.9482 1.04913H12.7734C12.6829 0.915913 12.5867 0.793788 12.4849 0.682775C12.3832 0.571753 12.27 0.471834 12.1456 0.383018C11.9646 0.260896 11.7667 0.166529 11.5517 0.099917C11.3369 0.0333057 11.1163 0 10.8901 0C10.6525 0 10.4292 0.0333057 10.2199 0.099917C10.0107 0.166529 9.81549 0.260896 9.63451 0.383018H9.61752C9.5045 0.471834 9.39697 0.571753 9.29524 0.682775C9.19341 0.793788 9.09727 0.915913 9.00676 1.04913H3.81495C3.75839 1.04913 3.70467 1.05746 3.65376 1.07411C3.60287 1.09077 3.56045 1.11575 3.52652 1.14905C3.48127 1.19346 3.45016 1.24064 3.4332 1.29061C3.41623 1.34056 3.40775 1.3933 3.40775 1.44881V1.9817C3.40775 2.02611 3.41623 2.07607 3.4332 2.13158C3.45016 2.18709 3.48127 2.2315 3.52652 2.2648C3.56045 2.30921 3.60287 2.33974 3.65376 2.3564C3.70467 2.37305 3.75839 2.38137 3.81495 2.38137H8.65046ZM11.5009 1.61534C11.6027 1.70415 11.6762 1.79852 11.7214 1.89844C11.7667 1.99836 11.7893 2.10938 11.7893 2.2315C11.7893 2.35362 11.7667 2.47018 11.7214 2.58121C11.6762 2.69223 11.6027 2.7977 11.5009 2.89762C11.4217 2.97533 11.3312 3.03639 11.2294 3.0808C11.1276 3.1252 11.0145 3.14741 10.8901 3.14741C10.7656 3.14741 10.6497 3.1252 10.5422 3.0808C10.4348 3.03639 10.3301 2.97533 10.2284 2.89762C10.1492 2.7977 10.087 2.69223 10.0417 2.58121C9.99647 2.47018 9.97388 2.35362 9.97388 2.2315C9.97388 2.10938 9.99647 1.99836 10.0417 1.89844C10.087 1.79852 10.1492 1.70415 10.2284 1.61534C10.3301 1.51542 10.4348 1.44326 10.5422 1.39885C10.6497 1.35444 10.7656 1.33223 10.8901 1.33223C11.0032 1.33223 11.1106 1.35444 11.2124 1.39885C11.3143 1.44326 11.4104 1.51542 11.5009 1.61534ZM21.2737 9.20913L17.7107 3.44716C17.6541 3.34725 17.5806 3.2723 17.4901 3.22235C17.3996 3.17239 17.2922 3.14741 17.1677 3.14741C17.0433 3.14741 16.9359 3.17239 16.8454 3.22235C16.7549 3.2723 16.6814 3.34725 16.6248 3.44716L13.0618 9.20913C12.9714 9.32007 12.9091 9.43943 12.8751 9.56714C12.8413 9.69484 12.83 9.81971 12.8413 9.94182C12.8865 10.4969 13.025 11.0076 13.257 11.4739C13.4888 11.9402 13.814 12.3676 14.2325 12.7562C14.6397 13.1448 15.0893 13.4333 15.5814 13.6222C16.0734 13.8109 16.6022 13.9052 17.1677 13.9052C17.7333 13.9052 18.2621 13.8109 18.7542 13.6222C19.2461 13.4333 19.7014 13.1448 20.12 12.7562C20.5272 12.3676 20.8467 11.9402 21.0786 11.4739C21.3105 11.0076 21.4491 10.4969 21.4942 9.94182C21.5055 9.81971 21.4942 9.69484 21.4604 9.56714C21.4264 9.43943 21.3642 9.32007 21.2737 9.20913ZM19.8994 10.7578C19.7976 11.0132 19.6619 11.2435 19.4922 11.4489C19.3225 11.6543 19.1189 11.8458 18.8814 12.0235C18.6326 12.2122 18.3667 12.351 18.0839 12.4398C17.8012 12.5286 17.4958 12.5729 17.1677 12.5729C16.8511 12.5729 16.5457 12.5286 16.2516 12.4398C15.9575 12.351 15.6803 12.2122 15.4202 12.0235C15.1827 11.8458 14.979 11.6543 14.8093 11.4489C14.6397 11.2435 14.5039 11.0132 14.4022 10.7578H19.8994ZM19.8994 9.44218H14.4701L17.1677 5.0625L19.8994 9.44218ZM7.54763 12.7562C7.96613 12.3676 8.29134 11.9402 8.52321 11.4739C8.75509 11.0076 8.89365 10.4969 8.9389 9.94182C8.95021 9.81971 8.93607 9.69484 8.89648 9.56714C8.85689 9.43943 8.7975 9.32007 8.71833 9.20913L5.15532 3.44716C5.09876 3.34725 5.02241 3.2723 4.92627 3.22235C4.83012 3.17239 4.72549 3.14741 4.61239 3.14741C4.48796 3.14741 4.37768 3.17239 4.28153 3.22235C4.18539 3.2723 4.10904 3.34725 4.05249 3.44716L0.489473 9.20913C0.410297 9.32007 0.350913 9.43943 0.311324 9.56714C0.271735 9.69484 0.257596 9.81971 0.268907 9.94182C0.314151 10.4969 0.452708 11.0076 0.684592 11.4739C0.916466 11.9402 1.24167 12.3676 1.66018 12.7562C2.07869 13.1448 2.53397 13.4333 3.026 13.6222C3.51804 13.8109 4.04683 13.9052 4.61239 13.9052C5.16663 13.9052 5.68977 13.8109 6.1818 13.6222C6.67384 13.4333 7.12912 13.1448 7.54763 12.7562ZM7.34402 10.7578C7.23092 11.0132 7.08952 11.2435 6.91986 11.4489C6.75019 11.6543 6.55225 11.8458 6.32603 12.0235H6.30906C6.06022 12.2122 5.7944 12.351 5.51163 12.4398C5.22885 12.5286 4.9291 12.5729 4.61239 12.5729C4.28436 12.5729 3.97614 12.5286 3.6877 12.4398C3.39927 12.351 3.12497 12.2122 2.86482 12.0235C2.62728 11.8458 2.42368 11.6543 2.25402 11.4489C2.08434 11.2435 1.94296 11.0132 1.82984 10.7578H7.34402ZM7.32706 9.44218H1.91467L4.61239 5.0625L7.32706 9.44218Z" fill="white"/>
</svg>
