<svg width="26" height="24" viewBox="0 0 26 24" fill="none" xmlns="http://www.w3.org/2000/svg">
<g clip-path="url(#clip0_1_79)">
<path d="M24.606 3.25842C24.7707 3.25842 24.9167 3.28837 25.0439 3.34827C25.1712 3.40816 25.2873 3.50549 25.3921 3.64026C25.5119 3.77502 25.5905 3.91353 25.6279 4.05579C25.6654 4.19804 25.6616 4.35152 25.6167 4.51624L23.6177 13.6129C23.5877 13.7177 23.5391 13.8226 23.4717 13.9274C23.4043 14.0322 23.3182 14.1295 23.2134 14.2194C23.1385 14.2942 23.0487 14.3466 22.9438 14.3766C22.839 14.4065 22.7267 14.4215 22.6069 14.4215H10.0288C9.68441 14.4215 9.40739 14.5525 9.19775 14.8146C8.98812 15.0766 8.91325 15.3724 8.97314 15.7018C9.03304 15.9414 9.16032 16.1398 9.35498 16.297C9.54964 16.4542 9.77425 16.5328 10.0288 16.5328H21.6636C21.8283 16.5328 21.978 16.5665 22.1128 16.6339C22.2476 16.7013 22.3673 16.7949 22.4722 16.9147C22.592 17.0494 22.6706 17.1879 22.708 17.3302C22.7454 17.4725 22.7417 17.6259 22.6968 17.7906C22.6818 17.8655 22.6855 17.9366 22.708 18.004C22.7305 18.0714 22.7642 18.1276 22.8091 18.1725C23.0487 18.427 23.2284 18.7115 23.3481 19.026C23.4679 19.3405 23.5278 19.6699 23.5278 20.0143C23.5278 20.4186 23.4604 20.7817 23.3257 21.1036C23.1909 21.4256 22.9813 21.7213 22.6968 21.9908C22.4272 22.2604 22.1278 22.4663 21.7983 22.6085C21.4689 22.7508 21.1021 22.8219 20.6978 22.8219C20.2935 22.8219 19.9229 22.7508 19.5859 22.6085C19.249 22.4663 18.9383 22.2604 18.6538 21.9908C18.3843 21.7213 18.1821 21.4256 18.0474 21.1036C17.9126 20.7817 17.8452 20.4186 17.8452 20.0143C17.8452 19.6998 17.7479 19.3891 17.5532 19.0822C17.3586 18.7752 17.0965 18.6217 16.7671 18.6217H13.2632C12.9338 18.6217 12.668 18.7752 12.4658 19.0822C12.2637 19.3891 12.1626 19.6998 12.1626 20.0143C12.1626 20.4186 12.0952 20.7817 11.9604 21.1036C11.8257 21.4256 11.616 21.7213 11.3315 21.9908C11.062 22.2604 10.7625 22.4663 10.4331 22.6085C10.1037 22.7508 9.73682 22.8219 9.33252 22.8219C8.92822 22.8219 8.55762 22.7508 8.2207 22.6085C7.88379 22.4663 7.57308 22.2604 7.28857 21.9908C7.01904 21.7213 6.82064 21.4256 6.69336 21.1036C6.56608 20.7817 6.50244 20.4186 6.50244 20.0143C6.50244 19.9394 6.50244 19.8683 6.50244 19.8009C6.50244 19.7335 6.50993 19.6624 6.5249 19.5875C6.59977 19.0634 6.71582 18.5356 6.87305 18.004C7.03027 17.4725 7.05648 16.9446 6.95166 16.4205L4.70557 5.12268C4.55583 4.37398 4.18148 3.76005 3.58252 3.28088C2.98356 2.80172 2.29476 2.56213 1.51611 2.56213H0.640137C0.460449 2.56213 0.325684 2.51721 0.23584 2.42737C0.145996 2.33752 0.101074 2.20276 0.101074 2.02307V0.989868C0.101074 0.810181 0.145996 0.675415 0.23584 0.585571C0.325684 0.495728 0.460449 0.450806 0.640137 0.450806H5.06494C5.10986 0.450806 5.15479 0.45455 5.19971 0.462036C5.24463 0.469522 5.28206 0.480753 5.31201 0.495728C5.40186 0.510702 5.48796 0.536905 5.57031 0.574341C5.65267 0.611776 5.7238 0.66044 5.78369 0.720337C5.79867 0.750284 5.82113 0.776489 5.85107 0.79895C5.88102 0.821411 5.90348 0.855103 5.91846 0.900024C5.93343 0.929972 5.95215 0.959921 5.97461 0.989868C5.99707 1.01982 6.02327 1.04976 6.05322 1.07971C6.08317 1.15458 6.10938 1.22571 6.13184 1.29309C6.1543 1.36047 6.16553 1.4316 6.16553 1.50647C6.27035 2.01558 6.52116 2.43485 6.91797 2.76428C7.31478 3.09371 7.77523 3.25842 8.29932 3.25842H24.606ZM8.56885 20.7555C8.67367 20.8603 8.78971 20.9389 8.91699 20.9913C9.04427 21.0437 9.18278 21.0699 9.33252 21.0699C9.48226 21.0699 9.62077 21.0437 9.74805 20.9913C9.87533 20.9389 9.99137 20.8603 10.0962 20.7555C10.201 20.6656 10.2759 20.5571 10.3208 20.4298C10.3657 20.3025 10.3882 20.164 10.3882 20.0143C10.3882 19.8795 10.3657 19.7485 10.3208 19.6212C10.2759 19.4939 10.201 19.3779 10.0962 19.2731C9.99137 19.1683 9.87533 19.0934 9.74805 19.0485C9.62077 19.0035 9.48226 18.9811 9.33252 18.9811C9.18278 18.9811 9.04427 19.0035 8.91699 19.0485C8.78971 19.0934 8.67367 19.1683 8.56885 19.2731C8.46403 19.3779 8.38916 19.4939 8.34424 19.6212C8.29932 19.7485 8.27686 19.8795 8.27686 20.0143C8.27686 20.164 8.29932 20.3025 8.34424 20.4298C8.38916 20.5571 8.46403 20.6656 8.56885 20.7555ZM19.9341 20.7555C20.0389 20.8603 20.1549 20.9389 20.2822 20.9913C20.4095 21.0437 20.548 21.0699 20.6978 21.0699C20.8475 21.0699 20.986 21.0437 21.1133 20.9913C21.2406 20.9389 21.3491 20.8603 21.439 20.7555C21.5438 20.6656 21.6224 20.5571 21.6748 20.4298C21.7272 20.3025 21.7534 20.164 21.7534 20.0143C21.7534 19.8795 21.7272 19.7485 21.6748 19.6212C21.6224 19.4939 21.5438 19.3779 21.439 19.2731C21.3491 19.1683 21.2406 19.0934 21.1133 19.0485C20.986 19.0035 20.8475 18.9811 20.6978 18.9811C20.548 18.9811 20.4095 19.0035 20.2822 19.0485C20.1549 19.0934 20.0389 19.1683 19.9341 19.2731C19.8293 19.3779 19.7507 19.4939 19.6982 19.6212C19.6458 19.7485 19.6196 19.8795 19.6196 20.0143C19.6196 20.164 19.6458 20.3025 19.6982 20.4298C19.7507 20.5571 19.8293 20.6656 19.9341 20.7555Z" fill="white"/>
</g>
<defs>
<clipPath id="clip0_1_79">
<rect width="25.88" height="23" fill="white" transform="matrix(1 0 0 -1 0.0986328 23.1364)"/>
</clipPath>
</defs>
</svg>
