<svg width="10" height="6" viewBox="0 0 10 6" fill="none" xmlns="http://www.w3.org/2000/svg">
<g clip-path="url(#clip0_14235_40)">
<mask id="mask0_14235_40" style="mask-type:luminance" maskUnits="userSpaceOnUse" x="0" y="0" width="10" height="6">
<path d="M9.04095 5.68823H0.645309V0.545375H9.04095V5.68823Z" fill="white"/>
</mask>
<g mask="url(#mask0_14235_40)">
<path d="M8.96394 1.02253C9.01173 1.0828 9.03558 1.1414 9.03558 1.19831C9.03558 1.25523 9.01173 1.31048 8.96394 1.36405L4.99674 5.60791C4.94555 5.66148 4.89436 5.68826 4.84317 5.68826C4.79199 5.68826 4.7425 5.66148 4.69472 5.60791L0.727526 1.36405C0.676337 1.31048 0.650742 1.25523 0.650742 1.19831C0.650742 1.1414 0.676337 1.0828 0.727526 1.02253L1.10633 0.635811C1.1541 0.575544 1.2053 0.54541 1.2599 0.54541C1.3145 0.54541 1.3691 0.575544 1.42371 0.635811L4.84317 4.27197L8.26264 0.635811C8.32065 0.575544 8.37611 0.54541 8.429 0.54541C8.4819 0.54541 8.53394 0.575544 8.58513 0.635811L8.96394 1.02253Z" fill="white"/>
</g>
</g>
<defs>
<clipPath id="clip0_14235_40">
<rect width="9.61" height="6" fill="white"/>
</clipPath>
</defs>
</svg>
