<svg width="13" height="12" viewBox="0 0 13 12" fill="none" xmlns="http://www.w3.org/2000/svg">
<g clip-path="url(#clip0_1_47)">
<path d="M4.48035 0.694946C4.48035 0.630493 4.46423 0.562459 4.43201 0.490845C4.39978 0.41923 4.36218 0.354777 4.31921 0.297485C4.26192 0.254517 4.19926 0.216919 4.13123 0.184692C4.06319 0.152466 3.99337 0.136353 3.92175 0.136353H1.54773C1.46895 0.136353 1.39555 0.152466 1.32751 0.184692C1.25948 0.216919 1.2004 0.254517 1.15027 0.297485C1.09298 0.354777 1.0518 0.41923 1.02673 0.490845C1.00167 0.562459 0.989136 0.630493 0.989136 0.694946V2.57483C0.989136 2.6536 1.00167 2.72701 1.02673 2.79504C1.0518 2.86308 1.09298 2.92216 1.15027 2.97229C1.2004 3.02958 1.25948 3.07076 1.32751 3.09583C1.39555 3.12089 1.46895 3.13342 1.54773 3.13342H3.92175C3.99337 3.13342 4.06319 3.12089 4.13123 3.09583C4.19926 3.07076 4.26192 3.02958 4.31921 2.97229C4.36218 2.92216 4.39978 2.86308 4.43201 2.79504C4.46423 2.72701 4.48035 2.6536 4.48035 2.57483V0.694946ZM8.745 6.32385C8.745 6.40263 8.72888 6.47782 8.69666 6.54944C8.66443 6.62105 8.62683 6.67834 8.58386 6.72131C8.52657 6.77861 8.46391 6.81978 8.39587 6.84485C8.32784 6.86991 8.25802 6.88245 8.1864 6.88245H5.79089C5.71212 6.88245 5.63871 6.86991 5.57068 6.84485C5.50265 6.81978 5.44356 6.77861 5.39343 6.72131C5.33614 6.67834 5.29496 6.62105 5.2699 6.54944C5.24483 6.47782 5.2323 6.40263 5.2323 6.32385V4.44397C5.2323 4.37952 5.24483 4.31327 5.2699 4.24524C5.29496 4.17721 5.33614 4.11096 5.39343 4.04651C5.44356 4.00354 5.50265 3.96594 5.57068 3.93372C5.63871 3.90149 5.71212 3.88538 5.79089 3.88538H8.1864C8.25802 3.88538 8.32784 3.90149 8.39587 3.93372C8.46391 3.96594 8.52657 4.00354 8.58386 4.04651C8.62683 4.11096 8.66443 4.17721 8.69666 4.24524C8.72888 4.31327 8.745 4.37952 8.745 4.44397V6.32385ZM9.49695 0.694946C9.49695 0.630493 9.50948 0.562459 9.53455 0.490845C9.55961 0.41923 9.60079 0.354777 9.65808 0.297485C9.70821 0.254517 9.76729 0.216919 9.83533 0.184692C9.90336 0.152466 9.97677 0.136353 10.0555 0.136353H12.4296C12.5012 0.136353 12.571 0.152466 12.639 0.184692C12.7071 0.216919 12.7697 0.254517 12.827 0.297485C12.87 0.354777 12.9076 0.41923 12.9398 0.490845C12.972 0.562459 12.9882 0.630493 12.9882 0.694946V2.57483C12.9882 2.6536 12.972 2.72701 12.9398 2.79504C12.9076 2.86308 12.87 2.92216 12.827 2.97229C12.7697 3.02958 12.7071 3.07076 12.639 3.09583C12.571 3.12089 12.5012 3.13342 12.4296 3.13342H10.0555C9.97677 3.13342 9.90336 3.12089 9.83533 3.09583C9.76729 3.07076 9.70821 3.02958 9.65808 2.97229C9.60079 2.92216 9.55961 2.86308 9.53455 2.79504C9.50948 2.72701 9.49695 2.6536 9.49695 2.57483V0.694946ZM8.745 2.57483C8.745 2.6536 8.72888 2.72701 8.69666 2.79504C8.66443 2.86308 8.62683 2.92216 8.58386 2.97229C8.52657 3.02958 8.46391 3.07076 8.39587 3.09583C8.32784 3.12089 8.25802 3.13342 8.1864 3.13342H5.79089C5.71212 3.13342 5.63871 3.12089 5.57068 3.09583C5.50265 3.07076 5.44356 3.02958 5.39343 2.97229C5.33614 2.92216 5.29496 2.86308 5.2699 2.79504C5.24483 2.72701 5.2323 2.6536 5.2323 2.57483V0.694946C5.2323 0.630493 5.24483 0.562459 5.2699 0.490845C5.29496 0.41923 5.33614 0.354777 5.39343 0.297485C5.44356 0.254517 5.50265 0.216919 5.57068 0.184692C5.63871 0.152466 5.71212 0.136353 5.79089 0.136353H8.1864C8.25802 0.136353 8.32784 0.152466 8.39587 0.184692C8.46391 0.216919 8.52657 0.254517 8.58386 0.297485C8.62683 0.354777 8.66443 0.41923 8.69666 0.490845C8.72888 0.562459 8.745 0.630493 8.745 0.694946V2.57483ZM3.92175 3.88538C3.99337 3.88538 4.06319 3.90149 4.13123 3.93372C4.19926 3.96594 4.26192 4.00354 4.31921 4.04651C4.36218 4.11096 4.39978 4.17721 4.43201 4.24524C4.46423 4.31327 4.48035 4.37952 4.48035 4.44397V6.32385C4.48035 6.40263 4.46423 6.47782 4.43201 6.54944C4.39978 6.62105 4.36218 6.67834 4.31921 6.72131C4.26192 6.77861 4.19926 6.81978 4.13123 6.84485C4.06319 6.86991 3.99337 6.88245 3.92175 6.88245H1.54773C1.46895 6.88245 1.39555 6.86991 1.32751 6.84485C1.25948 6.81978 1.2004 6.77861 1.15027 6.72131C1.09298 6.67834 1.0518 6.62105 1.02673 6.54944C1.00167 6.47782 0.989136 6.40263 0.989136 6.32385V4.44397C0.989136 4.37952 1.00167 4.31327 1.02673 4.24524C1.0518 4.17721 1.09298 4.11096 1.15027 4.04651C1.2004 4.00354 1.25948 3.96594 1.32751 3.93372C1.39555 3.90149 1.46895 3.88538 1.54773 3.88538H3.92175ZM0.989136 8.20374C0.989136 8.13212 1.00167 8.0623 1.02673 7.99426C1.0518 7.92623 1.09298 7.85999 1.15027 7.79553C1.2004 7.75256 1.25948 7.71497 1.32751 7.68274C1.39555 7.65051 1.46895 7.6344 1.54773 7.6344H3.92175C3.99337 7.6344 4.06319 7.65051 4.13123 7.68274C4.19926 7.71497 4.26192 7.75256 4.31921 7.79553C4.36218 7.85999 4.39978 7.92623 4.43201 7.99426C4.46423 8.0623 4.48035 8.13212 4.48035 8.20374V10.0729C4.48035 10.1588 4.46423 10.2358 4.43201 10.3038C4.39978 10.3719 4.36218 10.4274 4.31921 10.4703C4.26192 10.5276 4.19926 10.5688 4.13123 10.5939C4.06319 10.6189 3.99337 10.6315 3.92175 10.6315H1.54773C1.46895 10.6315 1.39555 10.6189 1.32751 10.5939C1.25948 10.5688 1.2004 10.5276 1.15027 10.4703C1.09298 10.4274 1.0518 10.3719 1.02673 10.3038C1.00167 10.2358 0.989136 10.1588 0.989136 10.0729V8.20374ZM10.0555 6.88245C9.97677 6.88245 9.90336 6.86991 9.83533 6.84485C9.76729 6.81978 9.70821 6.77861 9.65808 6.72131C9.60079 6.67834 9.55961 6.62105 9.53455 6.54944C9.50948 6.47782 9.49695 6.40263 9.49695 6.32385V4.44397C9.49695 4.37952 9.50948 4.31327 9.53455 4.24524C9.55961 4.17721 9.60079 4.11096 9.65808 4.04651C9.70821 4.00354 9.76729 3.96594 9.83533 3.93372C9.90336 3.90149 9.97677 3.88538 10.0555 3.88538H12.4296C12.5012 3.88538 12.571 3.90149 12.639 3.93372C12.7071 3.96594 12.7697 4.00354 12.827 4.04651C12.87 4.11096 12.9076 4.17721 12.9398 4.24524C12.972 4.31327 12.9882 4.37952 12.9882 4.44397V6.32385C12.9882 6.40263 12.972 6.47782 12.9398 6.54944C12.9076 6.62105 12.87 6.67834 12.827 6.72131C12.7697 6.77861 12.7071 6.81978 12.639 6.84485C12.571 6.86991 12.5012 6.88245 12.4296 6.88245H10.0555ZM10.0555 10.6315C9.97677 10.6315 9.90336 10.6189 9.83533 10.5939C9.76729 10.5688 9.70821 10.5276 9.65808 10.4703C9.60079 10.4274 9.55961 10.3719 9.53455 10.3038C9.50948 10.2358 9.49695 10.1588 9.49695 10.0729V8.20374C9.49695 8.13212 9.50948 8.0623 9.53455 7.99426C9.55961 7.92623 9.60079 7.85999 9.65808 7.79553C9.70821 7.75256 9.76729 7.71497 9.83533 7.68274C9.90336 7.65051 9.97677 7.6344 10.0555 7.6344H12.4296C12.5012 7.6344 12.571 7.65051 12.639 7.68274C12.7071 7.71497 12.7697 7.75256 12.827 7.79553C12.87 7.85999 12.9076 7.92623 12.9398 7.99426C12.972 8.0623 12.9882 8.13212 12.9882 8.20374V10.0729C12.9882 10.1588 12.972 10.2358 12.9398 10.3038C12.9076 10.3719 12.87 10.4274 12.827 10.4703C12.7697 10.5276 12.7071 10.5688 12.639 10.5939C12.571 10.6189 12.5012 10.6315 12.4296 10.6315H10.0555ZM5.2323 8.20374C5.2323 8.13212 5.24483 8.0623 5.2699 7.99426C5.29496 7.92623 5.33614 7.85999 5.39343 7.79553C5.44356 7.75256 5.50265 7.71497 5.57068 7.68274C5.63871 7.65051 5.71212 7.6344 5.79089 7.6344H8.1864C8.25802 7.6344 8.32784 7.65051 8.39587 7.68274C8.46391 7.71497 8.52657 7.75256 8.58386 7.79553C8.62683 7.85999 8.66443 7.92623 8.69666 7.99426C8.72888 8.0623 8.745 8.13212 8.745 8.20374V10.0729C8.745 10.1588 8.72888 10.2358 8.69666 10.3038C8.66443 10.3719 8.62683 10.4274 8.58386 10.4703C8.52657 10.5276 8.46391 10.5688 8.39587 10.5939C8.32784 10.6189 8.25802 10.6315 8.1864 10.6315H5.79089C5.71212 10.6315 5.63871 10.6189 5.57068 10.5939C5.50265 10.5688 5.44356 10.5276 5.39343 10.4703C5.33614 10.4274 5.29496 10.3719 5.2699 10.3038C5.24483 10.2358 5.2323 10.1588 5.2323 10.0729V8.20374Z" fill="white"/>
</g>
<defs>
<clipPath id="clip0_1_47">
<rect width="12" height="11" fill="white" transform="matrix(1 0 0 -1 0.988647 11.1364)"/>
</clipPath>
</defs>
</svg>
