<svg width="22" height="19" viewBox="0 0 22 19" fill="none" xmlns="http://www.w3.org/2000/svg">
<g clip-path="url(#clip0_1_65)">
<path d="M18.1344 2.02502C18.5914 2.42346 18.9693 2.86292 19.2682 3.34338C19.567 3.82385 19.7926 4.33948 19.9449 4.89026C20.0973 5.42932 20.1764 5.96252 20.1822 6.48987C20.1881 7.01721 20.1207 7.53284 19.9801 8.03674C19.8512 8.54065 19.6666 9.0094 19.4264 9.44299C19.1861 9.87659 18.8961 10.275 18.5563 10.6383L11.9645 17.5289C11.7652 17.7399 11.5484 17.8981 11.3141 18.0035C11.0797 18.109 10.8219 18.1617 10.5406 18.1617C10.2594 18.1617 10.0016 18.109 9.7672 18.0035C9.53282 17.8981 9.31602 17.7399 9.11681 17.5289L2.52501 10.6383C2.18517 10.275 1.89513 9.87659 1.65489 9.44299C1.41466 9.0094 1.23009 8.54065 1.10118 8.03674C0.960557 7.52112 0.893174 6.9967 0.899033 6.4635C0.904893 5.9303 0.983994 5.39417 1.13634 4.8551C1.28868 4.31604 1.51427 3.8092 1.8131 3.33459C2.11192 2.85999 2.48985 2.42346 2.94688 2.02502C3.48595 1.55627 4.07188 1.22229 4.7047 1.02307C5.33751 0.823853 6.0172 0.759399 6.74376 0.829712C7.48204 0.876587 8.16759 1.04944 8.8004 1.34827C9.43321 1.64709 10.0133 2.06604 10.5406 2.6051C11.068 2.06604 11.6451 1.64709 12.2721 1.34827C12.899 1.04944 13.5758 0.876587 14.3024 0.829712C15.0406 0.759399 15.7291 0.823853 16.3678 1.02307C17.0065 1.22229 17.5953 1.55627 18.1344 2.02502ZM17.2731 9.31995C17.6363 8.93323 17.9088 8.50256 18.0904 8.02795C18.2721 7.55334 18.3629 7.04065 18.3629 6.48987C18.3629 5.91565 18.2516 5.37659 18.0289 4.87268C17.8063 4.36877 17.4664 3.90002 17.0094 3.46643C16.6344 3.15002 16.2272 2.92444 15.7877 2.78967C15.3483 2.65491 14.8766 2.6051 14.3727 2.64026C13.8922 2.67542 13.441 2.79846 13.0192 3.0094C12.5973 3.22034 12.2106 3.51331 11.859 3.88831L10.5406 5.24182L9.22227 3.88831C8.87071 3.51331 8.48106 3.22034 8.05333 3.0094C7.6256 2.79846 7.15978 2.67542 6.65587 2.64026C6.1754 2.6051 5.71837 2.65491 5.28478 2.78967C4.85118 2.92444 4.44688 3.15002 4.07188 3.46643C3.61485 3.90002 3.27501 4.36877 3.05235 4.87268C2.8297 5.37659 2.71837 5.91565 2.71837 6.48987C2.71837 7.04065 2.80919 7.55334 2.99083 8.02795C3.17247 8.50256 3.44493 8.93323 3.80821 9.31995L10.4352 16.2106C10.4703 16.2692 10.5055 16.2985 10.5406 16.2985C10.5758 16.2985 10.6109 16.2692 10.6461 16.2106L17.2731 9.31995Z" fill="white"/>
</g>
<defs>
<clipPath id="clip0_1_65">
<rect width="20.25" height="18" fill="white" transform="matrix(1 0 0 -1 0.898682 18.6364)"/>
</clipPath>
</defs>
</svg>
