<svg width="8" height="12" viewBox="0 0 8 12" fill="none" xmlns="http://www.w3.org/2000/svg">
<g clip-path="url(#clip0_1_149)">
<path d="M5.71899 0.765259C5.76912 0.707967 5.81209 0.67216 5.8479 0.657837C5.88371 0.643514 5.91593 0.636353 5.94458 0.636353C5.99471 0.636353 6.04484 0.647095 6.09497 0.668579C6.1451 0.690063 6.19881 0.729451 6.2561 0.786743L6.86841 1.39905L6.88989 1.40979C6.94002 1.45276 6.97404 1.49573 6.99194 1.5387C7.00985 1.58167 7.0188 1.62821 7.0188 1.67834C7.0188 1.72131 7.00985 1.76428 6.99194 1.80725C6.97404 1.85022 6.94002 1.89319 6.88989 1.93616L6.86841 1.9469L2.72192 6.13635L6.88989 10.3365C6.94002 10.3795 6.97404 10.4225 6.99194 10.4655C7.00985 10.5084 7.0188 10.5514 7.0188 10.5944C7.0188 10.6302 7.00985 10.6713 6.99194 10.7179C6.97404 10.7644 6.92928 10.8199 6.85767 10.8844L6.24536 11.4967L6.23462 11.5074C6.19165 11.5576 6.15047 11.5916 6.11108 11.6095C6.0717 11.6274 6.02694 11.6364 5.97681 11.6364C5.92668 11.6364 5.88192 11.6274 5.84253 11.6095C5.80314 11.5916 5.76196 11.5576 5.71899 11.5074L5.70825 11.4967L0.594971 6.41565C0.552002 6.37984 0.521566 6.33866 0.503662 6.29211C0.485758 6.24556 0.476807 6.19364 0.476807 6.13635C0.476807 6.07906 0.485758 6.02714 0.503662 5.98059C0.521566 5.93404 0.552002 5.89286 0.594971 5.85706L5.71899 0.765259Z" fill="white"/>
</g>
<defs>
<clipPath id="clip0_1_149">
<rect width="7.02" height="11" fill="white" transform="matrix(1 0 0 -1 0.46875 11.6364)"/>
</clipPath>
</defs>
</svg>
