<svg width="54" height="18" viewBox="0 0 54 18" fill="none" xmlns="http://www.w3.org/2000/svg">
<path d="M0.170654 5C0.170654 2.23858 2.40923 0 5.17065 0H48.1707C50.9321 0 53.1707 2.23858 53.1707 5V13C53.1707 15.7614 50.9321 18 48.1707 18H5.17065C2.40923 18 0.170654 15.7614 0.170654 13V5Z" fill="#BB6BD9"/>
<path d="M10.2387 8.92C10.9227 8.524 11.2467 7.924 11.2467 7.096V7.012C11.2467 5.728 10.3107 4.852 8.93065 4.852C7.52665 4.852 6.56665 5.836 6.56665 7.252V7.936H7.59865V7.276C7.59865 6.364 8.06665 5.848 8.88265 5.848C9.66265 5.848 10.1907 6.316 10.1907 7.06V7.156C10.1907 7.948 9.79465 8.476 9.05065 8.476H8.47465V9.436H9.05065C9.85465 9.436 10.2627 9.94 10.2627 10.732V10.804C10.2627 11.62 9.78265 12.112 8.94265 12.112C8.09065 12.112 7.55065 11.572 7.55065 10.696V10.072H6.54265V10.768C6.54265 12.16 7.50265 13.12 8.91865 13.12C10.3587 13.12 11.3307 12.208 11.3307 10.816V10.708C11.3307 9.928 10.8747 9.232 10.2387 8.92ZM16.6311 4.96V8.44H13.7871V4.96H12.7311V13H13.7871V9.472H16.6311V13H17.6751V4.96H16.6311ZM19.5162 13H20.4882L23.4522 7.144L23.4042 10.348V13H24.4602V4.96H23.5002L20.5362 10.816L20.5842 7.612V4.96H19.5162V13ZM34.4014 4.96H33.1774L30.5134 8.332V4.96H29.4694V8.284L26.8294 4.96H25.5814L27.8974 7.804L25.6174 13H26.7814L28.6174 8.656L29.4694 9.676V13H30.5134V9.676L31.3534 8.68L33.1894 13H34.3654L32.0974 7.828L34.4014 4.96ZM39.2926 13H40.5046L38.1646 7.9L40.4926 4.96H39.2446L36.5326 8.464V4.96H35.5006V13H36.5326V9.88L37.4086 8.8L39.2926 13ZM45.1938 13H46.2618L44.5098 4.96H42.7818L41.0178 13H42.0618L42.4218 11.164H44.8218L45.1938 13ZM42.6138 10.192L43.4418 5.968H43.7898L44.6298 10.192H42.6138Z" fill="white"/>
</svg>
