<svg width="23" height="19" viewBox="0 0 23 19" fill="none" xmlns="http://www.w3.org/2000/svg">
<g clip-path="url(#clip0_1_63)">
<path d="M9.57129 3.15002C9.58301 3.3844 9.62988 3.60999 9.71191 3.82678C9.79395 4.04358 9.90527 4.24573 10.0459 4.43323C10.1982 4.63245 10.3711 4.79944 10.5645 4.9342C10.7578 5.06897 10.9717 5.17151 11.2061 5.24182V17.2301H4.56152C4.50293 17.2301 4.44727 17.2389 4.39453 17.2565C4.3418 17.274 4.29785 17.3063 4.2627 17.3531C4.21582 17.3883 4.18359 17.4352 4.16602 17.4938C4.14844 17.5524 4.13965 17.6051 4.13965 17.652V18.2145C4.13965 18.2731 4.14844 18.3287 4.16602 18.3815C4.18359 18.4342 4.21582 18.484 4.2627 18.5309C4.29785 18.566 4.3418 18.5924 4.39453 18.61C4.44727 18.6276 4.50293 18.6364 4.56152 18.6364H19.2041C19.2627 18.6364 19.3184 18.6276 19.3711 18.61C19.4238 18.5924 19.4736 18.566 19.5205 18.5309C19.5557 18.484 19.582 18.4342 19.5996 18.3815C19.6172 18.3287 19.626 18.2731 19.626 18.2145V17.652C19.626 17.6051 19.6172 17.5524 19.5996 17.4938C19.582 17.4352 19.5557 17.3883 19.5205 17.3531C19.4736 17.3063 19.4238 17.274 19.3711 17.2565C19.3184 17.2389 19.2627 17.2301 19.2041 17.2301H12.5771V5.24182C12.6826 5.20667 12.7822 5.16565 12.876 5.11877C12.9697 5.0719 13.0635 5.01331 13.1572 4.94299C13.2627 4.87268 13.3623 4.79651 13.4561 4.71448C13.5498 4.63245 13.6318 4.5387 13.7021 4.43323C13.7842 4.33948 13.8545 4.23694 13.9131 4.12561C13.9717 4.01428 14.0186 3.89417 14.0537 3.76526C14.1006 3.67151 14.1357 3.5719 14.1592 3.46643C14.1826 3.36096 14.1943 3.25549 14.1943 3.15002H19.2041C19.2627 3.15002 19.3184 3.14124 19.3711 3.12366C19.4238 3.10608 19.4736 3.07385 19.5205 3.02698C19.5557 2.99182 19.582 2.94495 19.5996 2.88635C19.6172 2.82776 19.626 2.77502 19.626 2.72815V2.16565C19.626 2.10706 19.6172 2.05139 19.5996 1.99866C19.582 1.94592 19.5557 1.89612 19.5205 1.84924C19.4736 1.81409 19.4238 1.78772 19.3711 1.77014C19.3184 1.75256 19.2627 1.74377 19.2041 1.74377H13.8428C13.749 1.60315 13.6494 1.47424 13.5439 1.35706C13.4385 1.23987 13.3213 1.1344 13.1924 1.04065C13.0049 0.911743 12.7998 0.812134 12.5771 0.741821C12.3545 0.671509 12.126 0.636353 11.8916 0.636353C11.6455 0.636353 11.4141 0.671509 11.1973 0.741821C10.9805 0.812134 10.7783 0.911743 10.5908 1.04065H10.5732C10.4561 1.1344 10.3447 1.23987 10.2393 1.35706C10.1338 1.47424 10.0342 1.60315 9.94043 1.74377H4.56152C4.50293 1.74377 4.44727 1.75256 4.39453 1.77014C4.3418 1.78772 4.29785 1.81409 4.2627 1.84924C4.21582 1.89612 4.18359 1.94592 4.16602 1.99866C4.14844 2.05139 4.13965 2.10706 4.13965 2.16565V2.72815C4.13965 2.77502 4.14844 2.82776 4.16602 2.88635C4.18359 2.94495 4.21582 2.99182 4.2627 3.02698C4.29785 3.07385 4.3418 3.10608 4.39453 3.12366C4.44727 3.14124 4.50293 3.15002 4.56152 3.15002H9.57129ZM12.5244 2.34143C12.6299 2.43518 12.7061 2.53479 12.7529 2.64026C12.7998 2.74573 12.8232 2.86292 12.8232 2.99182C12.8232 3.12073 12.7998 3.24377 12.7529 3.36096C12.7061 3.47815 12.6299 3.58948 12.5244 3.69495C12.4424 3.77698 12.3486 3.84143 12.2432 3.88831C12.1377 3.93518 12.0205 3.95862 11.8916 3.95862C11.7627 3.95862 11.6426 3.93518 11.5312 3.88831C11.4199 3.84143 11.3115 3.77698 11.2061 3.69495C11.124 3.58948 11.0596 3.47815 11.0127 3.36096C10.9658 3.24377 10.9424 3.12073 10.9424 2.99182C10.9424 2.86292 10.9658 2.74573 11.0127 2.64026C11.0596 2.53479 11.124 2.43518 11.2061 2.34143C11.3115 2.23596 11.4199 2.15979 11.5312 2.11292C11.6426 2.06604 11.7627 2.0426 11.8916 2.0426C12.0088 2.0426 12.1201 2.06604 12.2256 2.11292C12.3311 2.15979 12.4307 2.23596 12.5244 2.34143ZM22.6494 10.3571L18.958 4.27502C18.8994 4.16956 18.8232 4.09045 18.7295 4.03772C18.6357 3.98499 18.5244 3.95862 18.3955 3.95862C18.2666 3.95862 18.1553 3.98499 18.0615 4.03772C17.9678 4.09045 17.8916 4.16956 17.833 4.27502L14.1416 10.3571C14.0479 10.4742 13.9834 10.6002 13.9482 10.735C13.9131 10.8698 13.9014 11.0016 13.9131 11.1305C13.96 11.7164 14.1035 12.2555 14.3438 12.7477C14.584 13.2399 14.9209 13.691 15.3545 14.1012C15.7764 14.5114 16.2422 14.816 16.752 15.0153C17.2617 15.2145 17.8096 15.3141 18.3955 15.3141C18.9814 15.3141 19.5293 15.2145 20.0391 15.0153C20.5488 14.816 21.0205 14.5114 21.4541 14.1012C21.876 13.691 22.207 13.2399 22.4473 12.7477C22.6875 12.2555 22.8311 11.7164 22.8779 11.1305C22.8896 11.0016 22.8779 10.8698 22.8428 10.735C22.8076 10.6002 22.7432 10.4742 22.6494 10.3571ZM21.2256 11.9918C21.1201 12.2614 20.9795 12.5045 20.8037 12.7213C20.6279 12.9381 20.417 13.1403 20.1709 13.3278C19.9131 13.527 19.6377 13.6735 19.3447 13.7672C19.0518 13.861 18.7354 13.9078 18.3955 13.9078C18.0674 13.9078 17.751 13.861 17.4463 13.7672C17.1416 13.6735 16.8545 13.527 16.585 13.3278C16.3389 13.1403 16.1279 12.9381 15.9521 12.7213C15.7764 12.5045 15.6357 12.2614 15.5303 11.9918H21.2256ZM21.2256 10.6031H15.6006L18.3955 5.9801L21.2256 10.6031ZM8.42871 14.1012C8.8623 13.691 9.19922 13.2399 9.43945 12.7477C9.67969 12.2555 9.82324 11.7164 9.87012 11.1305C9.88184 11.0016 9.86719 10.8698 9.82617 10.735C9.78516 10.6002 9.72363 10.4742 9.6416 10.3571L5.9502 4.27502C5.8916 4.16956 5.8125 4.09045 5.71289 4.03772C5.61328 3.98499 5.50488 3.95862 5.3877 3.95862C5.25879 3.95862 5.14453 3.98499 5.04492 4.03772C4.94531 4.09045 4.86621 4.16956 4.80762 4.27502L1.11621 10.3571C1.03418 10.4742 0.972656 10.6002 0.931641 10.735C0.890625 10.8698 0.875977 11.0016 0.887695 11.1305C0.93457 11.7164 1.07812 12.2555 1.31836 12.7477C1.55859 13.2399 1.89551 13.691 2.3291 14.1012C2.7627 14.5114 3.23438 14.816 3.74414 15.0153C4.25391 15.2145 4.80176 15.3141 5.3877 15.3141C5.96191 15.3141 6.50391 15.2145 7.01367 15.0153C7.52344 14.816 7.99512 14.5114 8.42871 14.1012ZM8.21777 11.9918C8.10059 12.2614 7.9541 12.5045 7.77832 12.7213C7.60254 12.9381 7.39746 13.1403 7.16309 13.3278H7.14551C6.8877 13.527 6.6123 13.6735 6.31934 13.7672C6.02637 13.861 5.71582 13.9078 5.3877 13.9078C5.04785 13.9078 4.72852 13.861 4.42969 13.7672C4.13086 13.6735 3.84668 13.527 3.57715 13.3278C3.33105 13.1403 3.12012 12.9381 2.94434 12.7213C2.76855 12.5045 2.62207 12.2614 2.50488 11.9918H8.21777ZM8.2002 10.6031H2.59277L5.3877 5.9801L8.2002 10.6031Z" fill="white"/>
</g>
<defs>
<clipPath id="clip0_1_63">
<rect width="22.02" height="18" fill="white" transform="matrix(1 0 0 -1 0.878662 18.6364)"/>
</clipPath>
</defs>
</svg>
