<svg width="6" height="19" viewBox="0 0 6 19" fill="none" xmlns="http://www.w3.org/2000/svg">
<g clip-path="url(#clip0_1_197)">
<path d="M4.70838 5.73299C4.74481 5.69136 4.77603 5.66533 4.80206 5.65493C4.82808 5.64452 4.8515 5.63931 4.87232 5.63931C4.90875 5.63931 4.94518 5.64712 4.98161 5.66273C5.01804 5.67835 5.05708 5.70697 5.09871 5.74861L5.5437 6.19359L5.55931 6.2014C5.59574 6.23263 5.62046 6.26385 5.63347 6.29508C5.64649 6.32631 5.65299 6.36014 5.65299 6.39657C5.65299 6.42779 5.64649 6.45902 5.63347 6.49025C5.62046 6.52147 5.59574 6.5527 5.55931 6.58393L5.5437 6.59174L2.53029 9.63637L5.55931 12.6888C5.59574 12.72 5.62046 12.7513 5.63347 12.7825C5.64649 12.8137 5.65299 12.8449 5.65299 12.8762C5.65299 12.9022 5.64649 12.9321 5.63347 12.9659C5.62046 12.9998 5.58794 13.0401 5.53589 13.087L5.09091 13.5319L5.0831 13.5397C5.05187 13.5762 5.02195 13.6009 4.99332 13.6139C4.9647 13.6269 4.93217 13.6334 4.89574 13.6334C4.85931 13.6334 4.82678 13.6269 4.79815 13.6139C4.76953 13.6009 4.7396 13.5762 4.70838 13.5397L4.70057 13.5319L0.984556 9.83934C0.953329 9.81332 0.93121 9.78339 0.918199 9.74957C0.905187 9.71574 0.898682 9.678 0.898682 9.63637C0.898682 9.59473 0.905187 9.557 0.918199 9.52317C0.93121 9.48934 0.953329 9.45941 0.984556 9.43339L4.70838 5.73299Z" fill="#0C061A"/>
</g>
<defs>
<clipPath id="clip0_1_197">
<rect width="5.09" height="18" fill="white" transform="matrix(1 0 0 -1 0.898682 18.6364)"/>
</clipPath>
</defs>
</svg>
