<svg width="10" height="13" viewBox="0 0 10 13" fill="none" xmlns="http://www.w3.org/2000/svg">
<g clip-path="url(#clip0_1_28)">
<path d="M4.07129 12.2656C4.11816 12.3438 4.18066 12.4023 4.25879 12.4414C4.33691 12.4805 4.43066 12.5 4.54004 12.5C4.63379 12.5 4.71973 12.4805 4.79785 12.4414C4.87598 12.4023 4.94629 12.3438 5.00879 12.2656L6.5791 10.0156C6.96191 9.45312 7.28223 8.98438 7.54004 8.60938C7.79785 8.23438 7.99316 7.94531 8.12598 7.74219C8.29785 7.46094 8.44434 7.20312 8.56543 6.96875C8.68652 6.73438 8.78223 6.52344 8.85254 6.33594C8.90723 6.14844 8.95215 5.94336 8.9873 5.7207C9.02246 5.49805 9.04004 5.25781 9.04004 5C9.04004 4.60156 8.98926 4.21484 8.8877 3.83984C8.78613 3.46484 8.63379 3.10156 8.43066 2.75C8.21973 2.41406 7.97949 2.10938 7.70996 1.83594C7.44043 1.5625 7.13379 1.32031 6.79004 1.10938C6.43848 0.914062 6.0752 0.763672 5.7002 0.658203C5.3252 0.552734 4.93848 0.5 4.54004 0.5C4.13379 0.5 3.74316 0.550781 3.36816 0.652344C2.99316 0.753906 2.63379 0.90625 2.29004 1.10938C1.93848 1.32031 1.62793 1.56055 1.3584 1.83008C1.08887 2.09961 0.852539 2.40625 0.649414 2.75C0.438477 3.10156 0.28418 3.46484 0.186523 3.83984C0.0888672 4.21484 0.0400391 4.60156 0.0400391 5C0.0400391 5.25781 0.0537109 5.49805 0.0810547 5.7207C0.108398 5.94336 0.157227 6.14844 0.227539 6.33594C0.290039 6.52344 0.379883 6.73438 0.49707 6.96875C0.614258 7.20312 0.766602 7.46094 0.954102 7.74219C1.07129 7.9375 1.25879 8.22461 1.5166 8.60352C1.77441 8.98242 2.10254 9.45312 2.50098 10.0156C2.82129 10.4688 3.11035 10.8828 3.36816 11.2578C3.62598 11.6328 3.86035 11.9688 4.07129 12.2656ZM4.54004 6.875C4.28223 6.875 4.04199 6.83203 3.81934 6.74609C3.59668 6.66016 3.3916 6.52344 3.2041 6.33594C3.0166 6.14844 2.87988 5.94336 2.79395 5.7207C2.70801 5.49805 2.66504 5.25781 2.66504 5C2.66504 4.74219 2.70801 4.50586 2.79395 4.29102C2.87988 4.07617 3.0166 3.875 3.2041 3.6875C3.3916 3.5 3.59668 3.35938 3.81934 3.26562C4.04199 3.17188 4.28223 3.125 4.54004 3.125C4.79785 3.125 5.03418 3.17188 5.24902 3.26562C5.46387 3.35938 5.66504 3.5 5.85254 3.6875C6.04004 3.875 6.18066 4.07617 6.27441 4.29102C6.36816 4.50586 6.41504 4.74219 6.41504 5C6.41504 5.25781 6.36816 5.49805 6.27441 5.7207C6.18066 5.94336 6.04004 6.14844 5.85254 6.33594C5.66504 6.52344 5.46387 6.66016 5.24902 6.74609C5.03418 6.83203 4.79785 6.875 4.54004 6.875Z" fill="white"/>
</g>
<defs>
<clipPath id="clip0_1_28">
<rect width="9" height="12" fill="white" transform="matrix(1 0 0 -1 0.0400391 12.5)"/>
</clipPath>
</defs>
</svg>
