<svg width="10" height="13" viewBox="0 0 10 13" fill="none" xmlns="http://www.w3.org/2000/svg">
<g clip-path="url(#clip0_1_28)">
<path d="M4.35986 12.402C4.40674 12.4801 4.46924 12.5387 4.54736 12.5778C4.62549 12.6168 4.71924 12.6364 4.82861 12.6364C4.92236 12.6364 5.0083 12.6168 5.08643 12.5778C5.16455 12.5387 5.23486 12.4801 5.29736 12.402L6.86768 10.152C7.25049 9.58948 7.5708 9.12073 7.82861 8.74573C8.08643 8.37073 8.28174 8.08167 8.41455 7.87854C8.58643 7.59729 8.73291 7.33948 8.854 7.1051C8.9751 6.87073 9.0708 6.65979 9.14111 6.47229C9.1958 6.28479 9.24072 6.07971 9.27588 5.85706C9.31104 5.6344 9.32861 5.39417 9.32861 5.13635C9.32861 4.73792 9.27783 4.3512 9.17627 3.9762C9.07471 3.6012 8.92236 3.23792 8.71924 2.88635C8.5083 2.55042 8.26807 2.24573 7.99854 1.97229C7.729 1.69885 7.42236 1.45667 7.07861 1.24573C6.72705 1.05042 6.36377 0.900024 5.98877 0.794556C5.61377 0.689087 5.22705 0.636353 4.82861 0.636353C4.42236 0.636353 4.03174 0.687134 3.65674 0.788696C3.28174 0.890259 2.92236 1.0426 2.57861 1.24573C2.22705 1.45667 1.9165 1.6969 1.64697 1.96643C1.37744 2.23596 1.14111 2.5426 0.937988 2.88635C0.727051 3.23792 0.572754 3.6012 0.475098 3.9762C0.377441 4.3512 0.328613 4.73792 0.328613 5.13635C0.328613 5.39417 0.342285 5.6344 0.369629 5.85706C0.396973 6.07971 0.445801 6.28479 0.516113 6.47229C0.578613 6.65979 0.668457 6.87073 0.785645 7.1051C0.902832 7.33948 1.05518 7.59729 1.24268 7.87854C1.35986 8.07385 1.54736 8.36096 1.80518 8.73987C2.06299 9.11877 2.39111 9.58948 2.78955 10.152C3.10986 10.6051 3.39893 11.0192 3.65674 11.3942C3.91455 11.7692 4.14893 12.1051 4.35986 12.402ZM4.82861 7.01135C4.5708 7.01135 4.33057 6.96838 4.10791 6.88245C3.88525 6.79651 3.68018 6.65979 3.49268 6.47229C3.30518 6.28479 3.16846 6.07971 3.08252 5.85706C2.99658 5.6344 2.95361 5.39417 2.95361 5.13635C2.95361 4.87854 2.99658 4.64221 3.08252 4.42737C3.16846 4.21252 3.30518 4.01135 3.49268 3.82385C3.68018 3.63635 3.88525 3.49573 4.10791 3.40198C4.33057 3.30823 4.5708 3.26135 4.82861 3.26135C5.08643 3.26135 5.32275 3.30823 5.5376 3.40198C5.75244 3.49573 5.95361 3.63635 6.14111 3.82385C6.32861 4.01135 6.46924 4.21252 6.56299 4.42737C6.65674 4.64221 6.70361 4.87854 6.70361 5.13635C6.70361 5.39417 6.65674 5.6344 6.56299 5.85706C6.46924 6.07971 6.32861 6.28479 6.14111 6.47229C5.95361 6.65979 5.75244 6.79651 5.5376 6.88245C5.32275 6.96838 5.08643 7.01135 4.82861 7.01135Z" fill="white"/>
</g>
<defs>
<clipPath id="clip0_1_28">
<rect width="9" height="12" fill="white" transform="matrix(1 0 0 -1 0.328613 12.6364)"/>
</clipPath>
</defs>
</svg>
