<svg width="58" height="20" viewBox="0 0 58 20" fill="none" xmlns="http://www.w3.org/2000/svg">
<g id="icon_76_uk.svg" clip-path="url(#clip0_1_352)">
<path id="Vector" d="M1.16882 5.41401C1.16882 2.49918 3.53176 0.13623 6.4466 0.13623H51.8355C54.7504 0.13623 57.1133 2.49918 57.1133 5.41401V13.8585C57.1133 16.7733 54.7504 19.1362 51.8355 19.1362H6.4466C3.53176 19.1362 1.16882 16.7733 1.16882 13.8585V5.41401Z" fill="#BB6BD9"/>
<path id="Vector_2" d="M11.7962 9.55181C12.5182 9.13381 12.8602 8.50048 12.8602 7.62648V7.53781C12.8602 6.18248 11.8722 5.25781 10.4154 5.25781C8.93344 5.25781 7.92011 6.29648 7.92011 7.79115V8.51315H9.00944V7.81648C9.00944 6.85381 9.50344 6.30915 10.3648 6.30915C11.1881 6.30915 11.7455 6.80315 11.7455 7.58848V7.68981C11.7455 8.52581 11.3274 9.08315 10.5421 9.08315H9.93411V10.0965H10.5421C11.3908 10.0965 11.8215 10.6285 11.8215 11.4645V11.5405C11.8215 12.4018 11.3148 12.9211 10.4281 12.9211C9.52878 12.9211 8.95878 12.3511 8.95878 11.4265V10.7678H7.89478V11.5025C7.89478 12.9718 8.90811 13.9851 10.4028 13.9851C11.9228 13.9851 12.9488 13.0225 12.9488 11.5531V11.4391C12.9488 10.6158 12.4675 9.88115 11.7962 9.55181ZM18.5437 5.37181V9.04515H15.5417V5.37181H14.427V13.8585H15.5417V10.1345H18.5437V13.8585H19.6457V5.37181H18.5437ZM21.5891 13.8585H22.6151L25.7437 7.67715L25.6931 11.0591V13.8585H26.8077V5.37181H25.7944L22.6657 11.5531L22.7164 8.17115V5.37181H21.5891V13.8585ZM37.3012 5.37181H36.0092L33.1972 8.93115V5.37181H32.0952V8.88048L29.3086 5.37181H27.9912L30.4359 8.37381L28.0292 13.8585H29.2579L31.1959 9.27315L32.0952 10.3498V13.8585H33.1972V10.3498L34.0839 9.29848L36.0219 13.8585H37.2632L34.8692 8.39915L37.3012 5.37181ZM42.4642 13.8585H43.7435L41.2735 8.47515L43.7308 5.37181H42.4135L39.5508 9.07048V5.37181H38.4615V13.8585H39.5508V10.5651L40.4755 9.42515L42.4642 13.8585ZM48.6932 13.8585H49.8205L47.9712 5.37181H46.1472L44.2852 13.8585H45.3872L45.7672 11.9205H48.3005L48.6932 13.8585ZM45.9699 10.8945L46.8439 6.43581H47.2112L48.0979 10.8945H45.9699Z" fill="white"/>
</g>
<defs>
<clipPath id="clip0_1_352">
<rect width="57" height="19" fill="white" transform="translate(0.988647 0.13623)"/>
</clipPath>
</defs>
</svg>
