<svg width="21" height="21" viewBox="0 0 21 21" fill="none" xmlns="http://www.w3.org/2000/svg">
<g clip-path="url(#clip0_1_68)">
<path d="M17.9033 3.09668C18.4229 3.60254 18.874 4.13574 19.2568 4.69629C19.6533 5.25684 19.978 5.84814 20.231 6.47021C20.4839 7.09229 20.6787 7.73828 20.8154 8.4082C20.9385 9.07812 21 9.77539 21 10.5C21 11.2246 20.9385 11.9219 20.8154 12.5918C20.6787 13.2754 20.4839 13.9282 20.231 14.5503C19.978 15.1724 19.6533 15.7637 19.2568 16.3242C18.874 16.8984 18.4229 17.4385 17.9033 17.9443C17.3975 18.4639 16.8643 18.9082 16.3037 19.2773C15.7432 19.6602 15.1553 19.978 14.54 20.231C13.9248 20.4839 13.2754 20.6787 12.5918 20.8154C11.9219 20.9385 11.2246 21 10.5 21C9.77539 21 9.07812 20.9385 8.4082 20.8154C7.72461 20.6787 7.07178 20.4839 6.44971 20.231C5.82764 19.978 5.23633 19.6602 4.67578 19.2773C4.10156 18.9082 3.56152 18.4639 3.05566 17.9443C2.53613 17.4385 2.0918 16.8984 1.72266 16.3242C1.33984 15.7637 1.02197 15.1724 0.769043 14.5503C0.516113 13.9282 0.321289 13.2754 0.18457 12.5918C0.0615234 11.9219 0 11.2246 0 10.5C0 9.77539 0.0615234 9.07812 0.18457 8.4082C0.321289 7.72461 0.516113 7.0752 0.769043 6.45996C1.02197 5.84473 1.33984 5.25684 1.72266 4.69629C2.0918 4.13574 2.53613 3.60254 3.05566 3.09668C3.56152 2.57715 4.10156 2.12598 4.67578 1.74316C5.23633 1.34668 5.82764 1.02197 6.44971 0.769043C7.07178 0.516113 7.72461 0.321289 8.4082 0.18457C9.07812 0.0615234 9.77539 0 10.5 0C11.2246 0 11.9219 0.0615234 12.5918 0.18457C13.2617 0.321289 13.9077 0.516113 14.5298 0.769043C15.1519 1.02197 15.7432 1.34668 16.3037 1.74316C16.8643 2.12598 17.3975 2.57715 17.9033 3.09668ZM4.32715 16.6729C4.75098 17.0967 5.20215 17.4658 5.68066 17.7803C6.14551 18.0947 6.63428 18.3579 7.14697 18.5698C7.65967 18.7817 8.19629 18.9355 8.75684 19.0312C9.31738 19.1406 9.89844 19.1953 10.5 19.1953C11.1016 19.1953 11.6826 19.1406 12.2432 19.0312C12.79 18.9355 13.3198 18.7817 13.8325 18.5698C14.3452 18.3579 14.834 18.0947 15.2988 17.7803C15.7637 17.4658 16.208 17.0967 16.6318 16.6729C17.0557 16.249 17.4316 15.7979 17.7598 15.3193C18.0742 14.8545 18.3374 14.3657 18.5493 13.853C18.7612 13.3403 18.9219 12.8037 19.0312 12.2432C19.1406 11.6826 19.1953 11.1016 19.1953 10.5C19.1953 9.89844 19.1406 9.31738 19.0312 8.75684C18.9219 8.20996 18.7612 7.68018 18.5493 7.16748C18.3374 6.65479 18.0742 6.16602 17.7598 5.70117C17.4316 5.23633 17.0557 4.79199 16.6318 4.36816C16.208 3.94434 15.7637 3.56836 15.2988 3.24023C14.834 2.92578 14.3452 2.6626 13.8325 2.45068C13.3198 2.23877 12.79 2.07812 12.2432 1.96875C11.6826 1.85938 11.1016 1.80469 10.5 1.80469C9.89844 1.80469 9.31738 1.85938 8.75684 1.96875C8.19629 2.07812 7.65967 2.23877 7.14697 2.45068C6.63428 2.6626 6.14551 2.92578 5.68066 3.24023C5.20215 3.56836 4.75098 3.94434 4.32715 4.36816C3.90332 4.79199 3.53418 5.23633 3.21973 5.70117C2.90527 6.16602 2.64209 6.65479 2.43018 7.16748C2.21826 7.68018 2.06445 8.20996 1.96875 8.75684C1.85938 9.31738 1.80469 9.89844 1.80469 10.5C1.80469 11.1016 1.85938 11.6826 1.96875 12.2432C2.06445 12.8037 2.21826 13.3403 2.43018 13.853C2.64209 14.3657 2.90527 14.8545 3.21973 15.3193C3.53418 15.7979 3.90332 16.249 4.32715 16.6729ZM12.5918 6.62402H10.8486L8.24414 10.7051L10.8486 14.7656H12.5918L9.9873 10.7051L12.5918 6.62402ZM15.4834 6.62402H13.7402L11.1152 10.7051L13.7402 14.7656H15.4834L12.8584 10.7051L15.4834 6.62402ZM5.5166 6.62402H7.3418V14.7656H5.5166V6.62402Z" fill="white"/>
</g>
<defs>
<clipPath id="clip0_1_68">
<rect width="21" height="21" fill="white" transform="matrix(1 0 0 -1 0 21)"/>
</clipPath>
</defs>
</svg>
