<svg width="13" height="13" viewBox="0 0 13 13" fill="none" xmlns="http://www.w3.org/2000/svg">
<g clip-path="url(#clip0_1_24)">
<path d="M12.4467 5.83948C12.5873 5.93323 12.6927 6.04651 12.7631 6.17932C12.8334 6.31213 12.8685 6.46448 12.8685 6.63635C12.8685 6.80042 12.8334 6.9469 12.7631 7.07581C12.6927 7.20471 12.5873 7.31604 12.4467 7.40979L11.0404 8.37073L11.3685 10.0348C11.3998 10.1989 11.3939 10.3512 11.351 10.4918C11.308 10.6324 11.2279 10.7614 11.1107 10.8785C10.9935 10.9957 10.8646 11.0758 10.724 11.1188C10.5834 11.1617 10.431 11.1676 10.267 11.1364L8.60291 10.8082L7.66541 12.2145C7.56384 12.3551 7.4447 12.4606 7.30798 12.5309C7.17126 12.6012 7.01697 12.6364 6.84509 12.6364C6.68103 12.6364 6.53455 12.6012 6.40564 12.5309C6.27673 12.4606 6.16541 12.3551 6.07166 12.2145L5.13416 10.8082L3.47009 11.1364C3.30603 11.1676 3.15369 11.1617 3.01306 11.1188C2.87244 11.0758 2.74353 10.9957 2.62634 10.8785C2.50916 10.7614 2.42908 10.6305 2.38611 10.486C2.34314 10.3414 2.33728 10.1832 2.36853 10.0114L2.69666 8.37073L1.29041 7.40979C1.14978 7.31604 1.04431 7.20471 0.973999 7.07581C0.903687 6.9469 0.86853 6.80042 0.86853 6.63635C0.86853 6.46448 0.903687 6.31213 0.973999 6.17932C1.04431 6.04651 1.14978 5.93323 1.29041 5.83948L2.69666 4.87854L2.36853 3.21448C2.33728 3.05042 2.34314 2.89807 2.38611 2.75745C2.42908 2.61682 2.50916 2.48792 2.62634 2.37073C2.74353 2.25354 2.87244 2.17346 3.01306 2.13049C3.15369 2.08752 3.30603 2.08167 3.47009 2.11292L5.13416 2.44104L6.07166 1.03479C6.16541 0.901978 6.27869 0.802368 6.4115 0.735962C6.54431 0.669556 6.69666 0.636353 6.86853 0.636353C7.04041 0.636353 7.19275 0.669556 7.32556 0.735962C7.45837 0.802368 7.57166 0.901978 7.66541 1.03479L8.60291 2.44104L10.267 2.11292C10.431 2.08167 10.5834 2.08752 10.724 2.13049C10.8646 2.17346 10.9935 2.25354 11.1107 2.37073C11.2279 2.48792 11.308 2.61682 11.351 2.75745C11.3939 2.89807 11.3998 3.05042 11.3685 3.21448L11.0404 4.87854L12.4467 5.83948ZM9.79822 7.8551L11.6029 6.61292L9.79822 5.39417L10.2201 3.26135L8.08728 3.68323L6.86853 1.87854L5.64978 3.68323L3.51697 3.26135L3.93884 5.39417L2.13416 6.61292L3.93884 7.83167L3.51697 9.98792L5.64978 9.56604L6.86853 11.3707L8.08728 9.56604L10.2201 9.98792L9.79822 7.8551ZM5.13416 4.92542C5.37634 4.68323 5.64197 4.50159 5.93103 4.38049C6.22009 4.2594 6.53259 4.19885 6.86853 4.19885C7.20447 4.19885 7.51501 4.2594 7.80017 4.38049C8.08533 4.50159 8.34509 4.68323 8.57947 4.92542C8.82166 5.15979 9.0033 5.41956 9.12439 5.70471C9.24548 5.98987 9.30603 6.30042 9.30603 6.63635C9.30603 6.97229 9.24548 7.28479 9.12439 7.57385C9.0033 7.86292 8.82166 8.12854 8.57947 8.37073C8.34509 8.6051 8.08533 8.78088 7.80017 8.89807C7.51501 9.01526 7.20447 9.07385 6.86853 9.07385C6.53259 9.07385 6.22009 9.01526 5.93103 8.89807C5.64197 8.78088 5.37634 8.6051 5.13416 8.37073C4.89978 8.12854 4.724 7.86292 4.60681 7.57385C4.48962 7.28479 4.43103 6.97229 4.43103 6.63635C4.43103 6.30042 4.48962 5.98987 4.60681 5.70471C4.724 5.41956 4.89978 5.15979 5.13416 4.92542ZM5.93103 7.57385C6.06384 7.69885 6.20837 7.7926 6.36462 7.8551C6.52087 7.9176 6.68884 7.94885 6.86853 7.94885C7.04822 7.94885 7.21423 7.9176 7.36658 7.8551C7.51892 7.7926 7.65759 7.69885 7.78259 7.57385C7.91541 7.44104 8.01501 7.29651 8.08142 7.14026C8.14783 6.98401 8.18103 6.81604 8.18103 6.63635C8.18103 6.45667 8.14783 6.29065 8.08142 6.13831C8.01501 5.98596 7.91541 5.84729 7.78259 5.72229C7.65759 5.58948 7.51892 5.48987 7.36658 5.42346C7.21423 5.35706 7.04822 5.32385 6.86853 5.32385C6.68884 5.32385 6.52087 5.35706 6.36462 5.42346C6.20837 5.48987 6.06384 5.58948 5.93103 5.72229C5.80603 5.84729 5.71228 5.98596 5.64978 6.13831C5.58728 6.29065 5.55603 6.45667 5.55603 6.63635C5.55603 6.81604 5.58728 6.98401 5.64978 7.14026C5.71228 7.29651 5.80603 7.44104 5.93103 7.57385Z" fill="white"/>
</g>
<defs>
<clipPath id="clip0_1_24">
<rect width="12" height="12" fill="white" transform="matrix(1 0 0 -1 0.86853 12.6364)"/>
</clipPath>
</defs>
</svg>
