<svg width="8" height="12" viewBox="0 0 8 12" fill="none" xmlns="http://www.w3.org/2000/svg">
<g clip-path="url(#clip0_1_152)">
<path d="M1.77661 11.5074C1.72648 11.5647 1.68351 11.6005 1.64771 11.6149C1.6119 11.6292 1.57967 11.6364 1.55103 11.6364C1.5009 11.6364 1.45076 11.6256 1.40063 11.6041C1.3505 11.5826 1.29321 11.5433 1.22876 11.486L0.616455 10.8737L0.605713 10.8629C0.555583 10.8199 0.521566 10.777 0.503662 10.734C0.485758 10.691 0.476807 10.6445 0.476807 10.5944C0.476807 10.5514 0.485758 10.5084 0.503662 10.4655C0.521566 10.4225 0.555583 10.3795 0.605713 10.3365L0.616455 10.3258L4.76294 6.13635L0.605713 1.93616C0.555583 1.89319 0.521566 1.85022 0.503662 1.80725C0.485758 1.76428 0.476807 1.72131 0.476807 1.67834C0.476807 1.64254 0.485758 1.60136 0.503662 1.55481C0.521566 1.50826 0.562744 1.45276 0.627197 1.38831L1.2395 0.776001L1.25024 0.765259C1.29321 0.715129 1.33618 0.681112 1.37915 0.663208C1.42212 0.645304 1.46867 0.636353 1.5188 0.636353C1.56177 0.636353 1.60474 0.645304 1.64771 0.663208C1.69067 0.681112 1.73364 0.715129 1.77661 0.765259L1.78735 0.776001L6.90063 5.85706C6.93644 5.89286 6.96509 5.93404 6.98657 5.98059C7.00806 6.02714 7.0188 6.07906 7.0188 6.13635C7.0188 6.19364 7.00806 6.24556 6.98657 6.29211C6.96509 6.33866 6.93644 6.37984 6.90063 6.41565L1.77661 11.5074Z" fill="white"/>
</g>
<defs>
<clipPath id="clip0_1_152">
<rect width="7.02" height="11" fill="white" transform="matrix(1 0 0 -1 0.46875 11.6364)"/>
</clipPath>
</defs>
</svg>
