<svg width="13" height="13" viewBox="0 0 13 13" fill="none" xmlns="http://www.w3.org/2000/svg">
<path d="M9.4834 5.92871C9.56803 6.01335 9.63363 6.11068 9.68018 6.2207C9.72673 6.33073 9.75 6.44922 9.75 6.57617C9.75 6.70312 9.72673 6.8195 9.68018 6.92529C9.63363 7.03109 9.56803 7.13053 9.4834 7.22363L5.59863 11.1084C5.514 11.193 5.41667 11.2586 5.30664 11.3052C5.19661 11.3517 5.07812 11.375 4.95117 11.375C4.82422 11.375 4.70785 11.3517 4.60205 11.3052C4.49626 11.2586 4.39681 11.193 4.30371 11.1084L0.266602 7.07129C0.173503 6.98665 0.105794 6.88932 0.0634766 6.7793C0.0211589 6.66927 0 6.55078 0 6.42383V2.53906C0 2.41211 0.0211589 2.29574 0.0634766 2.18994C0.105794 2.08415 0.173503 1.9847 0.266602 1.8916C0.351237 1.80697 0.448568 1.74137 0.558594 1.69482C0.66862 1.64827 0.787109 1.625 0.914062 1.625H4.79883C4.92578 1.625 5.04215 1.64616 5.14795 1.68848C5.25374 1.73079 5.35319 1.7985 5.44629 1.8916L9.4834 5.92871ZM4.95117 10.4609L8.83594 6.57617L4.79883 2.53906H0.914062V6.42383L4.95117 10.4609ZM3.38965 3.71973C3.47428 3.81283 3.53988 3.91227 3.58643 4.01807C3.63298 4.12386 3.65625 4.24023 3.65625 4.36719C3.65625 4.49414 3.63509 4.61051 3.59277 4.71631C3.55046 4.8221 3.48275 4.92155 3.38965 5.01465C3.29655 5.09928 3.1971 5.16488 3.09131 5.21143C2.98551 5.25798 2.86914 5.28125 2.74219 5.28125C2.61523 5.28125 2.49886 5.26009 2.39307 5.21777C2.28727 5.17546 2.18783 5.10775 2.09473 5.01465C2.01009 4.92155 1.9445 4.8221 1.89795 4.71631C1.8514 4.61051 1.82812 4.49414 1.82812 4.36719C1.82812 4.24023 1.84928 4.12386 1.8916 4.01807C1.93392 3.91227 2.00163 3.81283 2.09473 3.71973C2.18783 3.63509 2.28727 3.5695 2.39307 3.52295C2.49886 3.4764 2.61523 3.45312 2.74219 3.45312C2.86914 3.45312 2.98551 3.47428 3.09131 3.5166C3.1971 3.55892 3.29655 3.62663 3.38965 3.71973Z" fill="white"/>
</svg>
