<svg width="14" height="14" viewBox="0 0 14 14" fill="none" xmlns="http://www.w3.org/2000/svg">
<g clip-path="url(#clip0_1_54)">
<path d="M13.1544 12.5319C13.2306 12.5996 13.2687 12.6694 13.2687 12.7413C13.2687 12.8133 13.2306 12.8873 13.1544 12.9635L12.5958 13.5221C12.5197 13.5983 12.4456 13.6364 12.3737 13.6364C12.3017 13.6364 12.2319 13.5983 12.1642 13.5221L9.09192 10.4498C9.05806 10.416 9.03267 10.3821 9.01575 10.3483C8.99882 10.3144 8.99036 10.2806 8.99036 10.2467C8.99036 10.179 8.95862 10.1303 8.89514 10.1007C8.83167 10.0711 8.77454 10.0774 8.72375 10.1198C8.25826 10.4752 7.76103 10.7418 7.23206 10.9196C6.70308 11.0973 6.14237 11.1862 5.54993 11.1862C4.82206 11.1862 4.14709 11.0571 3.52502 10.799C2.90295 10.5408 2.33378 10.1536 1.8175 9.63733C1.30123 9.12105 0.914022 8.554 0.655884 7.93616C0.397746 7.31832 0.268677 6.64547 0.268677 5.9176C0.268677 5.18974 0.397746 4.51477 0.655884 3.8927C0.914022 3.27063 1.30123 2.70146 1.8175 2.18518C2.33378 1.6689 2.90295 1.2817 3.52502 1.02356C4.14709 0.765422 4.82206 0.636353 5.54993 0.636353C6.27779 0.636353 6.95064 0.765422 7.56848 1.02356C8.18632 1.2817 8.75338 1.6689 9.26965 2.18518C9.78593 2.70146 10.1731 3.27063 10.4313 3.8927C10.6894 4.51477 10.8185 5.18974 10.8185 5.9176C10.8185 6.51005 10.7296 7.07076 10.5519 7.59973C10.3741 8.1287 10.1075 8.62594 9.75208 9.09143C9.70976 9.14221 9.70341 9.19934 9.73303 9.26282C9.76265 9.32629 9.81132 9.35803 9.87903 9.35803C9.87903 9.35803 9.88114 9.35803 9.88538 9.35803C9.88961 9.35803 9.89172 9.35803 9.89172 9.35803C9.9679 9.35803 10.0335 9.38977 10.0885 9.45325C10.1435 9.51672 10.1964 9.57385 10.2472 9.62463L13.1544 12.5319ZM2.68079 8.77405C3.07857 9.17183 3.51656 9.47017 3.99475 9.66907C4.47294 9.86796 4.99133 9.96741 5.54993 9.96741C6.10852 9.96741 6.6248 9.86796 7.09875 9.66907C7.57271 9.47017 8.00859 9.17183 8.40637 8.77405C8.80416 8.37626 9.1025 7.94039 9.30139 7.46643C9.50029 6.99247 9.59973 6.4762 9.59973 5.9176C9.59973 5.35901 9.50029 4.84062 9.30139 4.36243C9.1025 3.88424 8.80416 3.44625 8.40637 3.04846C8.00859 2.65068 7.57271 2.35234 7.09875 2.15344C6.6248 1.95455 6.10852 1.8551 5.54993 1.8551C4.99133 1.8551 4.47294 1.95455 3.99475 2.15344C3.51656 2.35234 3.07857 2.65068 2.68079 3.04846C2.283 3.44625 1.98466 3.88424 1.78577 4.36243C1.58687 4.84062 1.48743 5.35901 1.48743 5.9176C1.48743 6.4762 1.58687 6.99247 1.78577 7.46643C1.98466 7.94039 2.283 8.37626 2.68079 8.77405Z" fill="white"/>
</g>
<defs>
<clipPath id="clip0_1_54">
<rect width="13" height="13" fill="white" transform="matrix(1 0 0 -1 0.268677 13.6364)"/>
</clipPath>
</defs>
</svg>
