<svg width="17" height="15" viewBox="0 0 17 15" fill="none" xmlns="http://www.w3.org/2000/svg">
<g clip-path="url(#clip0_1_443)">
<path d="M15.4946 2.83667C15.5949 2.83667 15.6838 2.8549 15.7612 2.89136C15.8387 2.92782 15.9093 2.98706 15.9731 3.06909C16.0461 3.15112 16.0939 3.23543 16.1167 3.32202C16.1395 3.40861 16.1372 3.50203 16.1099 3.60229L14.8931 9.1394C14.8748 9.20321 14.8452 9.26701 14.8042 9.33081C14.7632 9.39461 14.7108 9.45386 14.647 9.50854C14.6014 9.55412 14.5467 9.58602 14.4829 9.60425C14.4191 9.62248 14.3507 9.63159 14.2778 9.63159H6.62158C6.41195 9.63159 6.24333 9.71134 6.11572 9.87085C5.98812 10.0304 5.94255 10.2104 5.979 10.4109C6.01546 10.5567 6.09294 10.6775 6.21143 10.7732C6.32992 10.8689 6.46663 10.9167 6.62158 10.9167H13.7036C13.8039 10.9167 13.895 10.9373 13.9771 10.9783C14.0591 11.0193 14.132 11.0763 14.1958 11.1492C14.2687 11.2312 14.3166 11.3155 14.3394 11.4021C14.3621 11.4887 14.3599 11.5821 14.3325 11.6824C14.3234 11.7279 14.3257 11.7712 14.3394 11.8123C14.353 11.8533 14.3735 11.8875 14.4009 11.9148C14.5467 12.0697 14.6561 12.2429 14.729 12.4343C14.8019 12.6257 14.8384 12.8263 14.8384 13.0359C14.8384 13.282 14.7974 13.503 14.7153 13.699C14.6333 13.8949 14.5057 14.075 14.3325 14.239C14.1685 14.4031 13.9862 14.5284 13.7856 14.615C13.5851 14.7016 13.3618 14.7449 13.1157 14.7449C12.8696 14.7449 12.644 14.7016 12.439 14.615C12.2339 14.5284 12.0448 14.4031 11.8716 14.239C11.7075 14.075 11.5845 13.8949 11.5024 13.699C11.4204 13.503 11.3794 13.282 11.3794 13.0359C11.3794 12.8445 11.3201 12.6554 11.2017 12.4685C11.0832 12.2817 10.9237 12.1882 10.7231 12.1882H8.59033C8.38981 12.1882 8.22803 12.2817 8.10498 12.4685C7.98193 12.6554 7.92041 12.8445 7.92041 13.0359C7.92041 13.282 7.87939 13.503 7.79736 13.699C7.71533 13.8949 7.58773 14.075 7.41455 14.239C7.25049 14.4031 7.0682 14.5284 6.86768 14.615C6.66715 14.7016 6.44385 14.7449 6.19775 14.7449C5.95166 14.7449 5.72607 14.7016 5.521 14.615C5.31592 14.5284 5.12679 14.4031 4.95361 14.239C4.78955 14.075 4.66878 13.8949 4.59131 13.699C4.51383 13.503 4.4751 13.282 4.4751 13.0359C4.4751 12.9903 4.4751 12.947 4.4751 12.906C4.4751 12.865 4.47966 12.8217 4.48877 12.7761C4.53434 12.4571 4.60498 12.1358 4.70068 11.8123C4.79639 11.4887 4.81234 11.1674 4.74854 10.8484L3.38135 3.97144C3.2902 3.51571 3.06234 3.14201 2.69775 2.85034C2.33317 2.55867 1.9139 2.41284 1.43994 2.41284H0.906738C0.797363 2.41284 0.715332 2.3855 0.660645 2.33081C0.605957 2.27612 0.578613 2.19409 0.578613 2.08472V1.45581C0.578613 1.34644 0.605957 1.2644 0.660645 1.20972C0.715332 1.15503 0.797363 1.12769 0.906738 1.12769H3.6001C3.62744 1.12769 3.65479 1.12996 3.68213 1.13452C3.70947 1.13908 3.73226 1.14592 3.75049 1.15503C3.80518 1.16414 3.85758 1.18009 3.90771 1.20288C3.95784 1.22567 4.00114 1.25529 4.0376 1.29175C4.04671 1.30998 4.06038 1.32593 4.07861 1.3396C4.09684 1.35327 4.11051 1.37378 4.11963 1.40112C4.12874 1.41935 4.14014 1.43758 4.15381 1.45581C4.16748 1.47404 4.18343 1.49227 4.20166 1.5105C4.21989 1.55607 4.23584 1.59937 4.24951 1.64038C4.26318 1.6814 4.27002 1.72469 4.27002 1.77026C4.33382 2.08016 4.48649 2.33537 4.72803 2.53589C4.96956 2.73641 5.24984 2.83667 5.56885 2.83667H15.4946ZM5.73291 13.4871C5.79671 13.5509 5.86735 13.5987 5.94482 13.6306C6.0223 13.6625 6.10661 13.6785 6.19775 13.6785C6.2889 13.6785 6.37321 13.6625 6.45068 13.6306C6.52816 13.5987 6.5988 13.5509 6.6626 13.4871C6.7264 13.4324 6.77197 13.3663 6.79932 13.2888C6.82666 13.2113 6.84033 13.127 6.84033 13.0359C6.84033 12.9539 6.82666 12.8741 6.79932 12.7966C6.77197 12.7192 6.7264 12.6485 6.6626 12.5847C6.5988 12.5209 6.52816 12.4753 6.45068 12.448C6.37321 12.4207 6.2889 12.407 6.19775 12.407C6.10661 12.407 6.0223 12.4207 5.94482 12.448C5.86735 12.4753 5.79671 12.5209 5.73291 12.5847C5.66911 12.6485 5.62354 12.7192 5.59619 12.7966C5.56885 12.8741 5.55518 12.9539 5.55518 13.0359C5.55518 13.127 5.56885 13.2113 5.59619 13.2888C5.62354 13.3663 5.66911 13.4324 5.73291 13.4871ZM12.6509 13.4871C12.7147 13.5509 12.7853 13.5987 12.8628 13.6306C12.9403 13.6625 13.0246 13.6785 13.1157 13.6785C13.2069 13.6785 13.2912 13.6625 13.3687 13.6306C13.4461 13.5987 13.5122 13.5509 13.5669 13.4871C13.6307 13.4324 13.6785 13.3663 13.7104 13.2888C13.7424 13.2113 13.7583 13.127 13.7583 13.0359C13.7583 12.9539 13.7424 12.8741 13.7104 12.7966C13.6785 12.7192 13.6307 12.6485 13.5669 12.5847C13.5122 12.5209 13.4461 12.4753 13.3687 12.448C13.2912 12.4207 13.2069 12.407 13.1157 12.407C13.0246 12.407 12.9403 12.4207 12.8628 12.448C12.7853 12.4753 12.7147 12.5209 12.6509 12.5847C12.5871 12.6485 12.5392 12.7192 12.5073 12.7966C12.4754 12.8741 12.4595 12.9539 12.4595 13.0359C12.4595 13.127 12.4754 13.2113 12.5073 13.2888C12.5392 13.3663 12.5871 13.4324 12.6509 13.4871Z" fill="white"/>
</g>
<defs>
<clipPath id="clip0_1_443">
<rect width="15.75" height="14" fill="white" transform="matrix(1 0 0 -1 0.578613 14.9363)"/>
</clipPath>
</defs>
</svg>
