<svg width="11" height="7" viewBox="0 0 11 7" fill="none" xmlns="http://www.w3.org/2000/svg">
<g clip-path="url(#clip0_1_16)">
<path d="M10.2605 1.19299C10.3152 1.26331 10.3425 1.33167 10.3425 1.39807C10.3425 1.46448 10.3152 1.52893 10.2605 1.59143L5.71948 6.5426C5.66089 6.6051 5.60229 6.63635 5.5437 6.63635C5.48511 6.63635 5.42847 6.6051 5.37378 6.5426L0.832764 1.59143C0.77417 1.52893 0.744873 1.46448 0.744873 1.39807C0.744873 1.33167 0.77417 1.26331 0.832764 1.19299L1.26636 0.741821C1.32104 0.671509 1.37964 0.636353 1.44214 0.636353C1.50464 0.636353 1.56714 0.671509 1.62964 0.741821L5.5437 4.98401L9.45776 0.741821C9.52417 0.671509 9.58765 0.636353 9.64819 0.636353C9.70874 0.636353 9.76831 0.671509 9.8269 0.741821L10.2605 1.19299Z" fill="white"/>
</g>
<defs>
<clipPath id="clip0_1_16">
<rect width="9.61" height="6" fill="white" transform="matrix(1 0 0 -1 0.738647 6.63635)"/>
</clipPath>
</defs>
</svg>
