<svg width="11" height="7" viewBox="0 0 11 7" fill="none" xmlns="http://www.w3.org/2000/svg">
<g clip-path="url(#clip0_1_32)">
<path d="M10.1804 1.19299C10.2351 1.26331 10.2625 1.33167 10.2625 1.39807C10.2625 1.46448 10.2351 1.52893 10.1804 1.59143L5.6394 6.5426C5.58081 6.6051 5.52222 6.63635 5.46362 6.63635C5.40503 6.63635 5.34839 6.6051 5.2937 6.5426L0.752686 1.59143C0.694092 1.52893 0.664795 1.46448 0.664795 1.39807C0.664795 1.33167 0.694092 1.26331 0.752686 1.19299L1.18628 0.741821C1.24097 0.671509 1.29956 0.636353 1.36206 0.636353C1.42456 0.636353 1.48706 0.671509 1.54956 0.741821L5.46362 4.98401L9.37769 0.741821C9.44409 0.671509 9.50757 0.636353 9.56812 0.636353C9.62866 0.636353 9.68823 0.671509 9.74683 0.741821L10.1804 1.19299Z" fill="white"/>
</g>
<defs>
<clipPath id="clip0_1_32">
<rect width="9.61" height="6" fill="white" transform="matrix(1 0 0 -1 0.658691 6.63635)"/>
</clipPath>
</defs>
</svg>
