<svg width="27" height="17" viewBox="0 0 27 17" fill="none" xmlns="http://www.w3.org/2000/svg">
<g clip-path="url(#clip0_1_394)">
<path d="M9.67521 9.32692V2.21781C10.6439 2.21781 11.5501 2.4053 12.3939 2.78029C13.248 3.15528 13.9954 3.66307 14.636 4.30367C15.2766 4.94427 15.7792 5.69685 16.1437 6.5614C16.5187 7.42595 16.7062 8.34779 16.7062 9.32692C16.7062 10.3061 16.5187 11.2279 16.1437 12.0924C15.7792 12.9466 15.2766 13.6966 14.636 14.3424C13.9954 14.9882 13.248 15.4986 12.3939 15.8736C11.5501 16.2485 10.6439 16.436 9.67521 16.436C8.7065 16.436 7.79507 16.2485 6.94094 15.8736C6.0868 15.4986 5.34204 14.9882 4.70665 14.3424C4.07125 13.6966 3.56606 12.9466 3.19108 12.0924C2.82651 11.2279 2.64422 10.3061 2.64422 9.32692H9.67521ZM7.90965 7.54574H0.878662C0.878662 7.07701 0.920327 6.61348 1.00366 6.15517C1.0974 5.69685 1.22761 5.25155 1.39427 4.81928C1.56093 4.387 1.77446 3.97295 2.03487 3.57714C2.28486 3.18132 2.57131 2.81675 2.89421 2.48343C3.22753 2.15011 3.5921 1.85324 3.98792 1.59283C4.37332 1.34284 4.77956 1.13191 5.20663 0.960046C5.63369 0.788177 6.07639 0.65537 6.5347 0.561623C6.99302 0.478292 7.45134 0.436627 7.90965 0.436627V7.54574Z" fill="#BEBEBE"/>
</g>
<path d="M23.2537 7.3269C23.5818 7.32951 23.9099 7.39201 24.238 7.5144C24.5662 7.6368 24.8656 7.83992 25.1365 8.12378C25.4073 8.40503 25.6248 8.78914 25.7888 9.27612C25.9529 9.7631 26.0349 10.3738 26.0349 11.1082C26.0349 11.8191 25.9672 12.4506 25.8318 13.0027C25.699 13.5522 25.5063 14.0157 25.2537 14.3933C25.0037 14.7709 24.699 15.0574 24.3396 15.2527C23.9828 15.448 23.5792 15.5457 23.1287 15.5457C22.6807 15.5457 22.281 15.4571 21.9294 15.28C21.5805 15.1003 21.294 14.8516 21.0701 14.5339C20.8487 14.2136 20.7068 13.8425 20.6443 13.4207H21.5974C21.6833 13.7878 21.8539 14.0912 22.1091 14.3308C22.3669 14.5678 22.7068 14.6863 23.1287 14.6863C23.7458 14.6863 24.2328 14.4167 24.5896 13.8777C24.949 13.3386 25.1287 12.5769 25.1287 11.5925H25.0662C24.9203 11.8113 24.7472 12.0001 24.5466 12.1589C24.3461 12.3178 24.1235 12.4402 23.8787 12.5261C23.6339 12.6121 23.3735 12.655 23.0974 12.655C22.6391 12.655 22.2185 12.5417 21.8357 12.3152C21.4555 12.086 21.1508 11.7722 20.9216 11.3738C20.6951 10.9727 20.5818 10.5144 20.5818 9.99878C20.5818 9.5092 20.6912 9.06128 20.9099 8.65503C21.1313 8.24617 21.4412 7.92065 21.8396 7.67847C22.2406 7.43628 22.712 7.31909 23.2537 7.3269ZM23.2537 8.18628C22.9255 8.18628 22.63 8.26831 22.3669 8.43237C22.1065 8.59383 21.8995 8.81258 21.7458 9.08862C21.5948 9.36206 21.5193 9.66545 21.5193 9.99878C21.5193 10.3321 21.5922 10.6355 21.738 10.9089C21.8865 11.1798 22.0883 11.3959 22.3435 11.5574C22.6013 11.7162 22.8943 11.7957 23.2224 11.7957C23.4698 11.7957 23.7003 11.7475 23.9138 11.6511C24.1274 11.5522 24.3136 11.4181 24.4724 11.2488C24.6339 11.0769 24.7602 10.8829 24.8513 10.6667C24.9425 10.448 24.988 10.2201 24.988 9.98315C24.988 9.67065 24.9125 9.37769 24.7615 9.10425C24.613 8.83081 24.4073 8.60946 24.1443 8.44019C23.8839 8.27091 23.587 8.18628 23.2537 8.18628Z" fill="#666666"/>
<defs>
<clipPath id="clip0_1_394">
<rect width="16.89" height="16" fill="white" transform="matrix(1 0 0 -1 0.878662 16.4363)"/>
</clipPath>
</defs>
</svg>
