<svg width="26" height="17" viewBox="0 0 26 17" fill="none" xmlns="http://www.w3.org/2000/svg">
<g clip-path="url(#clip0_1_453)">
<path d="M10.6253 16.436C10.4169 16.3735 10.2034 16.311 9.98466 16.2485C9.76592 16.186 9.55239 16.1183 9.34406 16.0454C9.20865 15.9933 9.07324 15.9334 8.93783 15.8657C8.80241 15.798 8.667 15.7277 8.53159 15.6548C8.00036 15.384 7.46132 15.2043 6.91446 15.1158C6.36761 15.0272 5.80253 15.0194 5.21921 15.0923C4.92756 15.134 4.6359 15.16 4.34425 15.1705C4.05259 15.1809 3.76614 15.16 3.4849 15.108C2.80784 14.983 2.29224 14.6314 1.93809 14.0533C1.58393 13.4752 1.48498 12.8372 1.64122 12.1393C1.7558 11.6081 1.96673 11.1446 2.27401 10.7487C2.58129 10.3529 2.95888 10.0092 3.40678 9.71753C3.77135 9.47796 4.11769 9.21755 4.4458 8.93631C4.77392 8.65507 5.09422 8.36342 5.40671 8.06135C5.5942 7.87385 5.7843 7.69157 5.977 7.51449C6.1697 7.33741 6.37021 7.16554 6.57854 6.99888C7.24518 6.43641 7.95088 6.27235 8.69565 6.50671C9.44041 6.74108 9.96383 7.11867 10.2659 7.63949C10.4221 7.91031 10.568 8.19415 10.7034 8.49102C10.8388 8.78788 10.969 9.08214 11.094 9.3738C11.2294 9.6967 11.383 10.0092 11.5549 10.3113C11.7268 10.6133 11.9221 10.8998 12.1408 11.1706C12.4012 11.5143 12.6174 11.8789 12.7892 12.2643C12.9611 12.6497 13.0679 13.0612 13.1095 13.4986C13.2033 14.2694 13.0028 14.9439 12.508 15.522C12.0132 16.1001 11.3961 16.384 10.6565 16.3735C10.6461 16.384 10.6409 16.3918 10.6409 16.397C10.6409 16.4022 10.6357 16.4152 10.6253 16.436ZM13.672 3.49901C13.6408 4.07191 13.5106 4.60054 13.2814 5.08489C13.0523 5.56925 12.6981 5.98851 12.219 6.34266C11.6044 6.79056 11.0107 6.89733 10.4378 6.66296C9.86487 6.42859 9.50551 5.93642 9.35968 5.18645C9.23469 4.55106 9.32583 3.88702 9.63311 3.19434C9.94039 2.50166 10.3753 1.98865 10.9378 1.65533C11.5731 1.28035 12.1643 1.23608 12.7111 1.52252C13.258 1.80897 13.5731 2.32718 13.6564 3.07716C13.6564 3.13965 13.659 3.20475 13.6642 3.27246C13.6694 3.34017 13.672 3.41568 13.672 3.49901ZM8.57846 3.1709C8.57846 3.51464 8.5368 3.84275 8.45347 4.15524C8.37014 4.46773 8.22952 4.76459 8.03161 5.04583C7.64621 5.60831 7.17487 5.89215 6.6176 5.89736C6.06033 5.90257 5.58378 5.63435 5.18796 5.0927C4.80256 4.55106 4.60986 3.90004 4.60986 3.13965C4.60986 2.37926 4.80777 1.73345 5.20359 1.20222C5.58899 0.691826 6.04991 0.436627 6.58635 0.436627C7.12279 0.436627 7.58371 0.686618 7.96911 1.1866C8.16702 1.44701 8.31806 1.74908 8.42222 2.09282C8.52638 2.43655 8.57846 2.79591 8.57846 3.1709ZM12.094 8.87382C12.094 8.25925 12.3049 7.68115 12.7267 7.1395C13.1486 6.59786 13.6512 6.25412 14.2345 6.10829C14.7866 5.97288 15.2579 6.051 15.6485 6.34266C16.0391 6.63431 16.2501 7.0718 16.2813 7.65511C16.323 8.2905 16.1172 8.90506 15.6641 9.49879C15.211 10.0925 14.672 10.4467 14.047 10.5613C13.4949 10.6758 13.0314 10.5691 12.6564 10.241C12.2815 9.91284 12.094 9.45713 12.094 8.87382ZM4.53174 6.40516C4.53174 6.74889 4.49268 7.05878 4.41456 7.33481C4.33643 7.61084 4.20883 7.86344 4.03176 8.09259C3.78177 8.40508 3.47969 8.59258 3.12554 8.65507C2.77139 8.71757 2.42244 8.65507 2.0787 8.46758C1.7558 8.28009 1.49539 8.02489 1.29748 7.70198C1.08916 7.37908 0.94333 7.03274 0.86 6.66296C0.77667 6.29318 0.766254 5.91559 0.828751 5.53019C0.880833 5.1552 1.01104 4.81667 1.21936 4.5146C1.46935 4.17086 1.78445 3.95733 2.16464 3.874C2.54483 3.79067 2.91722 3.86358 3.28179 4.09274C3.71927 4.36357 4.02915 4.7047 4.21144 5.11614C4.39372 5.52759 4.50049 5.95726 4.53174 6.40516Z" fill="#BEBEBE"/>
</g>
<path d="M20.371 13.9448V13.2204L23.567 8.16355H24.0926V9.28571H23.7374L21.3227 13.1067V13.1636H25.6266V13.9448H20.371ZM23.7943 15.4363V13.7246V13.3873V8.16355H24.6323V15.4363H23.7943Z" fill="#666666"/>
<defs>
<clipPath id="clip0_1_453">
<rect width="16.89" height="16" fill="white" transform="matrix(1 0 0 -1 0.788574 16.4363)"/>
</clipPath>
</defs>
</svg>
