<svg width="27" height="17" viewBox="0 0 27 17" fill="none" xmlns="http://www.w3.org/2000/svg">
<g clip-path="url(#clip0_1_390)">
<path d="M10.8253 16.436C10.617 16.3735 10.4035 16.311 10.1847 16.2485C9.96599 16.186 9.75246 16.1183 9.54413 16.0454C9.40872 15.9933 9.27331 15.9334 9.1379 15.8657C9.00249 15.798 8.86708 15.7277 8.73166 15.6548C8.20043 15.384 7.66139 15.2043 7.11454 15.1158C6.56768 15.0272 6.0026 15.0194 5.41929 15.0923C5.12763 15.134 4.83598 15.16 4.54432 15.1705C4.25266 15.1809 3.96622 15.16 3.68498 15.108C3.00792 14.983 2.49231 14.6314 2.13816 14.0533C1.784 13.4752 1.68505 12.8372 1.84129 12.1393C1.95587 11.6081 2.1668 11.1446 2.47408 10.7487C2.78136 10.3529 3.15895 10.0092 3.60685 9.71753C3.97142 9.47796 4.31777 9.21755 4.64588 8.93631C4.97399 8.65507 5.29429 8.36342 5.60678 8.06135C5.79427 7.87385 5.98437 7.69157 6.17707 7.51449C6.36977 7.33741 6.57029 7.16554 6.77861 6.99888C7.44525 6.43641 8.15096 6.27235 8.89572 6.50672C9.64049 6.74108 10.1639 7.11867 10.466 7.63949C10.6222 7.91031 10.768 8.19415 10.9035 8.49102C11.0389 8.78788 11.1691 9.08214 11.2941 9.3738C11.4295 9.6967 11.5831 10.0092 11.755 10.3113C11.9269 10.6133 12.1222 10.8998 12.3409 11.1706C12.6013 11.5143 12.8175 11.8789 12.9893 12.2643C13.1612 12.6497 13.268 13.0612 13.3096 13.4986C13.4034 14.2694 13.2029 14.9439 12.7081 15.522C12.2133 16.1001 11.5961 16.384 10.8566 16.3735C10.8462 16.384 10.841 16.3918 10.841 16.397C10.841 16.4022 10.8358 16.4152 10.8253 16.436ZM13.8721 3.49901C13.8409 4.07191 13.7106 4.60054 13.4815 5.08489C13.2523 5.56925 12.8982 5.98851 12.419 6.34266C11.8045 6.79056 11.2107 6.89733 10.6378 6.66296C10.0649 6.42859 9.70559 5.93642 9.55976 5.18645C9.43476 4.55106 9.52591 3.88702 9.83319 3.19434C10.1405 2.50166 10.5753 1.98865 11.1378 1.65533C11.7732 1.28035 12.3643 1.23608 12.9112 1.52252C13.4581 1.80897 13.7731 2.32718 13.8565 3.07715C13.8565 3.13965 13.8591 3.20475 13.8643 3.27246C13.8695 3.34017 13.8721 3.41568 13.8721 3.49901ZM8.77854 3.1709C8.77854 3.51464 8.73687 3.84275 8.65354 4.15524C8.57021 4.46773 8.42959 4.76459 8.23168 5.04583C7.84628 5.60831 7.37494 5.89215 6.81767 5.89736C6.2604 5.90257 5.78386 5.63435 5.38804 5.09271C5.00264 4.55106 4.80993 3.90004 4.80993 3.13965C4.80993 2.37926 5.00784 1.73345 5.40366 1.20222C5.78907 0.691826 6.24999 0.436627 6.78642 0.436627C7.32286 0.436627 7.78378 0.686618 8.16919 1.1866C8.36709 1.44701 8.51813 1.74908 8.62229 2.09282C8.72646 2.43655 8.77854 2.79592 8.77854 3.1709ZM12.294 8.87382C12.294 8.25925 12.505 7.68115 12.9268 7.1395C13.3487 6.59786 13.8513 6.25412 14.4346 6.10829C14.9866 5.97288 15.458 6.051 15.8486 6.34266C16.2392 6.63431 16.4501 7.0718 16.4814 7.65511C16.523 8.2905 16.3173 8.90506 15.8642 9.49879C15.4111 10.0925 14.8721 10.4467 14.2471 10.5613C13.695 10.6758 13.2315 10.5691 12.8565 10.241C12.4815 9.91284 12.294 9.45713 12.294 8.87382ZM4.73181 6.40516C4.73181 6.74889 4.69275 7.05878 4.61463 7.33481C4.53651 7.61084 4.40891 7.86344 4.23183 8.09259C3.98184 8.40508 3.67977 8.59258 3.32561 8.65507C2.97146 8.71757 2.62252 8.65507 2.27878 8.46758C1.95587 8.28009 1.69547 8.02489 1.49756 7.70198C1.28923 7.37908 1.1434 7.03274 1.06007 6.66296C0.976743 6.29318 0.966327 5.91559 1.02882 5.53019C1.08091 5.1552 1.21111 4.81667 1.41944 4.5146C1.66943 4.17086 1.98452 3.95733 2.36471 3.874C2.74491 3.79067 3.11729 3.86358 3.48186 4.09274C3.91934 4.36357 4.22923 4.7047 4.41151 5.11614C4.5938 5.52758 4.70056 5.95726 4.73181 6.40516Z" fill="#BEBEBE"/>
</g>
<path d="M23.6193 15.5556C23.1193 15.5556 22.669 15.4562 22.2685 15.2573C21.8679 15.0584 21.5469 14.7857 21.3054 14.4391C21.0639 14.0925 20.9318 13.6976 20.9091 13.2545H21.9318C21.9716 13.6493 22.1506 13.9761 22.4688 14.2346C22.7898 14.4903 23.1733 14.6181 23.6193 14.6181C23.9773 14.6181 24.2955 14.5343 24.5739 14.3667C24.8551 14.1991 25.0753 13.9689 25.2344 13.6763C25.3963 13.3809 25.4773 13.0471 25.4773 12.6749C25.4773 12.2942 25.3935 11.9547 25.2259 11.6564C25.0611 11.3553 24.8338 11.1181 24.544 10.9448C24.2543 10.7715 23.9233 10.6834 23.5511 10.6806C23.2841 10.6778 23.01 10.7189 22.7287 10.8042C22.4475 10.8866 22.2159 10.9931 22.0341 11.1238L21.0455 11.0045L21.5739 6.70901H26.108V7.64651H22.4602L22.1534 10.2204H22.2046C22.3835 10.0783 22.608 9.96043 22.8779 9.86668C23.1477 9.77293 23.429 9.72605 23.7216 9.72605C24.2557 9.72605 24.7315 9.85389 25.1492 10.1096C25.5696 10.3624 25.8992 10.709 26.1378 11.1493C26.3793 11.5897 26.5 12.0925 26.5 12.6579C26.5 13.2147 26.375 13.7118 26.125 14.1493C25.8779 14.584 25.5369 14.9278 25.1023 15.1806C24.6676 15.4306 24.1733 15.5556 23.6193 15.5556Z" fill="#666666"/>
<defs>
<clipPath id="clip0_1_390">
<rect width="16.89" height="16" fill="white" transform="matrix(1 0 0 -1 0.988647 16.4363)"/>
</clipPath>
</defs>
</svg>
