<svg width="31" height="17" viewBox="0 0 31 17" fill="none" xmlns="http://www.w3.org/2000/svg">
<g clip-path="url(#clip0_1_398)">
<path d="M0.768677 14.9363V6.43628H14.7687V14.9363C14.7687 15.1446 14.7322 15.3373 14.6593 15.5144C14.5864 15.6915 14.477 15.8529 14.3312 15.9988C14.1853 16.1446 14.0239 16.254 13.8468 16.3269C13.6697 16.3998 13.477 16.4363 13.2687 16.4363H2.26868C2.06034 16.4363 1.86764 16.3998 1.69055 16.3269C1.51347 16.254 1.35201 16.1446 1.20618 15.9988C1.06034 15.8529 0.950968 15.6915 0.878052 15.5144C0.805135 15.3373 0.768677 15.1446 0.768677 14.9363ZM13.2687 2.43628C13.477 2.43628 13.6697 2.47274 13.8468 2.54565C14.0239 2.61857 14.1853 2.72795 14.3312 2.87378C14.477 3.01961 14.5864 3.18107 14.6593 3.35815C14.7322 3.53524 14.7687 3.72795 14.7687 3.93628V5.43628H0.768677V3.93628C0.768677 3.72795 0.805135 3.53524 0.878052 3.35815C0.950968 3.18107 1.06034 3.01961 1.20618 2.87378C1.35201 2.72795 1.51347 2.61857 1.69055 2.54565C1.86764 2.47274 2.06034 2.43628 2.26868 2.43628H3.76868V0.936279C3.76868 0.863362 3.77909 0.798259 3.79993 0.740967C3.82076 0.683675 3.85201 0.634196 3.89368 0.592529C3.94576 0.540446 4.00305 0.501384 4.06555 0.475342C4.12805 0.4493 4.19576 0.436279 4.26868 0.436279H5.26868C5.34159 0.436279 5.4067 0.4493 5.46399 0.475342C5.52128 0.501384 5.57076 0.540446 5.61243 0.592529C5.66451 0.634196 5.70357 0.683675 5.72961 0.740967C5.75566 0.798259 5.76868 0.863362 5.76868 0.936279V2.43628H9.76868V0.936279C9.76868 0.863362 9.77909 0.798259 9.79993 0.740967C9.82076 0.683675 9.85201 0.634196 9.89368 0.592529C9.94576 0.540446 10.0031 0.501384 10.0656 0.475342C10.1281 0.4493 10.1958 0.436279 10.2687 0.436279H11.2687C11.3416 0.436279 11.4067 0.4493 11.464 0.475342C11.5213 0.501384 11.5708 0.540446 11.6124 0.592529C11.6645 0.634196 11.7036 0.683675 11.7296 0.740967C11.7557 0.798259 11.7687 0.863362 11.7687 0.936279V2.43628H13.2687Z" fill="#BEBEBE"/>
</g>
<path d="M23.0783 8.16355V15.4363H22.1977V9.08685H22.155L20.3795 10.2658V9.37094L22.1977 8.16355H23.0783ZM27.5421 15.5357C27.0071 15.5357 26.5513 15.3901 26.1749 15.0989C25.7985 14.8054 25.5109 14.3804 25.312 13.8241C25.1131 13.2654 25.0137 12.5906 25.0137 11.7999C25.0137 11.0139 25.1131 10.3428 25.312 9.78642C25.5132 9.22771 25.8021 8.80157 26.1785 8.50801C26.5573 8.21208 27.0118 8.06412 27.5421 8.06412C28.0724 8.06412 28.5258 8.21208 28.9022 8.50801C29.281 8.80157 29.5698 9.22771 29.7687 9.78642C29.9699 10.3428 30.0705 11.0139 30.0705 11.7999C30.0705 12.5906 29.9711 13.2654 29.7722 13.8241C29.5734 14.3804 29.2857 14.8054 28.9093 15.0989C28.5329 15.3901 28.0772 15.5357 27.5421 15.5357ZM27.5421 14.7545C28.0724 14.7545 28.4843 14.4988 28.7779 13.9874C29.0715 13.4761 29.2183 12.7469 29.2183 11.7999C29.2183 11.1702 29.1508 10.634 29.0158 10.1913C28.8833 9.74854 28.6915 9.41118 28.4406 9.17918C28.192 8.94717 27.8925 8.83117 27.5421 8.83117C27.0165 8.83117 26.6058 9.0904 26.3099 9.60886C26.0139 10.125 25.866 10.8553 25.866 11.7999C25.866 12.4297 25.9323 12.9647 26.0648 13.405C26.1974 13.8454 26.388 14.1804 26.6366 14.41C26.8875 14.6396 27.1894 14.7545 27.5421 14.7545Z" fill="#666666"/>
<defs>
<clipPath id="clip0_1_398">
<rect width="14" height="16" fill="white" transform="matrix(1 0 0 -1 0.768677 16.4363)"/>
</clipPath>
</defs>
</svg>
