<svg width="26" height="17" viewBox="0 0 26 17" fill="none" xmlns="http://www.w3.org/2000/svg">
<g clip-path="url(#clip0_1_1173)">
<path d="M9.67521 9.71657V2.60746C10.6439 2.60746 11.5501 2.79495 12.3939 3.16994C13.248 3.54492 13.9954 4.05272 14.636 4.69332C15.2766 5.33392 15.7792 6.0865 16.1437 6.95105C16.5187 7.8156 16.7062 8.73744 16.7062 9.71657C16.7062 10.6957 16.5187 11.6175 16.1437 12.4821C15.7792 13.3362 15.2766 14.0862 14.636 14.732C13.9954 15.3778 13.248 15.8882 12.3939 16.2632C11.5501 16.6382 10.6439 16.8257 9.67521 16.8257C8.7065 16.8257 7.79507 16.6382 6.94094 16.2632C6.0868 15.8882 5.34204 15.3778 4.70665 14.732C4.07125 14.0862 3.56606 13.3362 3.19108 12.4821C2.82651 11.6175 2.64422 10.6957 2.64422 9.71657H9.67521ZM7.90965 7.93539H0.878662C0.878662 7.46665 0.920327 7.00313 1.00366 6.54481C1.0974 6.0865 1.22761 5.6412 1.39427 5.20893C1.56093 4.77665 1.77446 4.3626 2.03487 3.96678C2.28486 3.57097 2.57131 3.2064 2.89421 2.87308C3.22753 2.53975 3.5921 2.24289 3.98792 1.98248C4.37332 1.73249 4.77956 1.52156 5.20663 1.34969C5.63369 1.17782 6.07639 1.04502 6.5347 0.951271C6.99302 0.867941 7.45134 0.826276 7.90965 0.826276V7.93539Z" fill="#BEBEBE"/>
</g>
<path d="M20.8588 15.8262L24.1116 9.39151V9.33469H20.3616V8.55344H25.0207V9.37731L21.7821 15.8262H20.8588Z" fill="#666666"/>
<defs>
<clipPath id="clip0_1_1173">
<rect width="16.89" height="16" fill="white" transform="matrix(1 0 0 -1 0.878662 16.8262)"/>
</clipPath>
</defs>
</svg>
