<svg width="20" height="17" viewBox="0 0 20 17" fill="none" xmlns="http://www.w3.org/2000/svg">
<g clip-path="url(#clip0_1_644)">
<path d="M7.94902 3.17168C7.95943 3.37999 8.0011 3.58048 8.074 3.77317C8.14691 3.96585 8.24586 4.14551 8.37084 4.31216C8.50624 4.48922 8.65987 4.63764 8.83172 4.75742C9.00357 4.87719 9.19365 4.96833 9.40196 5.03082V15.6857H3.49646C3.44439 15.6857 3.39491 15.6935 3.34804 15.7091C3.30118 15.7248 3.26212 15.7534 3.23087 15.7951C3.18921 15.8263 3.16057 15.868 3.14495 15.9201C3.12932 15.9721 3.12151 16.019 3.12151 16.0607V16.5606C3.12151 16.6127 3.12932 16.6621 3.14495 16.709C3.16057 16.7559 3.18921 16.8001 3.23087 16.8418C3.26212 16.8731 3.30118 16.8965 3.34804 16.9121C3.39491 16.9277 3.44439 16.9355 3.49646 16.9355H16.5104C16.5625 16.9355 16.612 16.9277 16.6588 16.9121C16.7057 16.8965 16.75 16.8731 16.7916 16.8418C16.8229 16.8001 16.8463 16.7559 16.8619 16.709C16.8776 16.6621 16.8854 16.6127 16.8854 16.5606V16.0607C16.8854 16.019 16.8776 15.9721 16.8619 15.9201C16.8463 15.868 16.8229 15.8263 16.7916 15.7951C16.75 15.7534 16.7057 15.7248 16.6588 15.7091C16.612 15.6935 16.5625 15.6857 16.5104 15.6857H10.6206V5.03082C10.7143 4.99957 10.8028 4.96312 10.8861 4.92146C10.9695 4.8798 11.0528 4.82772 11.1361 4.76523C11.2298 4.70273 11.3184 4.63504 11.4017 4.56213C11.485 4.48922 11.5579 4.4059 11.6204 4.31216C11.6933 4.22884 11.7558 4.1377 11.8079 4.03876C11.86 3.93981 11.9016 3.83305 11.9329 3.71849C11.9745 3.63516 12.0058 3.54663 12.0266 3.4529C12.0475 3.35916 12.0579 3.26542 12.0579 3.17168H16.5104C16.5625 3.17168 16.612 3.16387 16.6588 3.14825C16.7057 3.13262 16.75 3.10398 16.7916 3.06232C16.8229 3.03107 16.8463 2.98941 16.8619 2.93734C16.8776 2.88526 16.8854 2.83839 16.8854 2.79673V2.29679C16.8854 2.24472 16.8776 2.19524 16.8619 2.14837C16.8463 2.10151 16.8229 2.05724 16.7916 2.01558C16.75 1.98433 16.7057 1.9609 16.6588 1.94528C16.612 1.92965 16.5625 1.92184 16.5104 1.92184H11.7454C11.6621 1.79686 11.5736 1.68229 11.4798 1.57813C11.3861 1.47398 11.2819 1.38024 11.1674 1.29692C11.0007 1.18235 10.8184 1.09382 10.6206 1.03133C10.4227 0.968838 10.2196 0.937592 10.0113 0.937592C9.79253 0.937592 9.58683 0.968838 9.39415 1.03133C9.20146 1.09382 9.0218 1.18235 8.85515 1.29692H8.83953C8.73538 1.38024 8.63643 1.47398 8.54269 1.57813C8.44895 1.68229 8.36042 1.79686 8.2771 1.92184H3.49646C3.44439 1.92184 3.39491 1.92965 3.34804 1.94528C3.30118 1.9609 3.26212 1.98433 3.23087 2.01558C3.18921 2.05724 3.16057 2.10151 3.14495 2.14837C3.12932 2.19524 3.12151 2.24472 3.12151 2.29679V2.79673C3.12151 2.83839 3.12932 2.88526 3.14495 2.93734C3.16057 2.98941 3.18921 3.03107 3.23087 3.06232C3.26212 3.10398 3.30118 3.13262 3.34804 3.14825C3.39491 3.16387 3.44439 3.17168 3.49646 3.17168H7.94902ZM10.5737 2.45302C10.6674 2.53635 10.7351 2.62488 10.7768 2.71861C10.8184 2.81235 10.8393 2.9165 10.8393 3.03107C10.8393 3.14564 10.8184 3.255 10.7768 3.35916C10.7351 3.46331 10.6674 3.56226 10.5737 3.65599C10.5008 3.7289 10.4175 3.78619 10.3237 3.82785C10.23 3.86951 10.1258 3.89034 10.0113 3.89034C9.89669 3.89034 9.78993 3.86951 9.69098 3.82785C9.59204 3.78619 9.4957 3.7289 9.40196 3.65599C9.32905 3.56226 9.27177 3.46331 9.23011 3.35916C9.18844 3.255 9.16761 3.14564 9.16761 3.03107C9.16761 2.9165 9.18844 2.81235 9.23011 2.71861C9.27177 2.62488 9.32905 2.53635 9.40196 2.45302C9.4957 2.35928 9.59204 2.29158 9.69098 2.24992C9.78993 2.20826 9.89669 2.18743 10.0113 2.18743C10.1154 2.18743 10.2144 2.20826 10.3081 2.24992C10.4018 2.29158 10.4904 2.35928 10.5737 2.45302ZM19.5725 9.57711L16.2917 4.17155C16.2396 4.07782 16.1719 4.00751 16.0886 3.96064C16.0053 3.91377 15.9063 3.89034 15.7918 3.89034C15.6772 3.89034 15.5783 3.91377 15.4949 3.96064C15.4116 4.00751 15.3439 4.07782 15.2918 4.17155L12.011 9.57711C11.9277 9.68127 11.8704 9.79323 11.8391 9.91301C11.8079 10.0328 11.7975 10.15 11.8079 10.2645C11.8496 10.7853 11.9771 11.2644 12.1907 11.7018C12.4042 12.1393 12.7036 12.5403 13.089 12.9048C13.4639 13.2693 13.8779 13.5401 14.331 13.7172C14.7841 13.8943 15.271 13.9828 15.7918 13.9828C16.3125 13.9828 16.7994 13.8943 17.2525 13.7172C17.7056 13.5401 18.1248 13.2693 18.5102 12.9048C18.8851 12.5403 19.1794 12.1393 19.3929 11.7018C19.6064 11.2644 19.734 10.7853 19.7756 10.2645C19.786 10.15 19.7756 10.0328 19.7444 9.91301C19.7131 9.79323 19.6559 9.68127 19.5725 9.57711ZM18.3071 11.0301C18.2133 11.2696 18.0883 11.4857 17.9321 11.6784C17.7759 11.8711 17.5884 12.0508 17.3697 12.2174C17.1406 12.3945 16.8958 12.5247 16.6354 12.608C16.375 12.6913 16.0938 12.733 15.7918 12.733C15.5001 12.733 15.2189 12.6913 14.9481 12.608C14.6773 12.5247 14.4221 12.3945 14.1826 12.2174C13.9639 12.0508 13.7764 11.8711 13.6202 11.6784C13.4639 11.4857 13.339 11.2696 13.2452 11.0301H18.3071ZM18.3071 9.79583H13.3077L15.7918 5.68699L18.3071 9.79583ZM6.93352 12.9048C7.31889 12.5403 7.61833 12.1393 7.83185 11.7018C8.04536 11.2644 8.17295 10.7853 8.21461 10.2645C8.22503 10.15 8.21201 10.0328 8.17555 9.91301C8.1391 9.79323 8.08442 9.68127 8.01151 9.57711L4.73068 4.17155C4.6786 4.07782 4.6083 4.00751 4.51977 3.96064C4.43124 3.91377 4.3349 3.89034 4.23074 3.89034C4.11618 3.89034 4.01463 3.91377 3.9261 3.96064C3.83756 4.00751 3.76726 4.07782 3.71518 4.17155L0.434354 9.57711C0.361447 9.68127 0.306766 9.79323 0.270312 9.91301C0.233859 10.0328 0.22084 10.15 0.231255 10.2645C0.272916 10.7853 0.400504 11.2644 0.614019 11.7018C0.827533 12.1393 1.12697 12.5403 1.51234 12.9048C1.89771 13.2693 2.31693 13.5401 2.76999 13.7172C3.22306 13.8943 3.70998 13.9828 4.23074 13.9828C4.7411 13.9828 5.2228 13.8943 5.67587 13.7172C6.12894 13.5401 6.54816 13.2693 6.93352 12.9048ZM6.74605 11.0301C6.64189 11.2696 6.5117 11.4857 6.35547 11.6784C6.19924 11.8711 6.01697 12.0508 5.80867 12.2174H5.79304C5.56391 12.3945 5.31915 12.5247 5.05876 12.608C4.79838 12.6913 4.52237 12.733 4.23074 12.733C3.9287 12.733 3.64488 12.6913 3.37929 12.608C3.1137 12.5247 2.86113 12.3945 2.62157 12.2174C2.40285 12.0508 2.21538 11.8711 2.05915 11.6784C1.90292 11.4857 1.77272 11.2696 1.66857 11.0301H6.74605ZM6.73042 9.79583H1.74669L4.23074 5.68699L6.73042 9.79583Z" fill="#666666"/>
</g>
<defs>
<clipPath id="clip0_1_644">
<rect width="19.56" height="16" fill="white" transform="matrix(1 0 0 -1 0.228638 16.9365)"/>
</clipPath>
</defs>
</svg>
