<svg width="19" height="17" viewBox="0 0 19 17" fill="none" xmlns="http://www.w3.org/2000/svg">
<g id="Label" clip-path="url(#clip0_1_346)">
<path id="Vector" d="M15.5493 1.37061C15.9555 1.72477 16.2915 2.1154 16.5571 2.54248C16.8227 2.96956 17.0232 3.4279 17.1586 3.91748C17.2941 4.39665 17.3644 4.87061 17.3696 5.33936C17.3748 5.80811 17.3149 6.26644 17.1899 6.71436C17.0753 7.16227 16.9112 7.57894 16.6977 7.96436C16.4842 8.34977 16.2263 8.70394 15.9243 9.02686L10.0649 15.1519C9.8878 15.3394 9.6951 15.48 9.48676 15.5737C9.27843 15.6675 9.04926 15.7144 8.79926 15.7144C8.54926 15.7144 8.3201 15.6675 8.11176 15.5737C7.90343 15.48 7.71072 15.3394 7.53364 15.1519L1.67426 9.02686C1.37218 8.70394 1.11437 8.34977 0.900825 7.96436C0.687284 7.57894 0.523221 7.16227 0.408638 6.71436C0.283638 6.25602 0.223742 5.78988 0.22895 5.31592C0.234159 4.84196 0.304471 4.3654 0.439888 3.88623C0.575304 3.40706 0.775825 2.95654 1.04145 2.53467C1.30708 2.11279 1.64301 1.72477 2.04926 1.37061C2.52843 0.953939 3.04926 0.657064 3.61176 0.47998C4.17426 0.302897 4.77843 0.245605 5.42426 0.308105C6.08051 0.349772 6.68989 0.503418 7.25239 0.769043C7.81489 1.03467 8.33051 1.40706 8.79926 1.88623C9.26801 1.40706 9.78103 1.03467 10.3383 0.769043C10.8956 0.503418 11.4972 0.349772 12.143 0.308105C12.7993 0.245605 13.4112 0.302897 13.979 0.47998C14.5467 0.657064 15.0701 0.953939 15.5493 1.37061ZM14.7836 7.85498C15.1066 7.51123 15.3487 7.12842 15.5102 6.70654C15.6717 6.28467 15.7524 5.82894 15.7524 5.33936C15.7524 4.82894 15.6534 4.34977 15.4555 3.90186C15.2576 3.45394 14.9555 3.03727 14.5493 2.65186C14.2159 2.37061 13.854 2.17008 13.4633 2.05029C13.0727 1.9305 12.6534 1.88623 12.2055 1.91748C11.7784 1.94873 11.3774 2.05811 11.0024 2.24561C10.6274 2.43311 10.2836 2.69352 9.97114 3.02686L8.79926 4.22998L7.62739 3.02686C7.31489 2.69352 6.96853 2.43311 6.58833 2.24561C6.20812 2.05811 5.79405 1.94873 5.34614 1.91748C4.91905 1.88623 4.5128 1.9305 4.12739 2.05029C3.74197 2.17008 3.3826 2.37061 3.04926 2.65186C2.64301 3.03727 2.34093 3.45394 2.14301 3.90186C1.9451 4.34977 1.84614 4.82894 1.84614 5.33936C1.84614 5.82894 1.92687 6.28467 2.08833 6.70654C2.24978 7.12842 2.49197 7.51123 2.81489 7.85498L8.70551 13.98C8.73676 14.0321 8.76801 14.0581 8.79926 14.0581C8.83051 14.0581 8.86176 14.0321 8.89301 13.98L14.7836 7.85498Z" fill="#666666"/>
</g>
<defs>
<clipPath id="clip0_1_346">
<rect width="18" height="16" fill="white" transform="matrix(1 0 0 -1 0.228638 16.1362)"/>
</clipPath>
</defs>
</svg>
