<svg width="17" height="13" viewBox="0 0 17 13" fill="none" xmlns="http://www.w3.org/2000/svg">
<path d="M14.6344 6.42383C14.6344 5.94141 14.5519 5.48226 14.3868 5.04639C14.2218 4.61051 13.9742 4.18945 13.6442 3.7832C13.3141 3.37695 12.9269 3.01302 12.4825 2.69141C12.0382 2.36979 11.5367 2.0905 10.9781 1.85352C10.4196 1.625 9.83557 1.44938 9.2262 1.32666C8.61682 1.20394 7.98206 1.14258 7.3219 1.14258C6.66174 1.14258 6.02698 1.20394 5.4176 1.32666C4.80823 1.44938 4.22424 1.625 3.66565 1.85352C3.10706 2.0905 2.60559 2.36979 2.16125 2.69141C1.71692 3.01302 1.32971 3.37695 0.999634 3.7832C0.669556 4.18945 0.421997 4.61051 0.256958 5.04639C0.0919189 5.48226 0.00939941 5.94141 0.00939941 6.42383C0.00939941 6.72852 0.0411377 7.02051 0.104614 7.2998C0.168091 7.5791 0.263306 7.85417 0.390259 8.125C0.517212 8.4043 0.675903 8.66667 0.866333 8.91211C1.05676 9.15755 1.27047 9.39453 1.50745 9.62305C1.45667 9.92773 1.38896 10.2049 1.30432 10.4546C1.21969 10.7043 1.12659 10.9264 1.02502 11.1211C0.948853 11.2311 0.857869 11.3496 0.752075 11.4766C0.646281 11.6035 0.517212 11.7305 0.364868 11.8574L0.161743 12.0352C0.102498 12.0944 0.0601807 12.1494 0.03479 12.2002C0.00939941 12.251 0.000935872 12.2891 0.00939941 12.3145C0.00939941 12.3483 0.0199788 12.3779 0.0411377 12.4033C0.0622966 12.4287 0.0855713 12.4499 0.110962 12.4668C0.136353 12.4922 0.168091 12.507 0.206177 12.5112C0.244263 12.5155 0.280233 12.5176 0.314087 12.5176C0.999634 12.4499 1.64286 12.2975 2.24377 12.0605C2.84469 11.8236 3.40328 11.502 3.91956 11.0957C4.45276 11.2988 5.00077 11.4512 5.5636 11.5527C6.12642 11.6543 6.71252 11.7051 7.3219 11.7051C7.98206 11.7051 8.61682 11.6458 9.2262 11.5273C9.83557 11.4089 10.4196 11.2311 10.9781 10.9941C11.5367 10.7656 12.0382 10.4927 12.4825 10.1753C12.9269 9.85791 13.3141 9.49609 13.6442 9.08984C13.9742 8.68359 14.2218 8.2583 14.3868 7.81396C14.5519 7.36963 14.6344 6.90625 14.6344 6.42383Z" fill="#E95D2A"/>
</svg>
