<svg width="161" height="28" viewBox="0 0 161 28" fill="none" xmlns="http://www.w3.org/2000/svg">
<g clip-path="url(#clip0_1_10)">
<path d="M18.1886 2.93635H17.2886V0.636353H11.7886V2.93635H10.7886C4.78865 2.93635 0.988647 5.93635 0.988647 11.3364V12.3364C0.988647 17.6364 4.68865 20.6364 10.8886 20.6364H11.7886V22.9364H17.2886V20.6364H18.1886C24.2886 20.6364 28.0886 17.6364 28.0886 12.2364V11.2364C28.0886 5.73635 24.2886 2.83635 18.1886 2.83635V2.93635ZM10.5886 16.7364C7.88865 16.7364 6.48865 15.0364 6.48865 12.0364V11.6364C6.48865 8.63635 7.88865 6.93635 10.5886 6.93635H11.7886V16.6364H10.5886V16.7364ZM22.5886 12.0364C22.5886 15.0364 21.0886 16.7364 18.3886 16.7364H17.2886V6.93635H18.3886C21.0886 6.93635 22.5886 8.53635 22.5886 11.6364V12.0364ZM39.2886 7.03635C33.9886 7.03635 30.3886 10.3364 30.3886 15.0364C30.3886 19.8364 33.9886 23.0364 39.2886 23.0364C44.5886 23.0364 48.1886 19.8364 48.1886 15.0364C48.1886 10.3364 44.5886 7.03635 39.2886 7.03635ZM39.2886 19.0364C36.9886 19.0364 35.4886 17.4364 35.4886 15.0364C35.4886 12.6364 36.9886 11.0364 39.2886 11.0364C41.4886 11.0364 43.0886 12.6364 43.0886 15.0364C43.0886 17.4364 41.4886 19.0364 39.2886 19.0364ZM68.2887 7.33635H62.4886L56.4886 14.5364V7.33635H51.4886V22.7364H56.4886V15.5364L62.4886 22.7364H68.6886L61.6886 14.7364L68.2887 7.33635ZM77.7887 11.0364C79.4887 11.0364 80.6886 12.0364 81.0886 13.4364H86.0886C85.6886 9.63635 82.5886 7.03635 77.8886 7.03635C72.5886 7.03635 68.9886 10.3364 68.9886 15.0364C68.9886 19.8364 72.5886 23.0364 77.9886 23.0364C82.5886 23.0364 85.6886 20.4364 85.9886 16.7364H81.0886C80.8873 17.4485 80.4525 18.0723 79.854 18.5075C79.2556 18.9428 78.5281 19.1643 77.7887 19.1364C75.5887 19.1364 74.0886 17.4364 74.0886 15.1364C74.0886 12.6364 75.5887 11.0364 77.7887 11.0364ZM87.3886 7.33635V11.4364H92.9886V22.7364H97.9886V11.4364H103.489V7.43635H87.4886L87.3886 7.33635ZM115.689 7.23635C113.689 7.23635 111.889 8.03635 110.689 9.53635V7.33635H105.989V27.3364H110.989V20.9364C112.189 22.1364 113.789 22.9364 115.689 22.9364C120.289 22.9364 123.389 19.6364 123.389 15.0364C123.389 10.4364 120.289 7.23635 115.689 7.23635ZM114.489 19.1364C112.289 19.1364 110.689 17.4364 110.689 15.1364C110.689 12.6364 112.289 11.0364 114.489 11.0364C116.789 11.0364 118.289 12.6364 118.289 15.0364C118.289 17.4364 116.789 19.0364 114.489 19.0364V19.1364ZM134.689 7.03635C129.389 7.03635 125.789 10.3364 125.789 15.0364C125.789 19.8364 129.389 23.0364 134.689 23.0364C139.989 23.0364 143.589 19.8364 143.589 15.0364C143.589 10.3364 139.989 7.03635 134.589 7.03635H134.689ZM134.689 19.0364C132.389 19.0364 130.889 17.4364 130.889 15.0364C130.889 12.6364 132.389 11.0364 134.689 11.0364C136.889 11.0364 138.489 12.6364 138.489 15.0364C138.489 17.4364 136.889 19.0364 134.689 19.0364ZM144.989 7.33635V11.4364H150.489V22.7364H155.489V11.4364H160.989V7.43635H144.989V7.33635Z" fill="white"/>
</g>
<defs>
<clipPath id="clip0_1_10">
<rect width="160" height="27" fill="white" transform="translate(0.988647 0.636353)"/>
</clipPath>
</defs>
</svg>
