<svg width="17" height="17" viewBox="0 0 17 17" fill="none" xmlns="http://www.w3.org/2000/svg">
<g clip-path="url(#clip0_1_298)">
<path d="M3.89774 0.606323H0.988647V3.51541H3.89774V0.606323Z" fill="#BEBEBE"/>
<path d="M8.26102 0.606323H5.35193V3.51541H8.26102V0.606323Z" fill="#BEBEBE"/>
<path d="M12.6244 0.606323H9.71521V3.51541H12.6244V0.606323Z" fill="#BEBEBE"/>
<path d="M16.9895 0.606323H14.0804V3.51541H16.9895V0.606323Z" fill="#BEBEBE"/>
<path d="M3.89774 4.97009H0.988647V7.87918H3.89774V4.97009Z" fill="#BEBEBE"/>
<path d="M8.26102 4.97009H5.35193V7.87918H8.26102V4.97009Z" fill="#BEBEBE"/>
<path d="M12.6244 4.97009H9.71521V7.87918H12.6244V4.97009Z" fill="#BEBEBE"/>
<path d="M16.9895 4.97009H14.0804V7.87918H16.9895V4.97009Z" fill="#BEBEBE"/>
<path d="M3.89774 9.33337H0.988647V12.2424H3.89774V9.33337Z" fill="#BEBEBE"/>
<path d="M8.26102 9.33337H5.35193V12.2424H8.26102V9.33337Z" fill="#BEBEBE"/>
<path d="M12.6244 9.33337H9.71521V12.2424H12.6244V9.33337Z" fill="#BEBEBE"/>
<path d="M16.9895 9.33337H14.0804V12.2424H16.9895V9.33337Z" fill="#BEBEBE"/>
<path d="M3.89774 13.6971H0.988647V16.6062H3.89774V13.6971Z" fill="#BEBEBE"/>
<path d="M8.26102 13.6971H5.35193V16.6062H8.26102V13.6971Z" fill="#BEBEBE"/>
<path d="M12.6244 13.6971H9.71521V16.6062H12.6244V13.6971Z" fill="#BEBEBE"/>
<path d="M16.9895 13.6971H14.0804V16.6062H16.9895V13.6971Z" fill="#BEBEBE"/>
</g>
<defs>
<clipPath id="clip0_1_298">
<rect width="16" height="16" fill="white" transform="translate(0.988647 0.606323)"/>
</clipPath>
</defs>
</svg>
