<svg width="22" height="22" viewBox="0 0 22 22" fill="none" xmlns="http://www.w3.org/2000/svg">
<path d="M18.052 3.23303C18.5715 3.73889 19.0227 4.27209 19.4055 4.83264C19.802 5.39319 20.1267 5.9845 20.3796 6.60657C20.6326 7.22864 20.8274 7.87463 20.9641 8.54456C21.0872 9.21448 21.1487 9.91174 21.1487 10.6364C21.1487 11.361 21.0872 12.0582 20.9641 12.7281C20.8274 13.4117 20.6326 14.0646 20.3796 14.6866C20.1267 15.3087 19.802 15.9 19.4055 16.4606C19.0227 17.0348 18.5715 17.5748 18.052 18.0807C17.5461 18.6002 17.0129 19.0446 16.4524 19.4137C15.8918 19.7965 15.304 20.1144 14.6887 20.3673C14.0735 20.6202 13.4241 20.8151 12.7405 20.9518C12.0706 21.0748 11.3733 21.1364 10.6487 21.1364C9.92407 21.1364 9.22681 21.0748 8.55688 20.9518C7.87329 20.8151 7.22046 20.6202 6.59839 20.3673C5.97632 20.1144 5.38501 19.7965 4.82446 19.4137C4.25024 19.0446 3.71021 18.6002 3.20435 18.0807C2.68481 17.5748 2.24048 17.0348 1.87134 16.4606C1.48853 15.9 1.17065 15.3087 0.917725 14.6866C0.664795 14.0646 0.469971 13.4117 0.333252 12.7281C0.210205 12.0582 0.148682 11.361 0.148682 10.6364C0.148682 9.91174 0.210205 9.21448 0.333252 8.54456C0.469971 7.86096 0.664795 7.21155 0.917725 6.59631C1.17065 5.98108 1.48853 5.39319 1.87134 4.83264C2.24048 4.27209 2.68481 3.73889 3.20435 3.23303C3.71021 2.7135 4.25024 2.26233 4.82446 1.87952C5.38501 1.48303 5.97632 1.15833 6.59839 0.905396C7.22046 0.652466 7.87329 0.457642 8.55688 0.320923C9.22681 0.197876 9.92407 0.136353 10.6487 0.136353C11.3733 0.136353 12.0706 0.197876 12.7405 0.320923C13.4104 0.457642 14.0564 0.652466 14.6785 0.905396C15.3005 1.15833 15.8918 1.48303 16.4524 1.87952C17.0129 2.26233 17.5461 2.7135 18.052 3.23303ZM4.47583 16.8092C4.89966 17.233 5.35083 17.6022 5.82935 17.9166C6.29419 18.2311 6.78296 18.4943 7.29565 18.7062C7.80835 18.9181 8.34497 19.0719 8.90552 19.1676C9.46606 19.277 10.0471 19.3317 10.6487 19.3317C11.2502 19.3317 11.8313 19.277 12.3918 19.1676C12.9387 19.0719 13.4685 18.9181 13.9812 18.7062C14.4939 18.4943 14.9827 18.2311 15.4475 17.9166C15.9124 17.6022 16.3567 17.233 16.7805 16.8092C17.2043 16.3854 17.5803 15.9342 17.9084 15.4557C18.2229 14.9908 18.4861 14.5021 18.698 13.9894C18.9099 13.4767 19.0706 12.9401 19.1799 12.3795C19.2893 11.819 19.344 11.2379 19.344 10.6364C19.344 10.0348 19.2893 9.45374 19.1799 8.89319C19.0706 8.34631 18.9099 7.81653 18.698 7.30383C18.4861 6.79114 18.2229 6.30237 17.9084 5.83752C17.5803 5.37268 17.2043 4.92834 16.7805 4.50452C16.3567 4.08069 15.9124 3.70471 15.4475 3.37659C14.9827 3.06213 14.4939 2.79895 13.9812 2.58704C13.4685 2.37512 12.9387 2.21448 12.3918 2.1051C11.8313 1.99573 11.2502 1.94104 10.6487 1.94104C10.0471 1.94104 9.46606 1.99573 8.90552 2.1051C8.34497 2.21448 7.80835 2.37512 7.29565 2.58704C6.78296 2.79895 6.29419 3.06213 5.82935 3.37659C5.35083 3.70471 4.89966 4.08069 4.47583 4.50452C4.052 4.92834 3.68286 5.37268 3.36841 5.83752C3.05396 6.30237 2.79077 6.79114 2.57886 7.30383C2.36694 7.81653 2.21313 8.34631 2.11743 8.89319C2.00806 9.45374 1.95337 10.0348 1.95337 10.6364C1.95337 11.2379 2.00806 11.819 2.11743 12.3795C2.21313 12.9401 2.36694 13.4767 2.57886 13.9894C2.79077 14.5021 3.05396 14.9908 3.36841 15.4557C3.68286 15.9342 4.052 16.3854 4.47583 16.8092ZM12.7405 6.76038H10.9973L8.39282 10.8414L10.9973 14.902H12.7405L10.136 10.8414L12.7405 6.76038ZM15.6321 6.76038H13.8889L11.2639 10.8414L13.8889 14.902H15.6321L13.0071 10.8414L15.6321 6.76038ZM5.66528 6.76038H7.49048V14.902H5.66528V6.76038Z" fill="white"/>
</svg>
