<svg width="15" height="15" viewBox="0 0 15 15" fill="none" xmlns="http://www.w3.org/2000/svg">
<path d="M6.37207 1.32031C6.4209 1.21289 6.48193 1.125 6.55518 1.05664C6.62842 0.988281 6.71875 0.93457 6.82617 0.895508C6.93359 0.866211 7.03613 0.851562 7.13379 0.851562C7.23145 0.851562 7.33398 0.866211 7.44141 0.895508C7.54883 0.93457 7.6416 0.988281 7.71973 1.05664C7.79785 1.125 7.86133 1.21289 7.91016 1.32031L9.65332 4.83594L13.5352 5.39258C13.6426 5.42188 13.7427 5.46338 13.8354 5.51709C13.9282 5.5708 14.0039 5.63672 14.0625 5.71484C14.1309 5.8125 14.1797 5.90771 14.209 6.00049C14.2383 6.09326 14.2529 6.19336 14.2529 6.30078C14.2529 6.4082 14.2334 6.5083 14.1943 6.60107C14.1553 6.69385 14.0967 6.7793 14.0186 6.85742L11.1914 9.59668L11.8506 13.4932C11.8701 13.6006 11.8677 13.7056 11.8433 13.8081C11.8188 13.9106 11.7773 14.0107 11.7188 14.1084C11.6699 14.1963 11.6064 14.2695 11.5283 14.3281C11.4502 14.3867 11.3574 14.4258 11.25 14.4453C11.1426 14.4746 11.0352 14.4819 10.9277 14.4673C10.8203 14.4526 10.7227 14.4209 10.6348 14.3721L7.14844 12.5557L3.64746 14.3721C3.5498 14.4209 3.45215 14.4526 3.35449 14.4673C3.25684 14.4819 3.1543 14.4746 3.04688 14.4453C2.93945 14.4258 2.8418 14.3867 2.75391 14.3281C2.66602 14.2695 2.59277 14.1963 2.53418 14.1084C2.48535 14.0107 2.44873 13.9106 2.42432 13.8081C2.3999 13.7056 2.40234 13.6006 2.43164 13.4932L3.09082 9.59668L0.27832 6.85742C0.19043 6.7793 0.12207 6.69385 0.0732422 6.60107C0.0244141 6.5083 0 6.4082 0 6.30078C0 6.19336 0.0146484 6.09326 0.0439453 6.00049C0.0732422 5.90771 0.12207 5.8125 0.19043 5.71484C0.258789 5.63672 0.339355 5.5708 0.432129 5.51709C0.524902 5.46338 0.629883 5.42188 0.74707 5.39258L4.64355 4.83594L6.37207 1.32031Z" fill="#E95D2A"/>
</svg>
