<svg width="13" height="13" viewBox="0 0 13 13" fill="none" xmlns="http://www.w3.org/2000/svg">
<path d="M12.1581 5.70312C12.2987 5.79688 12.4042 5.91016 12.4745 6.04297C12.5448 6.17578 12.58 6.32812 12.58 6.5C12.58 6.66406 12.5448 6.81055 12.4745 6.93945C12.4042 7.06836 12.2987 7.17969 12.1581 7.27344L10.7518 8.23438L11.08 9.89844C11.1112 10.0625 11.1053 10.2148 11.0624 10.3555C11.0194 10.4961 10.9393 10.625 10.8221 10.7422C10.705 10.8594 10.576 10.9395 10.4354 10.9824C10.2948 11.0254 10.1425 11.0312 9.97839 11L8.31433 10.6719L7.37683 12.0781C7.27527 12.2188 7.15613 12.3242 7.01941 12.3945C6.88269 12.4648 6.72839 12.5 6.55652 12.5C6.39246 12.5 6.24597 12.4648 6.11707 12.3945C5.98816 12.3242 5.87683 12.2188 5.78308 12.0781L4.84558 10.6719L3.18152 11C3.01746 11.0312 2.86511 11.0254 2.72449 10.9824C2.58386 10.9395 2.45496 10.8594 2.33777 10.7422C2.22058 10.625 2.1405 10.4941 2.09753 10.3496C2.05457 10.2051 2.04871 10.0469 2.07996 9.875L2.40808 8.23438L1.00183 7.27344C0.861206 7.17969 0.755737 7.06836 0.685425 6.93945C0.615112 6.81055 0.579956 6.66406 0.579956 6.5C0.579956 6.32812 0.615112 6.17578 0.685425 6.04297C0.755737 5.91016 0.861206 5.79688 1.00183 5.70312L2.40808 4.74219L2.07996 3.07812C2.04871 2.91406 2.05457 2.76172 2.09753 2.62109C2.1405 2.48047 2.22058 2.35156 2.33777 2.23438C2.45496 2.11719 2.58386 2.03711 2.72449 1.99414C2.86511 1.95117 3.01746 1.94531 3.18152 1.97656L4.84558 2.30469L5.78308 0.898438C5.87683 0.765625 5.99011 0.666016 6.12292 0.599609C6.25574 0.533203 6.40808 0.5 6.57996 0.5C6.75183 0.5 6.90417 0.533203 7.03699 0.599609C7.1698 0.666016 7.28308 0.765625 7.37683 0.898438L8.31433 2.30469L9.97839 1.97656C10.1425 1.94531 10.2948 1.95117 10.4354 1.99414C10.576 2.03711 10.705 2.11719 10.8221 2.23438C10.9393 2.35156 11.0194 2.48047 11.0624 2.62109C11.1053 2.76172 11.1112 2.91406 11.08 3.07812L10.7518 4.74219L12.1581 5.70312ZM9.50964 7.71875L11.3143 6.47656L9.50964 5.25781L9.93152 3.125L7.79871 3.54688L6.57996 1.74219L5.36121 3.54688L3.22839 3.125L3.65027 5.25781L1.84558 6.47656L3.65027 7.69531L3.22839 9.85156L5.36121 9.42969L6.57996 11.2344L7.79871 9.42969L9.93152 9.85156L9.50964 7.71875ZM4.84558 4.78906C5.08777 4.54688 5.35339 4.36523 5.64246 4.24414C5.93152 4.12305 6.24402 4.0625 6.57996 4.0625C6.91589 4.0625 7.22644 4.12305 7.5116 4.24414C7.79675 4.36523 8.05652 4.54688 8.29089 4.78906C8.53308 5.02344 8.71472 5.2832 8.83582 5.56836C8.95691 5.85352 9.01746 6.16406 9.01746 6.5C9.01746 6.83594 8.95691 7.14844 8.83582 7.4375C8.71472 7.72656 8.53308 7.99219 8.29089 8.23438C8.05652 8.46875 7.79675 8.64453 7.5116 8.76172C7.22644 8.87891 6.91589 8.9375 6.57996 8.9375C6.24402 8.9375 5.93152 8.87891 5.64246 8.76172C5.35339 8.64453 5.08777 8.46875 4.84558 8.23438C4.61121 7.99219 4.43542 7.72656 4.31824 7.4375C4.20105 7.14844 4.14246 6.83594 4.14246 6.5C4.14246 6.16406 4.20105 5.85352 4.31824 5.56836C4.43542 5.2832 4.61121 5.02344 4.84558 4.78906ZM5.64246 7.4375C5.77527 7.5625 5.9198 7.65625 6.07605 7.71875C6.2323 7.78125 6.40027 7.8125 6.57996 7.8125C6.75964 7.8125 6.92566 7.78125 7.078 7.71875C7.23035 7.65625 7.36902 7.5625 7.49402 7.4375C7.62683 7.30469 7.72644 7.16016 7.79285 7.00391C7.85925 6.84766 7.89246 6.67969 7.89246 6.5C7.89246 6.32031 7.85925 6.1543 7.79285 6.00195C7.72644 5.84961 7.62683 5.71094 7.49402 5.58594C7.36902 5.45312 7.23035 5.35352 7.078 5.28711C6.92566 5.2207 6.75964 5.1875 6.57996 5.1875C6.40027 5.1875 6.2323 5.2207 6.07605 5.28711C5.9198 5.35352 5.77527 5.45312 5.64246 5.58594C5.51746 5.71094 5.42371 5.84961 5.36121 6.00195C5.29871 6.1543 5.26746 6.32031 5.26746 6.5C5.26746 6.67969 5.29871 6.84766 5.36121 7.00391C5.42371 7.16016 5.51746 7.30469 5.64246 7.4375Z" fill="white"/>
</svg>
